<svg xmlns="http://www.w3.org/2000/svg" viewBox="0 0 581.51 305.91"><defs><style>.cls-1{fill:#fff;}.cls-2{fill:#0071b9;}</style></defs><title>atlas</title><g id="Capa_2" data-name="Capa 2"><g id="Calque_1" data-name="Calque 1"><rect class="cls-1" width="581.51" height="305.91"/><path class="cls-2" d="M481.11,246.66h-6.33l-15.57-25.37H459l.11,1.42c.2,2.7.31,5.17.31,7.4v16.55h-4.7V214.83H461l15.52,25.23h.13c0-.33-.08-1.55-.17-3.65s-.13-3.73-.13-4.91V214.83h4.73Z"/><path class="cls-2" d="M508.76,246.66h-5.17V219.29h-9.31v-4.46h23.78v4.46h-9.3Z"/><path class="cls-2" d="M517.47,175.47q.33,11.66-7.89,18.89t-23.2,8.17q-13.8.89-24.55-3.63L461.37,182a98.34,98.34,0,0,0,14.91,4.54,43.63,43.63,0,0,0,11.1.89c4-.26,7.07-1.21,9.17-2.88a8.14,8.14,0,0,0,3-7,7.3,7.3,0,0,0-1.54-4.41,15,15,0,0,0-4.26-3.54,103.89,103.89,0,0,0-11.34-5.12,50.57,50.57,0,0,1-12-6.37,25.44,25.44,0,0,1-6.53-7.54,22.15,22.15,0,0,1-2.65-10.44q-.3-11.41,7.27-18.43t21.25-7.88a50,50,0,0,1,12.86.78,85.54,85.54,0,0,1,12.9,3.67L510,132.75a85.16,85.16,0,0,0-11.52-3.22,36.86,36.86,0,0,0-8.9-.56q-5.19.33-7.9,2.91a8.28,8.28,0,0,0-2.6,6.47,7.63,7.63,0,0,0,1.24,4.14,11.76,11.76,0,0,0,3.66,3.25,107.2,107.2,0,0,0,11.75,5.3q12.24,5,16.89,10.51T517.47,175.47Z"/><path class="cls-2" d="M92.36,134.56c-15.32,4.61-23.77,3.7-25.33.67l-2.7,1.4c1.44,2.79,5.06,4.18,10.47,4.18,5,0,11.57-1.21,19.36-3.62C93.55,136.33,93,135.45,92.36,134.56Z"/><path class="cls-2" d="M112.85,88.5c1-.45,1.92-.88,2.88-1.3C102,71.17,88.92,64.05,81.45,68.63L83,71.22C88.86,67.64,100.77,74.58,112.85,88.5Z"/><path class="cls-2" d="M163.73,85.23,161,86.62a4.63,4.63,0,0,1-.09,3.72c-4-12.87-12.47-22.65-23.83-27.58l-1.21,2.79c10.72,4.64,18.66,14,22.35,26.32.23.75.43,1.5.62,2.26-4,5.7-12.54,13.27-24.67,20.93-1.71-3.36-3.6-6.74-5.65-10.09-1.84-3-3.78-5.93-5.78-8.73l-2.84,1.24c2.09,2.89,4.11,5.94,6,9.07,2.06,3.36,3.94,6.75,5.65,10.11-3.52,2.13-7.3,4.26-11.33,6.35a183.89,183.89,0,0,1-17.07,7.77c.61.87,1.21,1.71,1.82,2.54,5.47-2.19,11.06-4.73,16.64-7.62,3.83-2,7.62-4.11,11.28-6.32a97.87,97.87,0,0,1,7.86,22.3,44,44,0,0,1,1,9.12c-13.46,12.91-31.83,17.85-47.58,11L93,164.6a40.38,40.38,0,0,0,16.13,3.32c11.31,0,22.73-4.55,32.19-12.61-.6,2.63-1.74,4.53-3.41,5.55l1.58,2.59c3.21-2,5-5.87,5.29-11.33a63.59,63.59,0,0,0,13.37-19.77,61.29,61.29,0,0,0,4-37.63C164.35,91.1,165.08,87.84,163.73,85.23Zm-8.38,45.92a61.24,61.24,0,0,1-10.63,16.62,51.8,51.8,0,0,0-.94-6.69,101.27,101.27,0,0,0-8.24-23.31c10.16-6.39,19-13.4,24.14-19.68A58.73,58.73,0,0,1,155.35,131.15Z"/><path class="cls-2" d="M115.05,57.17a56.37,56.37,0,1,0,56.36,56.36A56.43,56.43,0,0,0,115.05,57.17Zm39.48,23.2a43.91,43.91,0,0,0-12.26,1.12C132,83.67,119.1,88.6,106,95.38A187.58,187.58,0,0,0,86.45,107a87,87,0,0,1-5.12-16.42c-.33-1.74-.57-3.39-.72-4.94C91,70.54,107.16,61.79,122.78,62.52A51.6,51.6,0,0,1,154.53,80.37ZM83.28,72.92a51.57,51.57,0,0,1,18.92-9.36,57.7,57.7,0,0,0-21.69,17.1C80.73,77.11,81.67,74.46,83.28,72.92ZM76.76,92a94,94,0,0,0,5.71,17.8,91.92,91.92,0,0,0-12.79,11.11,60.5,60.5,0,0,1,5.06-24.71C75.37,94.78,76.05,93.39,76.76,92Zm-1-11.9A39.11,39.11,0,0,0,76,87.19,65.58,65.58,0,0,0,72,95a62.74,62.74,0,0,0-5.16,29.35,26.45,26.45,0,0,0-1.62,2.38,51.42,51.42,0,0,1,10.6-46.63Zm-7.93,51.79a52.7,52.7,0,0,0,1.41,5.36c-.61-1.19-1.2-2.39-1.72-3.63A5.11,5.11,0,0,1,67.85,131.91Zm68.51,28.59c-4.06,1.06-10.56-1.74-17.92-7.91a7.6,7.6,0,0,1-.47,4.1c-.19.46-.39.89-.6,1.3a43.63,43.63,0,0,0,9.49,5.75A51.3,51.3,0,0,1,81.2,152.42a46.15,46.15,0,0,1-11-24.7c2.73-3.72,7.52-8.39,14.27-13.45a141.53,141.53,0,0,0,7.33,13.53,139.11,139.11,0,0,0,13.1,18.12,8.13,8.13,0,0,1,4.7-1.49c.16,0,.31,0,.46,0a128.2,128.2,0,0,1-14.2-19.15,135.37,135.37,0,0,1-7.45-13.88,178.11,178.11,0,0,1,19.78-11.81c12.74-6.59,25.2-11.37,35.08-13.46,10.05-2.13,15-.87,16,.89a51.53,51.53,0,0,1-22.94,73.45Z"/><path class="cls-2" d="M182.68,246.66h-17.9V214.83h17.9v4.39H170v8.67h11.93v4.36H170v10h12.73Z"/><path class="cls-2" d="M223.08,246.66h-6l-7.92-13-8,13h-5.54l10.49-16.5-9.82-15.33h5.75l7.32,12,7.31-12h5.59l-9.9,15.41Z"/><path class="cls-2" d="M257.74,224.45a9.31,9.31,0,0,1-3.25,7.64c-2.17,1.77-5.24,2.66-9.24,2.66H242v11.91h-5.17V214.83h9.11q5.92,0,8.88,2.44C256.75,218.89,257.74,221.29,257.74,224.45ZM242,230.37h2.75c2.66,0,4.6-.46,5.84-1.39a5.06,5.06,0,0,0,1.86-4.35,5,5,0,0,0-1.66-4.1c-1.12-.9-2.84-1.35-5.2-1.35H242Z"/><path class="cls-2" d="M291.29,246.66H273.4V214.83h17.89v4.39H278.57v8.67h11.92v4.36H278.57v10h12.72Z"/><path class="cls-2" d="M313,234v12.71h-5.17V214.83h8.93q6.14,0,9.07,2.3t2.94,7q0,5.94-6.14,8.47l8.93,14.09h-5.88L318.11,234Zm0-4.32h3.59c2.41,0,4.15-.45,5.24-1.35a4.9,4.9,0,0,0,1.62-4,4.34,4.34,0,0,0-1.75-3.88,9.6,9.6,0,0,0-5.28-1.18H313Z"/><path class="cls-2" d="M346.42,246.66V214.83h5.17v31.83Z"/><path class="cls-2" d="M383.33,246.66l-9.17-26.58H374c.24,3.94.37,7.64.37,11.1v15.48h-4.7V214.83H377l8.79,25.32h.12l9.05-25.32h7.32v31.83h-5V230.92c0-1.59,0-3.64.12-6.19s.14-4.07.21-4.61h-.18l-9.5,26.54Z"/><path class="cls-2" d="M438.22,246.66h-17.9V214.83h17.9v4.39H425.49v8.67h11.93v4.36H425.49v10h12.73Z"/><path class="cls-2" d="M228.38,201.28l-6.25-20.51H190.72l-6.25,20.51H164.78l30.42-86.53h22.34l30.53,86.53Zm-10.61-35.84q-8.66-27.87-9.75-31.53c-.73-2.44-1.25-4.36-1.57-5.78q-1.94,7.55-11.13,37.31Z"/><path class="cls-2" d="M278.28,201.28H260v-71H236.61V115.11h65.07v15.21h-23.4Z"/><path class="cls-2" d="M312.85,201.28V115.11h18.28v71.08h34.95v15.09Z"/><path class="cls-2" d="M434.29,201.28,428,180.77H396.62l-6.24,20.51H370.69l30.41-86.53h22.35L454,201.28Zm-10.61-35.84q-8.67-27.87-9.76-31.53c-.73-2.44-1.24-4.36-1.56-5.78q-2,7.55-11.14,37.31Z"/><path class="cls-2" d="M143.73,161.6c-.31.3-1.23,1.52-1.94,1.57s-4,.68-4,1.91c-3,1.35-8.51,2.68-10.27,3.43a25.63,25.63,0,0,0-9.29-2.24,19.71,19.71,0,0,0-7.08-2.74l-1.09-.32.59-2a7.41,7.41,0,0,0,5-5.53,7.09,7.09,0,0,0-3.69-8.23c-3.76-1.74-8.07,1-8.27,5.7a12.31,12.31,0,0,0,.83,4.77c0,.1.07.2.1.29a19,19,0,0,1-.86,2.43,39.5,39.5,0,0,0-7.11-1.42c-6.07-3.57-12.31-3.76-15.24-4.74-2-2.49-7-4.54-11.32-8.43-.27-.24.55-2.46-1.68-4-1.57-1.53-1.85-2.31-2.88-4.55-.85-.87-1.86-1.56-2.88-1.2a22.55,22.55,0,0,1,1,3.9c.34,3.06,1.9,5,3.43,7.46a33.86,33.86,0,0,0,10.19,12.35,49.74,49.74,0,0,0,15.17,7.67A62.37,62.37,0,0,0,94,179c.44,2.06,1.08,3.55,1,5-.11,3.14-.31,2.69-1.84,5.85-4,8.24-2.93,20.69-2.71,26.53,0,.27,0,.53,0,.77,0,.56-.28,1.17-1.51,1.29h0c-4.08.24-9.4,2.89-13.91,8.27-3.76,4.47-7.28,5.8-10.93,5.36-3.2-.38-4.42,1.36-3.12,3.88,1.39,2.71,1,3.63.65,6.22-.22,1.73-.73,2.89.7,4.62,1.75,2.12,6.66,1.12,5.64.58-3-1.59-.56-5.4.43-7.51,8.33-7.67,22.29-12.06,24.08-13,2.67-1.3,6.07-1.51,6.79-4.62,0-.08,2.81-10.76,4.59-17.22.29-1.08,1.1-2.31,2.23-1.76a6.25,6.25,0,0,1,1.22.84c3.09,2.57,7.27,4.75,9.82,6.33a1.29,1.29,0,0,1,0,2,16,16,0,0,0-4.75,12.45c.27,3.61-.89,12.14-2.62,15.72-1.85,3.81-1.41,5.52,2.71,5,4.59-.6,5.67.87,8.35,1.3s5.72-2.09,4.42-2.6-6.82-1.13-9-4.7c.58-6.64,11.91-27.6,12.43-30.74-1.13-7.19-13.2-15.24-14.94-16.79a29.73,29.73,0,0,1-.34-6c.51-2.4,3.28-9.52,3.26-11.27,3.52.4,10,.94,12.58-.43,3.94-1,9-5,10.27-6.61,1-.94,2.9-1,3.74-1.76,1.09-1,1.59-1.63,2.92-4.36C147.13,159.67,144.79,160.59,143.73,161.6Z"/></g></g></svg>