<?xml version="1.0" encoding="utf-8"?>
<!-- Generator: Adobe Illustrator 23.0.1, SVG Export Plug-In . SVG Version: 6.00 Build 0)  -->
<svg version="1.1" id="Layer_1" xmlns="http://www.w3.org/2000/svg" xmlns:xlink="http://www.w3.org/1999/xlink" x="0px" y="0px"
	 viewBox="0 0 2000 2000" style="enable-background:new 0 0 2000 2000;" xml:space="preserve">
<style type="text/css">
	.st0{fill:#BF264E;}
	.st1{fill:#118AB2;}
	.st2{fill:#FFD166;}
	.st3{fill:none;stroke:#118AB2;stroke-width:29;}
</style>
<g>
	<g>
		<g>
			<g>
				<path class="st0" d="M841.4,572.1c15.2-27.8,29.4-53.8,43.7-79.8c42-76.7,84.2-153.3,126-230.2c4-7.3,8.5-10.7,17.1-7.8
					c16.2,137.7,32.3,275.8,48.6,413.9c-17.8,0-36.1,0-54.8,0c-9.9-102.8-19.9-205.9-29.8-308.9c-1.1-0.2-2.3-0.4-3.4-0.5
					c-2,3.3-4,6.7-5.8,10c-52.5,94.6-105.2,189.1-149.3,288.1c-1,2.3-3.6,3.9-5.4,5.9c-2.5-2.5-5.7-4.6-7.2-7.6
					c-48-94.1-95.8-188.3-143.6-282.5c-2.3-4.5-4.7-9-8.3-13.4C656.6,462,641.2,564.3,638,668.2c-13.7,0-27.2,0-41.4,0
					c19.4-137.5,38.9-275.4,58.4-413.5c13-3.1,13.5-2.9,19.7,9.3c50,99.2,101,197.9,157.8,293.4
					C835.1,561.8,837.8,566.1,841.4,572.1z"/>
			</g>
			<g>
				<path class="st0" d="M537.4,604.7c-1,12.3-1.3,23-2.9,33.6c-0.5,3-4.1,6.2-7,8c-25.6,15.4-53.7,23.4-83.1,27.4
					c-39.3,5.3-78.4,4.4-116.8-6.7C265.4,649,222.3,609.6,201,548.2c-19-55-21.1-111.2-2-166.4c25.8-74.4,81.7-115.2,156.7-131.4
					c63.8-13.8,125.7-4.8,185.6,19.9c1.2,0.5,2.2,1.2,3.7,2c-4.2,15.6-8.4,31.1-13.1,48.4c-3.7-3.1-6.6-5.2-9.2-7.7
					c-61-59.5-159.8-61.2-220.5-3.6c-22,20.9-36.4,46.7-45.1,75.6c-15.7,52.2-16,104.6,1.1,156.4c29.4,89.2,114.4,131.8,204,103.3
					c23.9-7.6,46-19,66.2-33.8C531,609.1,533.6,607.4,537.4,604.7z"/>
			</g>
			<g>
				<path class="st0" d="M1384.8,534.5c-0.9,77.2-49.3,130.4-122.5,140.4c-31.5,4.3-61.8,0.5-91-11.3c-8.8-3.5-16.9-8.8-25.4-13.3
					c-8.1-4.3-10.2-9.9-7.1-19.4c3.9-12,5.3-24.9,8-37.4c0.5-2.2,2.2-4,3.3-6.1c2,1.3,4.3,2.3,5.8,4c11,12.7,20.5,27.2,33.1,38.1
					c28.9,24.9,73.8,28.1,105,9.8c30.8-18.1,47.8-56.3,40.8-93.2c-4.7-24.7-20-41.8-41.9-52.5c-20.9-10.2-42.7-18.6-63.9-28.1
					c-10.8-4.8-21.4-10-31.8-15.5c-71.6-37.9-60.2-138.4-12.9-175.5c45.1-35.4,124.2-40.5,172.6-9.6c8,5.1,11.9,9.4,6.8,19.6
					c-4.8,9.6-6.7,20.6-10.1,30.9c-0.9,2.8-2.9,5.2-4.4,7.8c-2.2-2.3-5.3-4.1-6.6-6.8c-20.6-41-65.1-57.2-107-38.9
					c-44.7,19.5-57.2,79-22.8,113.6c11,11,25.4,19.3,39.4,26.4c17,8.7,35.4,14.5,52.9,22.3c11.9,5.3,23.8,10.9,35,17.7
					C1370.7,476.1,1385.8,503.6,1384.8,534.5z"/>
			</g>
		</g>
	</g>
	<path class="st1" d="M1673.6,920.8c-1.8,1.4-3,2.3-4.3,3.3c-1,0.7-2,1.4-3.9,2.6c-53.9-88.3-114.7-171.1-183.3-248.5
		c2.6-2.5,4.7-4.4,7.5-7.1C1558.2,748.7,1619.1,831.4,1673.6,920.8z"/>
	<path class="st1" d="M1085.8,1522.8c-5.6,1.7-10.1,3.9-13.1-3.9c-26.4-68.7-59.2-134.1-98.8-196.2c-0.5-0.8-0.7-1.7-1.1-2.8
		c5.4-2.9,9.8-4.9,14.3,2.2c38.9,62.1,71.1,127.5,97.6,195.7C1085.2,1519.2,1085.4,1520.8,1085.8,1522.8z"/>
	<path class="st1" d="M1091.8,1568.8c1.7-0.5,2.8-0.9,4.1-1.1c1.9-0.3,3.7-0.5,6.7-0.8c23.6,68.1,41.1,137.6,54.2,208.8
		c-7.1,1-11.9,1.4-13.4-6.9c-12.1-66.3-29-131.3-50.3-195.2C1092.5,1572.1,1092.2,1570.6,1091.8,1568.8z"/>
	<path class="st1" d="M955.9,1275.9c-7.7,4.6-11.5,3-16.4-2.8c-29.4-35.7-59.3-70.9-89.1-106.2c-2.4-2.9-5.1-5.6-8.2-8.9
		c3.3-2.1,6.1-4,9.5-6.2C890,1190.4,924.4,1231.5,955.9,1275.9z"/>
	<path class="st1" d="M752.2,1709c-6.5-0.8-11.2-0.1-14.3-7.4c-16.2-38.4-33.1-76.5-49.8-114.7c-0.4-0.9-0.5-1.8-0.8-2.7
		c7.5-3.5,12.3-2,15.7,6.1c15.5,37,31.3,73.8,47,110.7C751,1703.2,751.3,1705.7,752.2,1709z"/>
	<path class="st1" d="M1043.5,308.1c22.1,13.1,43.7,25.8,65.1,38.7c7.1,4.3,14,8.9,20.9,13.4c10.6,6.9,10.6,7,12,21.2
		c-2.5-1.4-4.5-2.4-6.5-3.6c-27.4-16.7-54.7-33.8-82.4-50.1C1044.8,323.2,1041.5,318.1,1043.5,308.1z"/>
	<path class="st1" d="M674.7,1537.5c-9.6,4.6-13.9,2.7-18.8-4.2c-19.3-27.2-39.5-53.8-59.7-81.1c1.7-1,4.6-2.7,9.8-5.8
		C628.7,1476.5,651.4,1506.6,674.7,1537.5z"/>
	<path class="st1" d="M1460.9,636.8c-3.7,3.7-5.6,5.7-6.3,6.5c-12.6-11.6-24.6-22.4-36.3-33.5c-8.5-8.1-16.4-17-25.1-24.8
		c-6.1-5.5-10.6-10.8-6.5-18C1410.8,589.7,1435.5,612.9,1460.9,636.8z"/>
	<path class="st1" d="M512.5,1376c3.1-2.5,5.8-4.7,9.4-7.5c16.9,14.8,33.6,29.5,50.3,44.1c-7,6.9-11.7,6.1-17.8,0.2
		C541.2,1400.2,527.1,1388.7,512.5,1376z"/>
	<path class="st1" d="M422.2,1658.6c6.9-6.4,11.5-5,16.1,2.4c9.2,14.8,19.2,29.1,29,43.9c-8.7,4.8-13.4,3-17.9-4.6
		C441,1686.1,431.4,1672.6,422.2,1658.6z"/>
	<path class="st1" d="M400.4,1618c-2.9,1.5-6.2,3.2-10,5.1c-6.4-7-12.6-13.8-19.5-21.3c2-1.7,4.7-4,8.5-7.2
		C386.6,1602.5,393.3,1610,400.4,1618z"/>
	<path class="st1" d="M431.6,1710.8c-9.5-13.6-19.1-27.2-28.6-40.9c1-0.7,1.9-1.4,2.9-2.1c11.1,12.5,20.4,26.3,28.4,41
		C433.4,1709.5,432.5,1710.1,431.6,1710.8z"/>
	<path class="st1" d="M314.4,1560c3.5-3.2,5.8-5.3,8.6-7.9c6.6,4.5,12.8,8.7,20.1,13.7c-3.3,2.9-6,5.2-9,7.9
		C327.8,1569.3,321.9,1565.2,314.4,1560z"/>
	<path class="st1" d="M357.2,1615.2c5.1,4.7,10.2,9.3,15.4,14c-0.8,0.9-1.6,1.8-2.4,2.7c-5.3-4.5-10.6-9.1-15.9-13.6
		C355.3,1617.2,356.2,1616.2,357.2,1615.2z"/>
	<path class="st1" d="M304.8,1575.3c4.2,2.9,8.5,5.7,12.7,8.6c-0.6,0.9-1.2,1.8-1.9,2.7c-4.3-2.8-8.5-5.7-12.8-8.5
		C303.5,1577.2,304.2,1576.3,304.8,1575.3z"/>
	<path class="st2" d="M64.1,1958.2c47.6-63.7,109-110.8,179.3-146.6c75.4-38.4,155.9-59.7,239.7-69.5
		c126.4-14.7,251.2-3.2,374.9,23.9c86.1,18.8,172.5,36.2,260.4,44.4c77.5,7.2,154.9,8.8,231.6-8.2c70.9-15.7,129.4-51.3,175-107.9
		c17.2-21.4,34.7-42.6,52.2-63.8c5-6,5.8-12.1,0.3-18c-4.9-5.3-12.9-4.9-18.5,1.7c-13.7,16-27.7,31.8-40.1,48.9
		c-58.1,80.3-138.8,117.2-235.4,125.4c-78.2,6.6-155.9,1.7-232.9-11.1c-76.5-12.7-152.3-29.2-228.5-43.6
		c-112.6-21.2-226-29.3-340.3-16.1c-104,12-202.5,41.1-292.5,95.9c-0.8,0.5-1.7,0.8-4.4,2c1.6-2.4,2.1-3.6,2.9-4.5
		c114-108.7,246.2-184.5,400.5-219.9c84.5-19.4,169.9-20.4,256.1-17.4c204.1,7,400.9-25.8,585.4-117.4
		c86.7-43,163.9-98.9,225.9-174.2c22.2-27,41.3-56,56.5-87.5c3.9-8,1.8-15-5-17.9c-7.6-3.2-12.9-0.2-16.6,6.7
		c-0.4,0.8-0.9,1.7-1.3,2.5c-21.8,43.9-51,82.5-85.4,117.2c-62.6,63.2-136.5,110-217,146.8c-102.5,46.8-210.3,74.5-321.7,89.4
		c-92.5,12.4-185.1,11.4-278.2,8.4c-168.7-5.4-324.5,39.5-467.5,129c-47,29.4-90.7,63.1-131.6,100.4c-2,1.8-4.2,3.5-7.7,4
		c2.4-3.1,4.8-6.2,7.3-9.2c170.3-204.3,383.2-344.8,637.4-422.3c58-17.7,117.5-30,175.7-46.8c217.2-62.8,420.9-154.7,606.3-285.2
		c65.5-46.1,126.5-97.4,179.4-157.8c2.1-2.4,5.5-4.9,5.6-7.5c0.2-4.9,0.1-11.7-2.9-14.3c-3-2.6-9.6-1.2-14.6-1c-1.2,0-2.4,2-3.4,3.2
		c-73.2,83.8-160.8,150.2-254.7,208.7c-192.8,120-400.6,203.4-621.3,256.3C647,1364.9,431.9,1485.3,251,1665.9
		c-44.4,44.3-85.2,91.7-122.4,142.1c-1.1,1.5-2.4,2.9-5.2,3.6c1.6-3.1,3.2-6.2,4.9-9.3c58-104.2,130.5-197.5,213.3-283
		c128.5-132.7,276-240.3,435.4-332.8c238.9-138.6,459.5-302.6,666.2-485.6c109.6-97,214.7-198.6,312.4-307.7
		c2.8-3.1,6.9-6.1,7.6-9.6c0.9-4.7,0.4-11-2.2-14.6c-3.7-5.1-10.1-4.7-15.4-0.9c-1.8,1.3-3.2,3.1-4.7,4.8
		c-122.4,136.9-256,262.3-396.1,380.8c-192.1,162.4-397.1,306.5-614.9,432.7C585.7,1269.9,454.2,1370.4,337,1489
		c-104.4,105.6-193.8,222.3-258.6,356.6c-12.9,26.7-23.1,54.6-34.6,81.9v38.1h15.4C60.9,1962.8,62.4,1960.4,64.1,1958.2z"/>
	<path class="st1" d="M61.4,1848.7c-2.9-0.8-6-2.4-8.9-2.2c-3.9,0.3-6.7-0.2-8.7-1.4v10.6c1.7,0,3.6,0.6,5.2,0.8
		C54.7,1856.8,60.9,1858.6,61.4,1848.7z"/>
	<path class="st1" d="M263,1959.2c-4-39.5-14.4-77.1-34.8-111.6c-2.6-4.4-5.5-8.6-8.8-13.7c-3.5,2.1-6.6,3.9-10.4,6.2
		c26,37.9,38.3,79.6,42.8,125.4h12.9C263.8,1964.1,263.3,1962,263,1959.2z"/>
	<path class="st1" d="M55.1,1502.5c68.2,3.7,133.8,18.1,195.9,47.2c2.6,1.2,5.4,2.1,8.2,3.1c0.4-0.9,0.8-1.8,1.2-2.7
		c-5.8-2.8-11.5-5.9-17.4-8.4c-60.4-26.1-123.4-40.9-189.2-42.6c-4.6-0.1-7.7-0.2-9.9-0.8v4.4C46,1502.1,49.5,1502.2,55.1,1502.5z"
		/>
	<path class="st1" d="M113.3,1757.1c-22.7-8.3-45.5-11.5-69.5-13v10.9c22,3.7,42.7,7.2,64.2,10.8
		C109.1,1764,110.9,1761.1,113.3,1757.1z"/>
	<path class="st1" d="M512.6,1965.6c-0.8-2.1-1.2-5.1-1.6-9.3c-5.5-53.5-15.2-106-33.4-156.8c-4.5-12.6-9.8-24.9-14.8-37.4
		c-1-2.4-2.5-4.6-3.8-7c-0.8,0.3-1.7,0.6-2.5,1c0.6,2.4,1,4.9,2,7.2c27.8,62.1,41.5,127.7,48.9,194.9c0.4,3.3,0.2,5.6-0.7,7.3H512.6
		z"/>
	<path class="st1" d="M282.8,1528.4c-75.2-38.5-154.9-57-239.1-59.2v11.7c16.8,1,33.9,1.6,50.8,3.5c61.1,6.8,119.6,22.9,174.9,50.3
		C275.6,1537.8,275.7,1537.6,282.8,1528.4z"/>
	<path class="st1" d="M161.5,1965.6c-0.9-1.5-1.4-3.6-1.8-6.2c-2.8-23.4-9.9-45.4-24.2-65.2c-6.8,2.5-9,5.4-4.5,12.5
		c10.7,16.6,16,35.4,18.5,54.9c0.1,1-0.4,2.6-1,4H161.5z"/>
	<path class="st1" d="M818.4,1119.4c-106.2-97.7-227.3-168.1-361.8-215.7c-133.2-47.2-270.5-71.5-412.9-71.9v10.9
		c287.3,7.2,545.6,89.7,765,282.6C811.2,1123.7,814.3,1121.9,818.4,1119.4z"/>
	<path class="st1" d="M79.8,1221.3c139.6,8.7,270,46.5,388,123.3c7.1,4.6,7.1,4.6,15.8-4.1c-133.5-88.7-281-128.8-439.8-132.4v13.1
		C56,1221.1,68,1220.6,79.8,1221.3z"/>
	<path class="st1" d="M236.4,44.8c183.1,24.7,360.8,69.7,532.6,137.6c68.6,27.1,135.6,57.9,200.9,92.4c4.2,2.2,8.5,4.4,13.9,7.2
		c2-3.7,3.7-6.6,5.8-10.4C762.3,150.2,520.8,74.9,267.2,37.1H156.9C183.5,38.8,210,41.3,236.4,44.8z"/>
	<path class="st1" d="M1941.7,1648.1c-11.4-59.8-24.3-119.5-39.8-178.4c-15.6-59.2-33.3-118-53.6-175.7
		c-20.2-57.4-43.7-113.8-67.6-169.8c-24.1-56.3-52.7-110.5-83.9-164.2c-3,2.5-5.3,4.4-7.7,6.4c171.2,301.2,250.2,627.7,279.2,969.5
		v-124.2C1959.7,1757.4,1952.1,1702.5,1941.7,1648.1z"/>
	<path class="st1" d="M800,1934.7c-5.9-57.3-15.8-113.8-30.2-169.5c-2.1-7.9-5.8-10.5-14.4-8.7c18.4,68.5,30.1,137.9,35.5,209.1
		h12.4C802.1,1955.4,801.1,1945.1,800,1934.7z"/>
	<path class="st1" d="M531.5,1894.2c-7.7-46.8-20.6-92.1-38.6-136c-3.3-8.1-7.5-10.2-16.3-6.8c30.2,68.3,46,140.1,52,214.2h12.8
		C538.2,1941.6,535.4,1917.8,531.5,1894.2z"/>
	<path class="st1" d="M1180.5,1958.6c-4.4-43.2-9.7-86.3-14.8-129.4c-0.3-2.5-1.1-4.9-1.7-7.8c-3.8,0-7.1,0-10.4,0
		c5.5,47.9,11,95.5,16.6,144.1h12C1181.4,1963.9,1180.9,1961.7,1180.5,1958.6z"/>
	<rect x="33.9" y="27.3" class="st3" width="1944.1" height="1948.2"/>
</g>
</svg>
