<?xml version="1.0" encoding="utf-8"?>
<!-- Generator: Adobe Illustrator 23.0.1, SVG Export Plug-In . SVG Version: 6.00 Build 0)  -->
<svg version="1.1" id="Layer_1" xmlns="http://www.w3.org/2000/svg" xmlns:xlink="http://www.w3.org/1999/xlink" x="0px" y="0px"
	 viewBox="0 0 2000 2000" style="enable-background:new 0 0 2000 2000;" xml:space="preserve">
<style type="text/css">
	.st0{fill:#67B7C9;stroke:#67B7C9;stroke-width:33;stroke-miterlimit:10;}
	.st1{fill:#118AB2;stroke:#118AB2;stroke-width:33;stroke-miterlimit:10;}
	.st2{fill:#BF264E;stroke:#BF264E;stroke-width:33;stroke-miterlimit:10;}
</style>
<path class="st0" d="M1493.2,682.6c2.2-1.7,3.5-2.7,4.8-3.6c1-0.7,2-1.4,3.7-2.5c69,78.1,130.3,161.4,184.2,249.8
	c-0.5,1.2-0.6,2-1,2.3c-1.6,1.5-3.4,2.9-6.2,5.2C1624.2,844.8,1563,761.5,1493.2,682.6z"/>
<path class="st0" d="M980.6,1329.5c6.4-3.4,10.6-3.9,14.9,2.9c38.9,62.3,71.2,127.9,97.8,196.4c0.6,1.5,0.8,3,1.3,4.9
	c-6.1,2.5-10.5,3.5-13.6-4.5c-26.5-68.9-59.4-134.5-99.1-196.7C981.4,1331.7,981.2,1330.8,980.6,1329.5z"/>
<path class="st0" d="M1100.6,1580.1c3.5-0.7,6.5-1.3,10.7-2.1c23.8,68.8,41.4,138.9,54.7,210.6c-7,1-12,1.6-13.5-6.9
	c-12.2-67.1-29.3-132.9-51-197.6C1101.2,1583.1,1101,1581.9,1100.6,1580.1z"/>
<path class="st0" d="M851.6,1164.9c1.1-0.7,3.7-2.4,7.2-4.7c38.4,38.6,73,80.2,104.8,124.9c-5.5,3.2-9.6,5.8-14.8-0.7
	C916.8,1244.6,884.4,1205.2,851.6,1164.9z"/>
<path class="st0" d="M758.5,1720.9c-8.7,1.3-12.3-1.7-15.2-9c-15.6-38.9-31.9-77.6-48.3-116.9c5.1-2,10.2-2.1,13.8,6.5
	c15.8,37.9,32,75.6,48,113.3C757.5,1716.5,757.8,1718.4,758.5,1720.9z"/>
<path class="st0" d="M1150.2,384.1c-18.6-11.6-37-23.2-55.5-34.5c-10.9-6.7-21.8-13.6-33.3-19.3c-8.2-4-11.4-9.5-9.7-18.9
	c2,0.9,4,1.4,5.8,2.5c27.5,16.5,54.7,33.4,82.5,49.6C1148.4,368.4,1151.4,374.6,1150.2,384.1z"/>
<path class="st0" d="M680.4,1548.7c-10.1,5-14.2,2.2-19-4.4c-19.4-27.3-39.8-54.1-60.1-81.5c2-1.1,5-2.8,10-5.7
	C634.3,1487.6,657.1,1517.9,680.4,1548.7z"/>
<path class="st0" d="M1472.5,641c-4.5,4.1-6.5,6-6.8,6.2c-12.7-11.5-25.1-22.6-37.2-34c-8.6-8.1-16.4-17.3-25.4-24.9
	c-6.5-5.5-8.6-10.9-5.3-17.5C1422.3,593.8,1447,617,1472.5,641z"/>
<path class="st0" d="M577.2,1422.9c-7,6.9-11.7,6.2-17.9,0.2c-13.2-12.7-27.4-24.2-42-37c2.8-2.3,5.5-4.7,9.2-7.8
	C543.5,1393.4,560.3,1408.1,577.2,1422.9z"/>
<path class="st0" d="M471.6,1717.5c-9.2,4.6-13.7,2.6-18-4.6c-8.5-14.2-18.1-27.8-27.5-42.1c6.2-5.9,10.9-6.1,16.1,2.2
	C451.4,1688,461.5,1702.3,471.6,1717.5z"/>
<path class="st0" d="M375.1,1612.9c1.7-1.4,4.1-3.4,7.3-6c6.8,7.9,13.4,15.5,20.4,23.6c-1.2,0.6-4.3,2.4-8.2,4.5
	C388.2,1627.8,381.9,1620.7,375.1,1612.9z"/>
<path class="st0" d="M435.5,1723.4c-9.6-13.8-19.1-27.5-28.7-41.3c1-0.7,1.9-1.4,2.9-2.1c11.1,12.7,20.4,26.6,28.7,41.3
	C437.4,1722,436.5,1722.7,435.5,1723.4z"/>
<path class="st0" d="M346.6,1577.4c-3.8,3.1-6.4,5.3-9.3,7.7c-6.3-4.3-12.2-8.4-18.8-13c2.7-3.1,5-5.6,7.7-8.7
	C332.8,1568,339,1572.3,346.6,1577.4z"/>
<path class="st0" d="M373.3,1644.3c-5.2-4.7-10.4-9.5-15.6-14.2c0.9-1,1.8-2,2.6-2.9c5.3,4.7,10.5,9.4,15.8,14.1
	C375.2,1642.2,374.3,1643.3,373.3,1644.3z"/>
<path class="st0" d="M307.7,1586.9c4.3,2.9,8.7,5.9,13,8.8c-0.6,0.9-1.2,1.8-1.7,2.7c-4.4-2.8-8.9-5.6-13.3-8.4
	C306.3,1589,307,1587.9,307.7,1586.9z"/>
<path class="st0" d="M804.4,1930.3c-8.9-50.6-18.8-101.1-28.1-151.6c-1.4-7.8-5-11.4-14.6-9.4c17.6,65.6,29.2,132.2,34.9,200.5H809
	C807.8,1956.5,806.7,1943.3,804.4,1930.3z"/>
<path class="st0" d="M481.6,1812.3c-5.4-15-11.6-29.6-17.5-44.4c-1.1,0.3-2.2,0.6-3.3,1c0.7,2.9,1.1,5.9,2.3,8.6
	c17.6,40.2,30.5,81.9,38.2,125.1c4,22.3,6.7,44.8,9.9,67.2h4.2C509.6,1916.1,500,1863.3,481.6,1812.3z"/>
<path class="st0" d="M1183,1902.5c-2.2-19.5-5.5-38.8-7.6-58.3c-0.9-8.3-4.1-11.6-12.5-9.2c5.1,44.6,10.3,89.4,15.5,134.8h11.7
	C1187.8,1947.2,1185.6,1924.8,1183,1902.5z"/>
<path class="st0" d="M229.5,1859.2c-2.3-3.8-4.8-7.5-7.6-11.7c-3.6,2.1-6.5,3.8-10.5,6.1c24.1,35.3,36.6,74.1,42,116.2h12
	C260.7,1930.6,250.1,1893.3,229.5,1859.2z"/>
<path class="st0" d="M142.7,1916.2c-1.6-2.7-3.5-5.3-5.4-8.1c-7.6,2.8-8.4,6.3-4.3,13c9.2,14.9,14.6,31.1,17.5,48.6h10.6
	C158.6,1950.8,152.8,1932.7,142.7,1916.2z"/>
<path class="st0" d="M540.1,1932.5c-7.7-55.3-21.3-109.1-42.6-160.9c-3.3-8.1-7.2-11.6-14.1-8.2c11.1,36.1,24,71.5,32.7,107.9
	c7.8,32.5,12.2,65.8,17.5,98.5h11.1C543.3,1957.3,541.8,1944.9,540.1,1932.5z"/>
<path class="st0" d="M291.9,52.8C430.1,74.6,565.3,108,697.3,154.5c97.2,34.3,191.5,75.1,282.6,123.4c3.7,1.9,7.4,3.7,12,6
	c2-3.4,3.8-6.6,5.8-10.2c-115.4-62.2-235.1-112-359.2-151.4C529,87.7,417.5,61.5,304.1,42.7h-85.7C242.9,45.6,267.4,49,291.9,52.8z"
	/>
<path class="st0" d="M1702,973.1c152,267.4,231.9,554.7,268.7,854.7V1736c-42.9-269.8-122.8-527.9-260.5-768.8
	C1707.3,969.3,1704.9,971,1702,973.1z"/>
<path class="st0" d="M100.4,1777.9c9.4,2.6,9.3,2.6,14.1-10.1c-20.8-3.7-41.3-7.3-62.9-11.1v12.6c12.9,1.9,25.2,3.7,37.5,5.6
	C93,1775.6,96.7,1776.9,100.4,1777.9z"/>
<path class="st0" d="M261.6,1564.4c0.4-0.7,0.9-1.5,1.3-2.2c-2.1-1.3-4.1-2.9-6.4-4c-53.2-24.9-109-40.2-167.4-45.7
	c-11.5-1.1-23.1-1.7-34.6-2.2c-1,0-1.9-0.1-2.8-0.1v3.3c1.2,0,2.5,0.1,4.1,0.2c68.4,3.7,134.2,17.9,196.5,47
	C255.3,1562,258.5,1563.1,261.6,1564.4z"/>
<path class="st0" d="M63.3,1862.1c-4-0.7-7.9-1.1-11.6-1.9v9.9C56.4,1870.8,61.1,1870.7,63.3,1862.1z"/>
<path class="st0" d="M807.8,1127.9c6,5.4,10.4,6.5,17.2-1.5C604.2,930,342.5,845.8,51.7,836.9v13.3c10.4-0.1,20.8-0.3,31.1,0.1
	c162.9,6.4,319.1,41.6,467.5,109.4C644.6,1002.8,730.6,1058.6,807.8,1127.9z"/>
<path class="st0" d="M286.1,1539.9c-74.1-37.9-152-56.6-234.5-59.5v12.1c79.3,2.1,154.7,20.6,226.5,56.3
	C280.7,1546,283,1543.4,286.1,1539.9z"/>
<path class="st0" d="M470.6,1353.9c7.4,4.9,12,4.2,16.8-3.4c-65.6-44.9-137-77.2-213.2-99.3c-72.5-21.1-146.5-32.6-222.6-33.7v12.6
	c10-0.2,20-0.4,29.9,0.2c119.1,7.2,232.2,36.3,337.7,92.9C436.9,1332.6,453.9,1343,470.6,1353.9z"/>
<path class="st1" d="M1803.4,843.7c-5.1-4.2-10.7-3.8-15.8,0.4c-1,0.8-1.8,1.8-2.7,2.8c-73.6,84.2-161.6,150.9-255.8,209.6
	c-194.4,121.1-404.1,205.2-626.7,258.6c-250.2,60-466.8,181.4-649,363.4c-44.7,44.6-85.7,92.4-123.3,143.2c-1.1,1.5-2.4,2.8-5,3.3
	c1.7-3.2,3.4-6.5,5.2-9.7c58.2-104.7,131.1-198.4,214.2-284.3c129.1-133.5,277.5-241.8,437.7-334.8
	c269.6-156.6,516.1-344.3,744.9-555.6c84.4-77.9,165.9-158.8,242.4-244.6c2.6-2.9,5.3-5.7,7.4-8.9c3.6-5.7,2.7-11.3-2.2-15.7
	c-5-4.3-10.6-4.2-15.9-0.2c-1.5,1.2-2.7,2.7-4,4.2C1579,570.7,1383.7,744.5,1175,903.8c-143.6,109.6-295.2,207.2-451,298.6
	c-140.7,82.5-269.2,181.6-384,297.8c-108.1,109.5-200.2,230.6-265.8,370.6c-8,17.1-15.2,34.6-22.5,52.5v46.4h15.9
	c47.8-62.9,108.9-109.5,178.9-145c75.7-38.5,156.5-59.9,240.5-69.8c127.6-14.9,253.7-3.3,378.6,24.1c86.8,19,173.7,36.4,262.3,44.7
	c75.8,7,151.5,8.7,226.7-6.9c72.9-15.1,133.7-50.2,180.8-108.2c18.1-22.2,36.2-44.3,54.4-66.5c5-6.1,5.7-12.6-0.3-18
	s-12.7-4.5-17.9,1.5c-11.5,13.4-22.3,27.5-34,40.7c-20,22.6-39,46.4-61.3,66.6c-42.7,38.6-95.5,55.9-151.3,64.6
	c-73.4,11.4-146.9,7.4-220.3-0.8c-86.1-9.6-170.5-28.5-255.2-46.2c-106.9-22.3-215-32.1-324.2-24c-118.3,8.8-230.7,37.8-333.1,100
	c-1,0.6-2.2,1-4.3,0.4c3.2-3.1,6.4-6.4,9.7-9.4c117.3-109.6,252.8-184.7,410.7-217.7c68.7-14.3,138.1-19.3,208.2-15.6
	c190.3,10.3,375.6-13.3,553.4-84.6c98.2-39.4,187.9-92.9,263.2-168.2c36.6-36.6,67.7-77.5,90.9-124c1.1-2.3,2.5-4.6,3.2-7
	c1.8-6.7-0.1-12.2-6.7-15.1c-6.2-2.7-11.6-0.7-15,4.8c-3.9,6.3-6.9,13.1-10.4,19.6c-41.1,73.8-100,131-168.8,178.7
	c-91.8,63.6-193.4,105.3-301,133.1c-132.2,34.2-266.5,46-402.7,38.5c-142.5-7.9-278.5,17.9-407.6,78.9
	c-82.1,38.7-156.1,89.5-223.1,150.5c-2.4,2.1-4.8,4.2-8.6,5.3c1.4-2.1,2.7-4.2,4.3-6.2c116.6-141.9,256.9-254.3,420-338.5
	c109-56.2,224.8-92.4,343.5-122.3c241.1-60.6,465.5-159.7,669.5-302.7c65.8-46.1,126.9-97.7,180-158.3c1.9-2.2,4-4.3,5.5-6.7
	C1809.6,854.1,1808.9,848.3,1803.4,843.7z"/>
<path class="st2" d="M675.6,361.7c-13.3,104.1-29,207.2-32.1,311.4c-14.2,0-27.9,0-41.7,0c19.6-138.9,39.2-277.8,58.9-417
	c9.4-2.7,15.2,0.1,20.3,10.3c49.7,99.9,101.1,198.9,158.2,294.9c2.7,4.6,5.6,9.1,9.1,15c12.5-22.8,24.3-44.1,36-65.5
	c45.1-82.3,90.3-164.6,135.2-247.1c4.2-7.7,9.1-10,16.9-7.4c16.3,138.9,32.6,277.7,48.9,416.9c-17.6,0-36.1,0-55.2,0
	c-10-103.6-20.1-207.6-30.1-311.6c-1.2-0.1-2.3-0.1-3.5-0.2c-7.6,13.7-15.3,27.3-22.9,41c-46.9,85-93.6,170.2-133.1,259
	c-1.1,2.5-4.1,4.2-6.2,6.3c-2.4-2.7-5.4-5.1-7-8.2c-48.4-95.1-96.7-190.3-145.1-285.4C680.1,369.9,677.8,365.9,675.6,361.7z"/>
<path class="st2" d="M542.2,609.1c-1,12.7-1.3,23.8-3.1,34.7c-0.5,3.2-5,6.3-8.4,8.3c-35.1,20.3-73.8,27.9-113.7,29.4
	c-44.7,1.7-88-4.5-127.8-26.4c-54.6-30.1-84.3-78-95.3-137.9c-10.1-55-7.5-109.2,19.1-159.8c31-59.1,82.3-91.5,146-105.1
	c63.9-13.6,126-4.9,186.1,19.6c1.2,0.5,2.4,1,3.4,1.7c0.5,0.3,0.8,1,1.2,1.6c-4.1,15.3-8.3,30.7-12.9,47.8c-3.7-3-6.6-5-9.2-7.5
	c-55-53.7-142.8-61.6-205-18c-30.1,21.1-49.4,50.3-60.8,84.8c-18,54.5-18.7,109.5-0.5,164c29.6,89,114.4,131.7,204.1,103.7
	c24.5-7.6,47-19.2,67.7-34.3C535.6,613.7,538.2,611.9,542.2,609.1z"/>
<path class="st2" d="M1395.7,543.5c-0.8,72.5-49.5,126.1-123.2,136.3c-32.1,4.4-62.8,0.4-92.6-11.7c-8.3-3.3-16-8.2-23.9-12.4
	c-8.7-4.7-11.7-10.6-7.9-21c3.9-10.7,4.9-22.6,7.4-33.8c0.7-3.1,2.4-6.1,3.6-9.1c2.7,2.4,5.7,4.5,8,7.2
	c10.4,11.7,19.1,25.6,31.2,35.1c31.1,24.4,66.2,29.3,102.2,11.7c37-18.1,56-66.9,42.1-105.7c-7-19.5-20.8-34-39.5-42.8
	c-21.8-10.2-44.2-19.2-66.1-29c-10.3-4.6-20.4-9.6-30.3-14.8c-72.5-38.3-60.7-140.2-12.4-177.4c45.6-35.1,124.6-40.1,173.1-9.2
	c8,5.1,12.1,9.4,7,19.7c-4.8,9.6-6.6,20.8-10.2,31.1c-1,2.9-3.5,5.4-5.3,8c-2-2.2-4.5-4.2-5.8-6.8c-20.7-41.4-65.4-57.8-107.7-39.4
	c-45,19.6-57.8,79.5-23.1,114.4c11,11.1,25.5,19.5,39.6,26.7c17.1,8.8,35.6,14.7,53.3,22.4c12,5.3,24,10.9,35.2,17.8
	C1382.1,480.1,1396.1,506.5,1395.7,543.5z"/>
</svg>
