<svg xmlns="http://www.w3.org/2000/svg" viewBox="0 0 1156.22 234.49"><defs><style>.cls-1,.cls-10,.cls-3,.cls-4,.cls-5,.cls-6,.cls-7,.cls-8,.cls-9{fill:none;stroke-miterlimit:10;}.cls-1,.cls-6{stroke:#ff6b6b;}.cls-1,.cls-3,.cls-4,.cls-5{stroke-width:14px;}.cls-2{fill:#073b4c;}.cls-10,.cls-3{stroke:#118ab2;}.cls-4{stroke:#073b4c;}.cls-5,.cls-7{stroke:#ffd166;}.cls-10,.cls-6,.cls-7,.cls-8,.cls-9{stroke-linecap:round;stroke-width:5px;}.cls-8{stroke:#6eaece;}.cls-9{stroke:#06d6a0;}</style></defs><title>logo-text_1</title><g id="Capa_2" data-name="Capa 2"><g id="Capa_1-2" data-name="Capa 1"><polyline class="cls-1" points="705.84 23.4 571.92 23.4 640.69 117.51 571.92 208 705.84 208"/><path class="cls-2" d="M133.39,47.76a50.46,50.46,0,0,0-11.16-18.18A47.06,47.06,0,0,0,104.84,18.3a63.9,63.9,0,0,0-22.58-3.8H0V30.84c5.51,0,12.32,0,17.65,0H78.37q18.42,0,29.85,10.14t11.41,31q0,20.86-11.41,31T78.37,113.15H17.65v0c-2.09.11-9.87.17-17.65.16V215.75H17.65V129.5H82.26a63.67,63.67,0,0,0,22.58-3.81,46.91,46.91,0,0,0,17.39-11.27,50.46,50.46,0,0,0,11.16-18.18A70.76,70.76,0,0,0,137.28,72,70.76,70.76,0,0,0,133.39,47.76Z"/><line class="cls-3" x1="184.62" y1="14.5" x2="184.62" y2="214.15"/><line class="cls-3" x1="309.5" y1="16.35" x2="309.5" y2="216"/><line class="cls-3" x1="184.62" y1="91.34" x2="309.5" y2="91.34"/><line class="cls-3" x1="184.62" y1="138.74" x2="309.5" y2="138.74"/><polyline class="cls-4" points="747.01 214.5 747.47 29.5 874.85 145.4"/><polyline class="cls-4" points="874.01 14.5 874.15 200.5 748.17 85.8"/><polygon class="cls-3" points="997.22 19.78 1142.01 19.78 997.22 208 1142.01 208 997.22 19.78"/><line class="cls-5" x1="953.79" y1="14.5" x2="953.79" y2="215.19"/><path class="cls-6" d="M453.39,119s12.31-23.51,19-25.19,12.88-15.68,7.28-15.68S495.38,46.77,501.54,44s15.12-20.15,15.12-20.15"/><path class="cls-7" d="M470.24,61.17c-9.91,11.56-16.19,22.47-9.91,20.16s6.61,6.61,2.31,9.58-9.25,28.42-9.25,28.42.49-28.58,5.45-30.57S455.2,68.27,468.75,2.5"/><path class="cls-8" d="M551.71,79.84s-22.8,18.84-48.25,28.09-16.86-3-23.14,3.64-27.1,7.6-27.1,7.6"/><path class="cls-9" d="M453.42,118.07s-34.9,17.62-34.9,22.91-33.71,24.79-39,25.45-10.91,4.63-5.29,5"/><path class="cls-9" d="M453.39,119s-11.74-7.76-12.4-16.69-10.57-3-16.52-14.54-6.28-3-11.9-18.51-9.92,0-15.87-15.86S376.08,33.53,375,35.53"/><path class="cls-9" d="M453.42,118.07s4.43.44,19.63-11.13,23.8-12.89,29.42-18.51,24.12-15.86,30.4-16.85,17.74-12.7,17.74-12.7"/><path class="cls-10" d="M453.42,118.07s-22-35.59-19.7-39.55S421.82,77.19,423.14,61,405,48.11,410.25,31.58s-2.64-7.69-6.11-15.91"/><path class="cls-8" d="M453.22,119.17s13.22,37,11.24,40,11,70.47,16.71,71.09"/><path class="cls-10" d="M453.22,119.17s7.27,19.5,11.57,19.83-.33,9.25,9.58,24.46,32,54.84,31.7,57.33"/><path class="cls-7" d="M453.22,118.18s14.87,13.22,14.54,17.51,5-3.3,14.88,9.92,11.23,4.63,20.16,18.84,7.27,1.32,11.23,2.64"/><path class="cls-9" d="M453.39,119s9.08,7.11,19.33,8.1,2.64,3,22.48,10.91,20.16,7.27,24.12,11.24"/><path class="cls-6" d="M453.54,117.38s1.33,27.9-3.29,28.89,3.3,4.3,0,11.9-10.58,35-4.63,40"/><path class="cls-9" d="M453.22,118.18s-20.82,33.71-43,61.14S389,214,389,214"/><path class="cls-6" d="M453.39,119s-7.77,24-22.31,25.62-17.85,19.5-12.89,18.84-30.77,31.73-36.54,45.12"/><path class="cls-6" d="M454.42,119s-60.69,22.31-58.71,27.6-41.64,11.9-46.6,6"/><path class="cls-6" d="M452.07,119s-90.4-62.63-93.37-68.58"/><path class="cls-10" d="M453.39,119s-72.22-32.88-73.21-32.88"/><path class="cls-7" d="M453.42,118.07s-37.88-5.18-43.5-4.19-25.11,1.65-26.44.66"/><path class="cls-7" d="M452.07,119S400,143.3,398.69,147.59s-26.77,3.31-32.39,15.54"/><path class="cls-7" d="M453.72,120.57s.49,28.35,4.13,30.33-6.61,13.88-6.61,18.18-14.88,12.56-15.54,16.19-.66,19.83-4.95,21.48S433.47,232,433.47,232"/><path class="cls-6" d="M455.63,120.57s5.52,7.85,5.52,10.17S472.39,135,471.73,142s3,17.19,6.61,15.87,7.27,3.63,7.27,8.26,2,17.85,8.59,17.85,14.88-2,15.87,5.29,1.6,25,1.13,28.71"/><path class="cls-6" d="M457.78,117.38A32.86,32.86,0,0,0,477,123.14c11.23-.34,3,9.25,27.76,6.28s24.79,9.58,26.11,3S566,139.14,566,139.14"/><path class="cls-10" d="M457.78,119.33s6,7.44,19.24,3.14,4.29,8.93,25.45,12.89,24.12,13.56,26.11,9.92"/><path class="cls-6" d="M460,117.38s57.67,1.13,71.22-1.52,18.18-3.63,18.18-3.63"/><path class="cls-8" d="M453.51,119s27.47-.49,43.34,2.81.33-5,62.13.66"/><path class="cls-8" d="M452.07,120s-16.37,33.85-13.39,38.81-28.09,33.38-29.42,40.65"/><path class="cls-8" d="M342,91.75c4.8,0,34.21,4.61,38.84,9.24s34.7,6.94,40.65,10.58,5.62-3,8.6,1,8.59.33,9.58,2.64,13.55,4,13.55,4,56.85-47.59,56.52-52.55"/><path class="cls-8" d="M455.54,119s23.46,16.36,29.08,15.7,15.53,13.22,28.42,14.55,41.62,18.17,42.13,22.14"/><path class="cls-8" d="M453.39,119s-1.82-23.63-3.8-24,3.63-8.59-2-10.24-9.91-39.33-7.93-43.63-.66-11.57-3-10.91-2.65-21.09,0-24.43"/><path class="cls-8" d="M452.07,119s-9.43,4.47-14.38,2.81-21.49,2.65-13.55,4-15.87,1.32-17.19-.66,4,5.62-9.59,5.62-8.26,4.62-8.26,4.62"/></g></g></svg>