<svg xmlns="http://www.w3.org/2000/svg" viewBox="0 0 229 234.49"><defs><style>.cls-1,.cls-2,.cls-3,.cls-4,.cls-5{fill:none;stroke-linecap:round;stroke-miterlimit:10;stroke-width:5px;}.cls-1{stroke:#4cbf9e;}.cls-2{stroke:#ffc107;}.cls-3{stroke:#308dc6;}.cls-4{stroke:#122a33;}.cls-5{stroke:#e53e56;}</style></defs><title>Recurso 2</title><g id="Capa_2" data-name="Capa 2"><g id="Capa_1-2" data-name="Capa 1"><path class="cls-1" d="M113.88,119s12.32-23.51,19-25.19,12.88-15.68,7.28-15.68S155.88,46.77,162,44s15.12-20.15,15.12-20.15"/><path class="cls-2" d="M130.74,61.17c-9.92,11.56-16.2,22.47-9.92,20.16s6.61,6.61,2.32,9.58-9.26,28.42-9.26,28.42.5-28.58,5.46-30.57S115.7,68.27,129.25,2.5"/><path class="cls-3" d="M212.21,79.84S189.4,98.68,164,107.93s-16.85-3-23.13,3.64-27.1,7.6-27.1,7.6"/><path class="cls-1" d="M113.91,118.07S79,135.69,79,141,45.3,165.77,40,166.43s-10.9,4.63-5.28,5"/><path class="cls-1" d="M113.88,119s-11.73-7.76-12.39-16.69S90.91,99.34,85,87.77s-6.28-3-11.9-18.51-9.91,0-15.86-15.86S36.58,33.53,35.49,35.53"/><path class="cls-2" d="M113.91,118.07s4.43.44,19.64-11.13S157.34,94.05,163,88.43s24.13-15.86,30.41-16.85,17.73-12.7,17.73-12.7"/><path class="cls-4" d="M113.91,118.07s-22-35.59-19.69-39.55S82.32,77.19,83.64,61,65.46,48.11,70.75,31.58s-2.65-7.69-6.12-15.91"/><path class="cls-3" d="M113.72,119.17s13.22,37,11.23,40,11,70.47,16.72,71.09"/><path class="cls-4" d="M113.72,119.17S121,138.67,125.28,139s-.33,9.25,9.59,24.46,32,54.84,31.7,57.33"/><path class="cls-2" d="M113.72,118.18s14.87,13.22,14.54,17.51,5-3.3,14.87,9.92,11.24,4.63,20.16,18.84,7.27,1.32,11.24,2.64"/><path class="cls-1" d="M113.88,119s9.09,7.11,19.34,8.1,2.64,3,22.47,10.91,20.16,7.27,24.13,11.24"/><path class="cls-4" d="M114,117.38s1.34,27.9-3.29,28.89,3.31,4.3,0,11.9-10.57,35-4.63,40"/><path class="cls-1" d="M113.72,118.18s-20.83,33.71-43,61.14S49.53,214,49.53,214"/><path class="cls-5" d="M113.88,119s-7.77,24-22.31,25.62-17.84,19.5-12.89,18.84-30.77,31.73-36.53,45.12"/><path class="cls-4" d="M114.91,119s-60.68,22.31-58.7,27.6-41.65,11.9-46.6,6"/><path class="cls-5" d="M112.57,119S22.17,56.37,19.19,50.42"/><path class="cls-4" d="M113.88,119S41.67,86.12,40.67,86.12"/><path class="cls-2" d="M113.91,118.07S76,112.89,70.42,113.88s-25.12,1.65-26.44.66"/><path class="cls-2" d="M112.57,119S60.5,143.3,59.18,147.59s-26.77,3.31-32.39,15.54"/><path class="cls-2" d="M114.21,120.57s.5,28.35,4.13,30.33-6.61,13.88-6.61,18.18S96.86,181.64,96.2,185.27s-.66,19.83-5,21.48S94,232,94,232"/><path class="cls-5" d="M116.13,120.57s5.52,7.85,5.52,10.17S132.89,135,132.22,142s3,17.19,6.62,15.87,7.27,3.63,7.27,8.26,2,17.85,8.59,17.85,14.87-2,15.86,5.29,1.61,25,1.14,28.71"/><path class="cls-5" d="M118.27,117.38a32.89,32.89,0,0,0,19.24,5.76c11.24-.34,3,9.25,27.77,6.28s24.78,9.58,26.11,3,35.11,6.75,35.11,6.75"/><path class="cls-4" d="M118.27,119.33s6,7.44,19.24,3.14,4.3,8.93,25.45,12.89,24.13,13.56,26.11,9.92"/><path class="cls-4" d="M120.5,117.38s57.67,1.13,71.22-1.52,18.17-3.63,18.17-3.63"/><path class="cls-3" d="M114,119s27.48-.49,43.34,2.81.33-5,62.14.66"/><path class="cls-3" d="M112.57,120s-16.37,33.85-13.4,38.81-28.09,33.38-29.41,40.65"/><path class="cls-3" d="M2.5,91.75c4.79,0,34.21,4.61,38.84,9.24S76,107.93,82,111.57s5.62-3,8.59,1,8.59.33,9.59,2.64,13.55,4,13.55,4,56.84-47.59,56.51-52.55"/><path class="cls-3" d="M116,119s23.46,16.36,29.07,15.7,15.54,13.22,28.43,14.55,41.62,18.17,42.13,22.14"/><path class="cls-3" d="M113.88,119s-1.82-23.63-3.8-24,3.64-8.59-2-10.24-9.92-39.33-7.93-43.63-.67-11.57-3-10.91-2.64-21.09,0-24.43"/><path class="cls-3" d="M112.57,119s-9.43,4.47-14.39,2.81-21.48,2.65-13.55,4-15.86,1.32-17.18-.66,4,5.62-9.59,5.62-8.26,4.62-8.26,4.62"/></g></g></svg>