<svg xmlns="http://www.w3.org/2000/svg" viewBox="0 0 2506.98 641.17"><defs><style>.cls-1{fill:#a6d6ed;}.cls-2{fill:#6aacc6;}.cls-3{fill:#74c2e8;}.cls-4{fill:#40b8f4;}.cls-5{fill:#308dc6;}.cls-11,.cls-6{fill:#256484;}.cls-7{fill:#39a3d8;}.cls-8{fill:#183747;}.cls-9{fill:#c3e4f4;}.cls-10{fill:#87d0f4;}.cls-11{font-size:589.85px;font-family:MyriadPro-Regular, Myriad Pro;}.cls-12{letter-spacing:0em;}</style></defs><title>logo</title><g id="Capa_2" data-name="Capa 2"><g id="Capa_1-2" data-name="Capa 1"><path class="cls-1" d="M326.58,563.25H184.38c-40,0-80.4-13.5-110.9-36.9-33.5-25.8-52.8-61.5-54.3-100.5-1.1-27.4,8.6-47.9,17-66.1,7.8-16.7,14-29.9,10.7-45.1a14.91,14.91,0,0,1,23.5-15.1c23.7,17.7,25,43.5,26.1,66.3,1,20.5,1.9,38.2,17,51a102.41,102.41,0,0,0,10.9,8.1h254c1.5-.5,3-.9,4.4-1.3,4.8-1.3,9.3-2.5,14.3-6.8,15.1-12.9,15.9-30.6,17-51,1.1-22.8,2.4-48.6,26.1-66.3a14.91,14.91,0,0,1,17-.6,14.68,14.68,0,0,1,6.5,15.7c-3.3,15.2,2.9,28.4,10.7,45.1,8.5,18.1,18.1,38.7,17,66.1-1.5,39-20.8,74.7-54.3,100.5C407,549.85,366.58,563.25,326.58,563.25Z"/><path class="cls-2" d="M464,314.65a14.91,14.91,0,0,0-23.5-15.1c-23.7,17.7-25,43.5-26.1,66.3-1,20.5-1.9,38.2-17,51-5.1,4.3-9.6,5.5-14.3,6.8-1.5.4-2.9.8-4.4,1.3H255.48v138.3h71.1c40,0,80.4-13.5,110.9-36.9,33.5-25.8,52.8-61.5,54.3-100.5,1.1-27.4-8.6-47.9-17-66.1C466.88,343.15,460.68,330,464,314.65Z"/><path class="cls-3" d="M250.88,563.25a145,145,0,0,1-104.2-43.7c-27.2-27.6-43-64.7-44.6-104.5-2.2-55.8,32-82.1,33.4-83.2a14.71,14.71,0,0,1,14.3-2,15.18,15.18,0,0,1,9.4,11,168.93,168.93,0,0,0,11.3,33.6c2.6,5.5,6.7,13.1,11.8,18.9v-61.2c0-39.1,17.5-67.6,32.2-84.6,18.3-21.2,42.9-36.7,67.5-42.6a15,15,0,0,1,18.5,14.6v72.8l41.8-9a15,15,0,0,1,18.2,14.6c0,13.6,5.9,22.9,14,35.8,11.3,18,25.4,40.4,25.4,80.9C399.68,496.55,333,563.25,250.88,563.25Z"/><path class="cls-4" d="M228.18,326.75a14.81,14.81,0,0,1-5.1-.9l-117.5-42.8a82.56,82.56,0,0,1-53.1-91.8A82.71,82.71,0,0,1,5,86.05a14.85,14.85,0,0,1,19.2-8.9l191.3,69.7a83.22,83.22,0,0,1,46.9,42.8,82.13,82.13,0,0,1,3.1,63.4L242.18,317a14.8,14.8,0,0,1-7.7,8.4A15.23,15.23,0,0,1,228.18,326.75Z"/><path class="cls-5" d="M282.78,326.75a15.23,15.23,0,0,1-6.3-1.4,14.78,14.78,0,0,1-7.7-8.4l-23.3-63.9a81.29,81.29,0,0,1,3.1-63.4,83.25,83.25,0,0,1,46.9-42.8l191.3-69.7a15,15,0,0,1,19.2,8.9,82.55,82.55,0,0,1-47.4,105.2,82.56,82.56,0,0,1-53.1,91.8L288,325.85A15.81,15.81,0,0,1,282.78,326.75Z"/><path class="cls-6" d="M250.58,267l18.2,49.9a14.8,14.8,0,0,0,7.7,8.4,15.59,15.59,0,0,0,6.3,1.4,14.81,14.81,0,0,0,5.1-.9L405.38,283a82.56,82.56,0,0,0,53.1-91.8h.1Z"/><path class="cls-5" d="M52.48,191.25a82.56,82.56,0,0,0,53.1,91.8l117.5,42.8a14.89,14.89,0,0,0,11.4-.5,14.78,14.78,0,0,0,7.7-8.4l18.2-49.9Z"/><path class="cls-7" d="M255.48,368.45a44.9,44.9,0,0,1-44.9-44.9V109.35a54.69,54.69,0,0,1,45.9-54.1l14.9-2.5a24.95,24.95,0,0,1,29,24.6v246.2A45,45,0,0,1,255.48,368.45Z"/><path class="cls-5" d="M291.58,58.25a24.75,24.75,0,0,0-20.2-5.6l-14.9,2.5c-.3.1-.6.1-1,.2v313.1a44.9,44.9,0,0,0,44.9-44.9V77.25A25,25,0,0,0,291.58,58.25Z"/><path class="cls-8" d="M285.48,108.15a15,15,0,0,1-4-29.4l35.9-10a14.95,14.95,0,1,1,8,28.8l-35.9,10A11.12,11.12,0,0,1,285.48,108.15Z"/><path class="cls-9" d="M339,534.35c18.9-15,30.1-35.1,32-58.4,2.9-34.9-16.1-73.9-46.2-94.8-5.6-3.9-11.7-13.9-16.4-26.7a132.05,132.05,0,0,1-8-43.7v-91.3a15,15,0,0,0-18.5-14.6c-24.6,5.9-49.2,21.4-67.5,42.6-14.7,17-32.2,45.5-32.2,84.6v61.3c-5.1-5.8-9.2-13.4-11.8-18.9a181.87,181.87,0,0,1-11.3-33.6,15,15,0,0,0-23.7-8.9c-1.5,1.1-35.6,27.5-33.4,83.2,1.5,39.8,17.4,76.9,44.6,104.5a145.12,145.12,0,0,0,104.2,43.7c21.7,0,43.5-5,65-15A155.39,155.39,0,0,0,339,534.35Z"/><path class="cls-10" d="M324.78,381.15c-5.6-3.9-11.7-13.9-16.4-26.7a132.05,132.05,0,0,1-8-43.7v-91.3a15,15,0,0,0-18.5-14.6,120.71,120.71,0,0,0-26.5,10v348.3c20.2-.7,40.5-5.7,60.4-14.9a151.18,151.18,0,0,0,23.1-14c18.9-15,30.1-35.1,32-58.4C373.88,441.05,354.88,402.05,324.78,381.15Z"/><text class="cls-11" transform="translate(510.95 493.71)"><tspan class="cls-12">P</tspan><tspan x="310.85" y="0">hoenix</tspan></text></g></g></svg>