<?xml version="1.0" encoding="utf-8"?>
<!-- Generator: Adobe Illustrator 22.1.0, SVG Export Plug-In . SVG Version: 6.00 Build 0)  -->
<svg version="1.1" id="Capa_1" xmlns="http://www.w3.org/2000/svg" xmlns:xlink="http://www.w3.org/1999/xlink" x="0px" y="0px"
	 viewBox="0 0 511 511" style="enable-background:new 0 0 511 511;" xml:space="preserve">
<style type="text/css">
	.st0{fill:#A6D6ED;}
	.st1{fill:#6AACC6;}
	.st2{fill:#74C2E8;}
	.st3{fill:#40B8F4;}
	.st4{fill:#308DC6;}
	.st5{fill:#256484;}
	.st6{fill:#39A3D8;}
	.st7{fill:#183747;}
	.st8{fill:#C3E4F4;}
	.st9{fill:#87D0F4;}
</style>
<path class="st0" d="M326.6,511.9H184.4c-40,0-80.4-13.5-110.9-36.9C40,449.2,20.7,413.5,19.2,374.5c-1.1-27.4,8.6-47.9,17-66.1
	c7.8-16.7,14-29.9,10.7-45.1c-1.3-6.1,1.3-12.4,6.5-15.7c5.3-3.4,12-3.1,17,0.6c23.7,17.7,25,43.5,26.1,66.3c1,20.5,1.9,38.2,17,51
	c3.5,3,7.2,5.7,10.9,8.1h254c1.5-0.5,3-0.9,4.4-1.3c4.8-1.3,9.3-2.5,14.3-6.8c15.1-12.9,15.9-30.6,17-51
	c1.1-22.8,2.4-48.6,26.1-66.3c5-3.7,11.8-4,17-0.6c5.3,3.4,7.9,9.6,6.5,15.7c-3.3,15.2,2.9,28.4,10.7,45.1
	c8.5,18.1,18.1,38.7,17,66.1c-1.5,39-20.8,74.7-54.3,100.5C407,498.5,366.6,511.9,326.6,511.9z"/>
<path class="st1" d="M464,263.3c1.3-6.1-1.3-12.4-6.5-15.7c-5.3-3.4-12-3.1-17,0.6c-23.7,17.7-25,43.5-26.1,66.3
	c-1,20.5-1.9,38.2-17,51c-5.1,4.3-9.6,5.5-14.3,6.8c-1.5,0.4-2.9,0.8-4.4,1.3H255.5v138.3h71.1c40,0,80.4-13.5,110.9-36.9
	c33.5-25.8,52.8-61.5,54.3-100.5c1.1-27.4-8.6-47.9-17-66.1C466.9,291.8,460.7,278.6,464,263.3z"/>
<path class="st2" d="M250.9,511.9c-39.5,0-76.5-15.5-104.2-43.7c-27.2-27.6-43-64.7-44.6-104.5c-2.2-55.8,32-82.1,33.4-83.2
	c4.1-3.1,9.5-3.9,14.3-2c4.8,1.8,8.3,6,9.4,11c0,0.2,3.6,17.2,11.3,33.6c2.6,5.5,6.7,13.1,11.8,18.9v-61.2
	c0-39.1,17.5-67.6,32.2-84.6c18.3-21.2,42.9-36.7,67.5-42.6c4.5-1.1,9.2,0,12.8,2.8c3.6,2.8,5.7,7.2,5.7,11.8V241l41.8-9
	c4.4-1,9,0.1,12.6,3c3.5,2.8,5.6,7.1,5.6,11.6c0,13.6,5.9,22.9,14,35.8c11.3,18,25.4,40.4,25.4,80.9
	C399.7,445.2,333,511.9,250.9,511.9z"/>
<path class="st3" d="M228.2,275.4c-1.7,0-3.5-0.3-5.1-0.9l-117.5-42.8C84.9,224.1,68.3,209,59,189c-7.2-15.5-9.4-32.5-6.5-49.1
	c-19.8-7.7-35.7-22.6-44.7-42C-1.5,77.9-2.5,55.4,5,34.7c2.8-7.8,11.4-11.8,19.2-8.9l191.3,69.7c20.7,7.6,37.4,22.7,46.9,42.8
	s10.6,42.6,3.1,63.4l-23.3,63.9c-1.4,3.7-4.1,6.8-7.7,8.4C232.5,274.9,230.4,275.4,228.2,275.4z"/>
<path class="st4" d="M282.8,275.4c-2.2,0-4.3-0.5-6.3-1.4c-3.6-1.7-6.4-4.7-7.7-8.4l-23.3-63.9c-7.6-20.7-6.5-43.2,3.1-63.4
	c9.5-20,26.1-35.2,46.9-42.8l191.3-69.7c7.8-2.8,16.4,1.2,19.2,8.9c7.6,20.7,6.6,43.2-2.7,63.2c-9,19.4-24.9,34.2-44.7,42
	c2.9,16.5,0.7,33.5-6.5,49.1c-9.3,20-25.9,35.2-46.6,42.7L288,274.5C286.3,275.1,284.5,275.4,282.8,275.4z"/>
<path class="st5" d="M250.6,215.6l18.2,49.9c1.4,3.7,4.1,6.8,7.7,8.4c2,0.9,4.2,1.4,6.3,1.4c1.7,0,3.5-0.3,5.1-0.9l117.5-42.8
	c20.7-7.6,37.3-22.7,46.6-42.7c7.2-15.5,9.4-32.5,6.5-49.1h0.1L250.6,215.6z"/>
<path class="st4" d="M52.5,139.9c-2.9,16.5-0.7,33.5,6.5,49.1c9.3,20,25.9,35.2,46.6,42.7l117.5,42.8c1.7,0.6,3.4,0.9,5.1,0.9
	c2.2,0,4.3-0.5,6.3-1.4c3.6-1.7,6.4-4.7,7.7-8.4l18.2-49.9L52.5,139.9z"/>
<path class="st6" d="M255.5,317.1c-24.8,0-44.9-20.1-44.9-44.9V58c0-26.9,19.3-49.7,45.9-54.1l14.9-2.5c7.2-1.2,14.6,0.8,20.2,5.6
	c5.6,4.7,8.8,11.7,8.8,19v246.2C300.4,296.9,280.3,317.1,255.5,317.1z"/>
<path class="st4" d="M291.6,6.9c-5.6-4.8-13-6.8-20.2-5.6l-14.9,2.5c-0.3,0.1-0.6,0.1-1,0.2v313.1c24.8,0,44.9-20.1,44.9-44.9V25.9
	C300.4,18.6,297.2,11.7,291.6,6.9z"/>
<path class="st7" d="M285.5,56.8c-6.6,0-12.6-4.3-14.4-11c-2.2-8,2.4-16.2,10.4-18.4l35.9-10c8-2.2,16.2,2.4,18.4,10.4
	s-2.4,16.2-10.4,18.4l-35.9,10C288.2,56.7,286.8,56.8,285.5,56.8z"/>
<path class="st8" d="M339,483c18.9-15,30.1-35.1,32-58.4c2.9-34.9-16.1-73.9-46.2-94.8c-5.6-3.9-11.7-13.9-16.4-26.7
	c-5.1-13.9-8-29.8-8-43.7v-91.3c0-4.6-2.1-8.9-5.7-11.8c-3.6-2.8-8.3-3.9-12.8-2.8c-24.6,5.9-49.2,21.4-67.5,42.6
	c-14.7,17-32.2,45.5-32.2,84.6V342c-5.1-5.8-9.2-13.4-11.8-18.9c-7.7-16.5-11.2-33.5-11.3-33.6c-1-5-4.6-9.2-9.4-11
	c-4.8-1.8-10.2-1-14.3,2.1c-1.5,1.1-35.6,27.5-33.4,83.2c1.5,39.8,17.4,76.9,44.6,104.5c27.7,28.2,64.8,43.7,104.2,43.7
	c21.7,0,43.5-5,65-15C324,493,331.7,488.3,339,483z"/>
<path class="st9" d="M324.8,329.8c-5.6-3.9-11.7-13.9-16.4-26.7c-5.1-13.9-8-29.8-8-43.7v-91.3c0-4.6-2.1-8.9-5.7-11.8
	c-3.6-2.8-8.3-3.9-12.8-2.8c-8.9,2.1-17.8,5.6-26.5,10v348.3c20.2-0.7,40.5-5.7,60.4-14.9c8.1-4,15.8-8.6,23.1-14
	c18.9-15,30.1-35.1,32-58.4C373.9,389.7,354.9,350.7,324.8,329.8z"/>
</svg>
