<?xml version="1.0" encoding="utf-8"?>
<!-- Generator: Adobe Illustrator 22.1.0, SVG Export Plug-In . SVG Version: 6.00 Build 0)  -->
<svg version="1.1" id="Capa_1" xmlns="http://www.w3.org/2000/svg" xmlns:xlink="http://www.w3.org/1999/xlink" x="0px" y="0px"
	 viewBox="0 0 512 512" style="enable-background:new 0 0 512 512;" xml:space="preserve">
<style type="text/css">
	.st0{fill:url(#SVGID_1_);}
</style>
<linearGradient id="SVGID_1_" gradientUnits="userSpaceOnUse" x1="22.3199" y1="123.5847" x2="489.6801" y2="393.4153" gradientTransform="matrix(1 0 0 -1 0 514)">
	<stop  offset="0" style="stop-color:#81CFE2"/>
	<stop  offset="0.3665" style="stop-color:#52ADC6"/>
	<stop  offset="0.8844" style="stop-color:#118AB2"/>
</linearGradient>
<path class="st0" d="M412,425h-64c-26.2,0-49.9-15.5-60.3-39.5l-7-16c-4.1-9.4-13.4-15.5-23.7-15.5s-19.6,6.1-23.7,15.5l-7,16
	c-10.5,24-34.2,39.5-60.3,39.5h-66C44.9,425,0,380.1,0,325V186C0,130.9,44.9,86,100,86h312c55.1,0,100,44.9,100,100v38
	c0,11-9,20-20,20s-20-9-20-20v-38c0-33.1-26.9-60-60-60H100c-33.1,0-60,26.9-60,60v139c0,33.1,26.9,60,60,60h66
	c10.3,0,19.6-6.1,23.7-15.5l7-16c10.5-24,34.2-39.5,60.3-39.5s49.9,15.5,60.3,39.5l7,16c4.1,9.4,13.4,15.5,23.7,15.5h64
	c33.1,0,60-26.9,60-60c0-11,9-20,20-20s20,9,20,20C512,380.1,467.1,425,412,425z M427,240c0-33.1-26.9-60-60-60s-60,26.9-60,60
	s26.9,60,60,60S427,273.1,427,240z M387,240c0,11-9,20-20,20s-20-9-20-20s9-20,20-20S387,229,387,240z M205,240
	c0-33.1-26.9-60-60-60s-60,26.9-60,60s26.9,60,60,60S205,273.1,205,240z M165,240c0,11-9,20-20,20s-20-9-20-20s9-20,20-20
	S165,229,165,240z"/>
</svg>
