<svg width="0" height="0" class="hidden">
	<symbol xmlns="http://www.w3.org/2000/svg" viewBox="0 0 512 512" id="axis">
		<path fill="var(--phoenix-options-icon-path, #fff)" d="M511.688 454.907l-20.216-112.371c-1.955-10.872-12.358-18.107-23.225-16.143-10.872 1.955-18.099 12.354-16.143 23.225l12.586 69.966-188.688-108.94V81.617l46.592 46.591c7.811 7.811 20.474 7.809 28.284-.001 7.811-7.81 7.81-20.473-.001-28.284l-80.733-80.732c-7.808-7.811-20.474-7.811-28.283 0l-80.733 80.732c-7.811 7.81-7.812 20.473-.001 28.284 7.812 7.813 20.475 7.812 28.284.001l46.592-46.591v229.027L47.315 419.584l12.587-69.966c1.956-10.871-5.272-21.27-16.143-23.225-10.865-1.959-21.269 5.271-23.225 16.143L.317 454.906c-1.946 10.799 5.26 21.266 16.143 23.225l112.372 20.216c10.846 1.955 21.266-5.252 23.225-16.143 1.956-10.871-5.272-21.27-16.143-23.225l-58.58-10.539 178.669-103.155 178.67 103.155-58.58 10.539c-10.872 1.955-18.099 12.354-16.143 23.225 1.959 10.89 12.375 18.099 23.225 16.143l112.371-20.216c10.668-1.868 18.094-12.185 16.142-23.224z">
		</path>
	</symbol>
</svg>
