<svg width="0" height="0" class="hidden">
	<symbol xmlns="http://www.w3.org/2000/svg" viewBox="0 0 24 24" id="dark">
		<g fill="var(--phoenix-options-icon-path, #fff)">
			<path d="M22.7,16.4c-2.4,5.6-8.9,8.3-14.5,5.9s-8.3-8.9-5.9-14.5c1.5-3.7,4.9-6.2,8.9-6.7c0.3,0,0.5,0.1,0.7,0.4 c0.1,0.2,0.1,0.5-0.1,0.7c-1.6,1.6-2.5,3.8-2.5,6c0,4.7,3.9,8.5,8.6,8.5c1.4,0,2.8-0.4,4-1c0.2-0.1,0.5-0.1,0.8,0.1 C22.7,15.9,22.8,16.2,22.7,16.4z"></path>
			<polygon points="16.3,7.7 15.2,5.3 12.6,4.8 14.6,3 14.2,0.3 16.5,1.7 18.9,0.5 18.4,3.1 20.2,5 17.6,5.3" />
			<polygon points="16.4,9 14.9,9.9 14.7,11.7 13.4,10.5 11.6,11 12.3,9.3 11.3,7.8 13.1,7.9 14.3,6.5 14.7,8.3" />
		</g>
	</symbol>
</svg>
