<svg width="0" height="0" class="hidden">
	<symbol xmlns="http://www.w3.org/2000/svg" viewBox="0 0 24 24" id="overlay">
		<g fill="var(--phoenix-options-icon-path, #fff)">
			<path d="M18,23.9h-6.8c-3.2,0-5.8-2.6-5.8-5.8v-6.8c0-3.2,2.6-5.8,5.8-5.8H18c3.2,0,5.8,2.6,5.8,5.8v6.8 C23.8,21.3,21.2,23.9,18,23.9z M11.2,8.1C9.5,8.1,8,9.6,8,11.4v6.8c0,1.8,1.5,3.3,3.3,3.3H18c1.8,0,3.3-1.5,3.3-3.3v-6.8 c0-1.8-1.5-3.3-3.3-3.3H11.2z" />
			<path d="M15,0.4H6.2C3,0.4,0.4,3,0.4,6.2v6.8c0,2,1,3.7,2.5,4.7v-4.7V8V6.2c0-1.8,1.5-3.3,3.3-3.3h5.1H15h4.7 C18.7,1.4,17,0.4,15,0.4z" />
		</g>
	</symbol>
</svg>
