<svg width="0" height="0" class="hidden">
  <symbol xmlns="http://www.w3.org/2000/svg" viewBox="0 0 24 24" id="performance">
    <g fill="var(--phoenix-options-icon-path, #fff)" stroke="var(--phoenix-options-icon-path, #fff)">
      <path stroke-width="1" d="M19.6,19.6l-0.1-0.1c-0.5-0.4-0.6-1.1-0.2-1.7c0.9-1.3,1.3-3,1.3-4.6c0-5.5-5.4-9.9-11.1-8.2c-3.1,0.9-5.4,3.5-6,6.7
      c-0.4,2.1,0,4.1,1.1,5.9c0.4,0.7,0.3,1.6-0.3,2.1l0,0c-0.6,0.5-1.6,0.4-2.1-0.3c-1.1-1.8-1.8-3.9-1.8-6.1C0.4,6.9,5.6,1.7,12,1.7
      s11.6,5.2,11.6,11.6c0,2-0.5,4.1-1.6,5.9C21.5,20,20.4,20.2,19.6,19.6z" />
      <path stroke-width="0.5" d="M15.8,8.9c-0.2-0.2-0.5-0.3-0.9-0.3c-0.4,0-0.8,0.2-1.1,0.5l-3.2,3.9c-0.5,0.6-0.4,1.5,0.1,2l0,0c0.2,0.2,0.5,0.3,0.8,0.3
      c0.4,0,0.8-0.2,1.1-0.5l3.2-3.8C16.5,10.3,16.3,9.4,15.8,8.9z" />
    </g>
  </symbol>
</svg>
