<svg width="0" height="0" class="hidden">
	<symbol xmlns="http://www.w3.org/2000/svg" viewBox="0 0 24 24" id="right-cube">
		<path fill="var(--phoenix-options-icon-path, #fff)" d="M21.2,5.7l-8.3-4.9c-0.5-0.3-1.3-0.3-1.7,0L2.7,5.7C2.2,6,1.8,6.7,1.8,7.2v9.7c0,0.5,0.4,1.2,0.9,1.5l8.4,4.8 c0.5,0.3,1.3,0.3,1.7,0l8.4-4.8c0.5-0.3,0.9-0.9,0.9-1.5V7.2C22.1,6.6,21.7,6,21.2,5.7z M10.9,19.3c0,0.5-0.4,0.8-0.9,0.5L5.1,17 c-0.5-0.3-0.9-1-0.9-1.5V9.8c0-0.6,0.4-0.8,0.9-0.5l4.9,2.8c0.5,0.3,0.9,0.9,0.9,1.5V19.3z M11.2,10.1l-5-2.8c-0.5-0.3-0.5-0.7,0-1 l4.9-2.8c0.5-0.3,1.3-0.3,1.7,0l5,2.8c0.5,0.3,0.5,0.7,0,1l-4.9,2.8C12.4,10.4,11.6,10.4,11.2,10.1z"/>
	</symbol>
</svg>
