<?xml version="1.0" encoding="utf-8"?>
<!-- Generator: Adobe Illustrator 22.1.0, SVG Export Plug-In . SVG Version: 6.00 Build 0)  -->
<svg version="1.1" id="Capa_1" xmlns="http://www.w3.org/2000/svg" xmlns:xlink="http://www.w3.org/1999/xlink" x="0px" y="0px"
	 viewBox="0 0 438.5 438.5" style="enable-background:new 0 0 438.5 438.5;" xml:space="preserve">
<style type="text/css">
	.st0{fill:#FFFFFF;}
</style>
<g>
	<path class="st0" d="M432.8,121c-3.8-9.1-8.4-16.4-13.7-21.7l-79.9-79.9c-5.3-5.3-12.6-9.9-21.7-13.7C308.3,1.9,300,0,292.4,0H27.4
		C19.8,0,13.3,2.7,8,8c-5.3,5.3-8,11.8-8,19.4v383.7c0,7.6,2.7,14.1,8,19.4c5.3,5.3,11.8,8,19.4,8h383.7c7.6,0,14.1-2.7,19.4-8
		c5.3-5.3,8-11.8,8-19.4V146.2C438.5,138.6,436.6,130.2,432.8,121z M182.7,45.7c0-2.5,0.9-4.6,2.7-6.4c1.8-1.8,3.9-2.7,6.4-2.7h54.8
		c2.5,0,4.6,0.9,6.4,2.7c1.8,1.8,2.7,3.9,2.7,6.4V137c0,2.5-0.9,4.6-2.7,6.4c-1.8,1.8-3.9,2.7-6.4,2.7h-54.8c-2.5,0-4.6-0.9-6.4-2.7
		c-1.8-1.8-2.7-3.9-2.7-6.4L182.7,45.7L182.7,45.7z M328.9,402H109.6V292.4h219.3V402z M402,402h-36.6h0V283.2
		c0-7.6-2.7-14.1-8-19.4c-5.3-5.3-11.8-8-19.4-8H100.5c-7.6,0-14.1,2.7-19.4,8c-5.3,5.3-8,11.8-8,19.4V402H36.5V36.5h36.5v118.8
		c0,7.6,2.7,14.1,8,19.4c5.3,5.3,11.8,8,19.4,8H265c7.6,0,14.1-2.7,19.4-8c5.3-5.3,8-11.8,8-19.4V36.5c2.9,0,6.6,1,11.1,2.9
		c4.6,1.9,7.8,3.8,9.7,5.7l80.2,80.2c1.9,1.9,3.8,5.2,5.7,9.9c1.9,4.7,2.9,8.3,2.9,11L402,402L402,402z"/>
</g>
</svg>
