<svg width="0" height="0" class="hidden">
  <symbol xmlns="http://www.w3.org/2000/svg" viewBox="0 0 512 512" id="transparent">
    <g fill="var(--phoenix-options-icon-path, #fff)">
      <path d="m512 195.75c0-107.9375-87.8125-195.75-195.75-195.75-85.355469 0-158.117188 54.921875-184.828125 131.277344-27.570313 9.566406-52.84375 25.3125-74.085937 46.554687-36.972657 36.972657-57.335938 86.128907-57.335938 138.417969 0 52.285156 20.363281 101.445312 57.335938 138.414062 36.972656 36.972657 86.128906 57.332032 138.414062 57.332032s101.441406-20.359375 138.414062-57.332032c21.578126-21.574218 37.046876-46.976562 46.425782-74.039062 76.425781-26.671875 131.410156-99.46875 131.410156-184.875zm-332.054688 285.5c-19.542968-1.835938-38.363281-7.070312-55.773437-15.417969l98.304687-98.296875c16.035157 8.785156 33.425782 15.386719 51.773438 19.414063zm64.800782-135.984375 100.53125-100.527344c8.449218 17.710938 13.589844 36.617188 15.398437 55.78125l-60.222656 60.222657c-19.777344-1.878907-38.554687-7.242188-55.707031-15.476563zm-62.085938-51.519531 111.15625-111.15625c6.722656 4.953125 13.121094 10.445312 19.136719 16.457031 6.046875 6.050781 11.53125 12.453125 16.445313 19.144531l-111.148438 111.144532c-13.585938-9.992188-25.597656-22.003907-35.589844-35.589844zm-151.914062 38.308594 94.304687-94.304688c4.027344 18.34375 10.625 35.734375 19.410157 51.769531l-98.300782 98.300781c-8.34375-17.40625-13.578125-36.226562-15.414062-55.765624zm136.738281-179.167969-14.558594 14.5625c.703125-4.070313 1.554688-8.085938 2.550781-12.050781 3.960938-.980469 7.964844-1.820313 12.007813-2.511719zm-16.226563 58.65625 60.296876-60.296875c19.539062 1.835937 38.355468 7.070312 55.765624 15.414062l-100.589843 100.589844c-8.234375-17.152344-13.59375-35.925781-15.472657-55.707031zm207.726563 133.09375c-.6875 3.996093-1.523437 7.972656-2.507813 11.917969-3.921874.980468-7.898437 1.820312-11.925781 2.519531zm-280.4375-145.59375c13.058594-13.054688 27.914063-23.65625 44.003906-31.589844-1.34375 9.242187-2.050781 18.6875-2.050781 28.296875 0 1.359375.023438 2.71875.050781 4.074219l-88.160156 88.160156c5.722656-33.523437 21.617187-64.398437 46.15625-88.941406zm-16.457031 215.273437 99.160156-99.160156c10.292969 13.328125 22.261719 25.296875 35.589844 35.589844l-99.164063 99.160156c-6.71875-4.953125-13.117187-10.441406-19.128906-16.453125-6.015625-6.015625-11.503906-12.414063-16.457031-19.136719zm250.863281 19.136719c-24.539063 24.535156-55.417969 40.429687-88.941406 46.15625l88.164062-88.160156c1.355469.027343 2.710938.050781 4.074219.050781 9.582031 0 19-.703125 28.214844-2.039062-7.808594 15.894531-18.308594 30.789062-31.511719 43.992187zm0 0" />
    </g>
  </symbol>
</svg>
