<svg width="0" height="0" class="hidden">
	<symbol xmlns="http://www.w3.org/2000/svg" viewBox="0 0 24 24" id="zoom-out">
		<g fill="var(--phoenix-options-icon-path, #fff)">
			<path d="M22.1,19.1L19,16c1.1-1.6,1.7-3.5,1.7-5.6c0-5.5-4.5-10.1-10.1-10.1S0.6,4.8,0.6,10.4c0,5.5,4.5,10.1,10.1,10.1 c2,0,3.9-0.6,5.4-1.6l3.2,3.2c0.8,0.8,2.1,0.8,2.8,0S22.9,19.9,22.1,19.1z M3.3,10.4C3.3,6.3,6.6,3,10.7,3c4.1,0,7.4,3.3,7.4,7.4 s-3.3,7.4-7.4,7.4C6.6,17.7,3.3,14.4,3.3,10.4z" />
			<path d="M13.7,9.1h-1.8H9.4H7.7c-0.7,0-1.3,0.6-1.3,1.3s0.6,1.3,1.3,1.3h0.6h1.2h2.5h1h0.8c0.7,0,1.3-0.6,1.3-1.3
			S14.4,9.1,13.7,9.1z" />
		</g>
	</symbol>
</svg>
