<svg width="0" height="0" class="hidden">
	<symbol xmlns="http://www.w3.org/2000/svg" viewBox="0 0 24 24" id="perspective">
		<path fill="var(--phoenix-options-icon-path, #fff)" d="M13,1.1c-0.5-0.1-1.4-0.1-1.9,0L1.9,3.4c-0.5,0.1-1,0.7-1,1.2v10.9c0,0.6,0.4,1.2,0.9,1.5l9.4,5.7c0.5,0.3,1.2,0.3,1.7,0 l9.4-5.7c0.5-0.3,0.9-1,0.9-1.5V4.6c0-0.6-0.4-1.1-1-1.2L13,1.1z M14.1,19.2c-0.5,0.3-0.8,0.1-0.8-0.5l0.4-9c0-0.5,0.5-1.1,1-1.3 l5.1-1.8c0.5-0.2,0.9,0.1,0.9,0.7v6.8c0,0.6-0.4,1.2-0.9,1.5L14.1,19.2z M10.7,18.7c0,0.5-0.3,0.8-0.8,0.5l-5.8-3.6 c-0.5-0.3-0.9-1-0.9-1.5V7.3c0-0.6,0.4-0.9,0.9-0.7l5.2,1.8c0.5,0.2,1,0.8,1,1.3L10.7,18.7z M13,6c-0.5,0.1-1.4,0.1-1.9,0L6.3,4.7 c-0.5-0.1-0.5-0.4,0-0.5L11,3c0.5-0.1,1.4-0.1,1.9,0l4.7,1.2c0.5,0.1,0.5,0.4,0,0.5L13,6z"/>
	</symbol>
</svg>
