<?xml version="1.0" encoding="utf-8"?>
<!-- Generator: Adobe Illustrator 22.1.0, SVG Export Plug-In . SVG Version: 6.00 Build 0)  -->
<svg version="1.1" id="Capa_1" xmlns="http://www.w3.org/2000/svg" xmlns:xlink="http://www.w3.org/1999/xlink" x="0px" y="0px"
	 viewBox="0 0 229 234.5" style="enable-background:new 0 0 229 234.5;" xml:space="preserve">
<style type="text/css">
	.st0{fill:none;stroke:#FFFFFF;stroke-width:8;stroke-linecap:round;stroke-miterlimit:10;}
</style>
<title>logo-small</title>
<g id="Capa_2_1_">
	<g id="Capa_1-2">
		<path class="st0" d="M113.9,119c0,0,12.3-23.5,19-25.2s12.9-15.7,7.3-15.7S155.9,46.8,162,44s15.1-20.1,15.1-20.1"/>
		<path class="st0" d="M130.7,61.2c-9.9,11.6-16.2,22.5-9.9,20.2s6.6,6.6,2.3,9.6s-9.3,28.4-9.3,28.4s0.5-28.6,5.5-30.6
			s-3.6-20.5,9.9-86.3"/>
		<path class="st0" d="M212.2,79.8c0,0-22.8,18.8-48.2,28.1s-16.9-3-23.1,3.6s-27.1,7.6-27.1,7.6"/>
		<path class="st0" d="M113.9,118.1c0,0-34.9,17.6-34.9,22.9s-33.7,24.8-39,25.4s-10.9,4.6-5.3,5"/>
		<path class="st0" d="M113.9,119c0,0-11.7-7.8-12.4-16.7s-10.6-3-16.5-14.5s-6.3-3-11.9-18.5s-9.9,0-15.9-15.9S36.6,33.5,35.5,35.5
			"/>
		<path class="st0" d="M113.9,118.1c0,0,4.4,0.4,19.6-11.1s23.8-12.9,29.4-18.5s24.1-15.9,30.4-16.8s17.7-12.7,17.7-12.7"/>
		<path class="st0" d="M113.9,118.1c0,0-22-35.6-19.7-39.5S82.3,77.2,83.6,61S65.5,48.1,70.8,31.6s-2.7-7.7-6.1-15.9"/>
		<path class="st0" d="M113.7,119.2c0,0,13.2,37,11.2,40s11,70.5,16.7,71.1"/>
		<path class="st0" d="M113.7,119.2c0,0,7.3,19.5,11.6,19.8s-0.3,9.2,9.6,24.5s32,54.8,31.7,57.3"/>
		<path class="st0" d="M113.7,118.2c0,0,14.9,13.2,14.5,17.5s5-3.3,14.9,9.9s11.2,4.6,20.2,18.8s7.3,1.3,11.2,2.6"/>
		<path class="st0" d="M113.9,119c0,0,9.1,7.1,19.3,8.1s2.6,3,22.5,10.9s20.2,7.3,24.1,11.2"/>
		<path class="st0" d="M114,117.4c0,0,1.3,27.9-3.3,28.9s3.3,4.3,0,11.9s-10.6,35-4.6,40"/>
		<path class="st0" d="M113.7,118.2c0,0-20.8,33.7-43,61.1S49.5,214,49.5,214"/>
		<path class="st0" d="M113.9,119c0,0-7.8,24-22.3,25.6s-17.8,19.5-12.9,18.8s-30.8,31.7-36.5,45.1"/>
		<path class="st0" d="M114.9,119c0,0-60.7,22.3-58.7,27.6s-41.7,11.9-46.6,6"/>
		<path class="st0" d="M112.6,119c0,0-90.4-62.6-93.4-68.6"/>
		<path class="st0" d="M113.9,119c0,0-72.2-32.9-73.2-32.9"/>
		<path class="st0" d="M113.9,118.1c0,0-37.9-5.2-43.5-4.2s-25.1,1.7-26.4,0.7"/>
		<path class="st0" d="M112.6,119c0,0-52.1,24.3-53.4,28.6s-26.8,3.3-32.4,15.5"/>
		<path class="st0" d="M114.2,120.6c0,0,0.5,28.3,4.1,30.3s-6.6,13.9-6.6,18.2s-14.9,12.6-15.5,16.2s-0.7,19.8-5,21.5S94,232,94,232
			"/>
		<path class="st0" d="M116.1,120.6c0,0,5.5,7.8,5.5,10.2s11.2,4.3,10.6,11.3s3,17.2,6.6,15.9s7.3,3.6,7.3,8.3s2,17.9,8.6,17.9
			s14.9-2,15.9,5.3s1.6,25,1.1,28.7"/>
		<path class="st0" d="M118.3,117.4c5.7,3.9,12.4,5.9,19.2,5.8c11.2-0.3,3,9.2,27.8,6.3s24.8,9.6,26.1,3s35.1,6.8,35.1,6.8"/>
		<path class="st0" d="M118.3,119.3c0,0,6,7.4,19.2,3.1s4.3,8.9,25.4,12.9s24.1,13.6,26.1,9.9"/>
		<path class="st0" d="M120.5,117.4c0,0,57.7,1.1,71.2-1.5s18.2-3.6,18.2-3.6"/>
		<path class="st0" d="M114,119c0,0,27.5-0.5,43.3,2.8s0.3-5,62.1,0.7"/>
		<path class="st0" d="M112.6,120c0,0-16.4,33.9-13.4,38.8s-28.1,33.4-29.4,40.6"/>
		<path class="st0" d="M2.5,91.8c4.8,0,34.2,4.6,38.8,9.2S76,107.9,82,111.6s5.6-3,8.6,1s8.6,0.3,9.6,2.6s13.6,4,13.6,4
			s56.8-47.6,56.5-52.5"/>
		<path class="st0" d="M116,119c0,0,23.5,16.4,29.1,15.7s15.5,13.2,28.4,14.6s41.6,18.2,42.1,22.1"/>
		<path class="st0" d="M113.9,119c0,0-1.8-23.6-3.8-24s3.6-8.6-2-10.2s-9.9-39.3-7.9-43.6s-0.7-11.6-3-10.9s-2.6-21.1,0-24.4"/>
		<path class="st0" d="M112.6,119c0,0-9.4,4.5-14.4,2.8s-21.5,2.7-13.6,4s-15.9,1.3-17.2-0.7s4,5.6-9.6,5.6s-8.3,4.6-8.3,4.6"/>
	</g>
</g>
</svg>
