<?xml version="1.0" encoding="utf-8"?>
<!-- Generator: Adobe Illustrator 23.0.1, SVG Export Plug-In . SVG Version: 6.00 Build 0)  -->
<svg version="1.1" id="Capa_1" xmlns="http://www.w3.org/2000/svg" xmlns:xlink="http://www.w3.org/1999/xlink" x="0px" y="0px"
	 viewBox="0 0 550.8 550.8" style="enable-background:new 0 0 550.8 550.8;" xml:space="preserve">
<style type="text/css">
	.st0{fill:#FFFFFF;}
</style>
<path class="st0" d="M488.4,197h-13.2v-63.8c0-0.4-0.1-0.8-0.1-1.2c0-2.5-0.8-5-2.6-7L366.3,3.7c0,0-0.1,0-0.1-0.1
	c-0.6-0.7-1.4-1.3-2.2-1.8c-0.2-0.2-0.5-0.3-0.7-0.4c-0.7-0.4-1.4-0.7-2.1-0.9c-0.2-0.1-0.4-0.1-0.6-0.2C359.9,0.1,359,0,358.2,0
	h-261C85.3,0,75.6,9.7,75.6,21.6V197H62.4c-17,0-30.9,13.8-30.9,30.9v160.5c0,17,13.8,30.9,30.9,30.9h13.2v109.9
	c0,11.9,9.7,21.6,21.6,21.6h356.4c11.9,0,21.6-9.7,21.6-21.6V419.3h13.2c17,0,30.9-13.8,30.9-30.9V227.9
	C519.3,210.8,505.5,197,488.4,197z M97.2,21.6h250.2v110.5c0,6,4.8,10.8,10.8,10.8h95.4V197H97.2V21.6z M453.6,523.3H97.2v-104
	h356.4V523.3z"/>
</svg>
