<svg width="0" height="0" class="hidden">
	<symbol xmlns="http://www.w3.org/2000/svg" viewBox="535 665 70 50" id="grid">
		<path fill="var(--phoenix-options-icon-path, #fff)" fill-rule="evenodd" d="M551.997292,665 L588.002708,665 C590.010242,665 591.927219,666.4653 592.456746,668.4069 L602.875125,706.607622 C603.804094,710.013843 601.524686,713 597.996513,713 L542.003487,713 C538.471579,713 536.194453,710.01917 537.124875,706.607622 L547.543254,668.4069 C548.071638,666.46949 549.989262,665 551.997292,665 Z M572,709 L583.708763,709 L582.345127,699 L572,699 L572,709 Z M556.291237,709 L568,709 L568,699 L557.654873,699 L556.291237,709 Z M552.254218,709 L553.617854,699 L543.345774,699 L540.98393,707.660091 C540.747521,708.526927 541.108912,709 542.003487,709 L552.254218,709 Z M587.745782,709 L597.996513,709 C598.886602,709 599.251224,708.522324 599.01607,707.660091 L596.654226,699 L586.382146,699 L587.745782,709 Z M580.708763,687 L572,687 L572,695 L581.799672,695 L580.708763,687 L580.708763,687 Z M559.291237,687 L559.291237,687 L558.200328,695 L568,695 L568,687 L559.291237,687 Z M555.254218,687 L546.618501,687 L544.436683,695 L554.163309,695 L555.254218,687 L555.254218,687 Z M584.745782,687 L585.836691,695 L595.563317,695 L593.381499,687 L584.745782,687 Z M580.163309,683 L579.345127,677 L572,677 L572,683 L580.163309,683 Z M559.836691,683 L568,683 L568,677 L560.654873,677 L559.836691,683 L559.836691,683 Z M555.799672,683 L556.617854,677 L549.345774,677 L547.70941,683 L555.799672,683 Z M584.200328,683 L592.29059,683 L590.654226,677 L583.382146,677 L584.200328,683 L584.200328,683 Z M578.254218,669 L572,669 L572,673 L578.799672,673 L578.254218,669 Z M561.745782,669 L561.200328,673 L568,673 L568,669 L561.745782,669 Z M557.708763,669 L551.997292,669 C551.795668,669 551.456763,669.259705 551.402309,669.459369 L550.436683,673 L557.163309,673 L557.708763,669 L557.708763,669 Z M582.291237,669 L582.836691,673 L589.563317,673 L588.597691,669.459369 C588.542617,669.257431 588.205833,669 588.002708,669 L582.291237,669 Z"/>
	</symbol>
</svg>