<svg width="0" height="0" class="hidden">
  <symbol id="png" xmlns="http://www.w3.org/2000/svg" viewBox="0 0 100 106.6">
    <g stroke="var(--phoenix-options-icon-path, #fff)" fill-rule="evenodd" fill="var(--phoenix-options-icon-path, #fff)">
      <path d="M25.38,57h64.88V37.34H69.59c-2.17,0-5.19-1.17-6.62-2.6c-1.43-1.43-2.3-4.01-2.3-6.17V7.64l0,0H8.15 c-0.18,0-0.32,0.09-0.41,0.18C7.59,7.92,7.55,8.05,7.55,8.24v106.45c0,0.14,0.09,0.32,0.18,0.41c0.09,0.14,0.28,0.18,0.41,0.18 c22.78,0,58.09,0,81.51,0c0.18,0,0.17-0.09,0.27-0.18c0.14-0.09,0.33-0.28,0.33-0.41v-11.16H25.38c-4.14,0-7.56-3.4-7.56-7.56 V64.55C17.82,60.4,21.22,57,25.38,57L25.38,57z M30.55,68.64h12.14c2.65,0,4.63,0.63,5.95,1.89c1.31,1.26,1.97,3.05,1.97,5.38 c0,2.39-0.72,4.26-2.16,5.6c-1.44,1.35-3.63,2.02-6.58,2.02h-4v8.75h-7.33V68.64L30.55,68.64z M37.87,78.74h1.8 c1.42,0,2.41-0.25,2.99-0.74c0.57-0.49,0.86-1.12,0.86-1.88c0-0.74-0.25-1.37-0.75-1.89c-0.49-0.52-1.43-0.78-2.81-0.78h-2.09 V78.74L37.87,78.74z M52.89,68.64h6.81l8.86,13.05V68.64h6.9v23.63h-6.9L59.75,79.3v12.97h-6.86V68.64L52.89,68.64z M90.6,83.73 v-4.92h11.29v10.05c-2.16,1.47-4.07,2.48-5.73,3.01c-1.66,0.53-3.63,0.8-5.91,0.8c-2.81,0-5.09-0.48-6.86-1.44 c-1.77-0.95-3.14-2.38-4.11-4.27c-0.97-1.89-1.46-4.06-1.46-6.51c0-2.58,0.53-4.82,1.6-6.73c1.06-1.9,2.62-3.35,4.67-4.34 c1.6-0.76,3.76-1.14,6.46-1.14c2.61,0,4.56,0.24,5.85,0.71c1.3,0.47,2.37,1.2,3.22,2.2c0.85,1,1.5,2.25,1.93,3.78l-7.03,1.27 c-0.29-0.9-0.78-1.58-1.47-2.06c-0.69-0.48-1.57-0.71-2.65-0.71c-1.59,0-2.87,0.56-3.82,1.67c-0.95,1.11-1.42,2.87-1.42,5.27 c0,2.55,0.48,4.38,1.44,5.47c0.96,1.09,2.3,1.64,4.02,1.64c0.81,0,1.59-0.12,2.33-0.35c0.74-0.24,1.58-0.64,2.54-1.2v-2.21H90.6 L90.6,83.73z M97.79,57h9.93c4.16,0,7.56,3.41,7.56,7.56v31.42c0,4.15-3.41,7.56-7.56,7.56h-9.93v13.55c0,1.61-0.65,3.04-1.7,4.1 c-1.06,1.06-2.49,1.7-4.1,1.7c-29.44,0-56.59,0-86.18,0c-1.61,0-3.04-0.64-4.1-1.7c-1.06-1.06-1.7-2.49-1.7-4.1V5.85 c0-1.61,0.65-3.04,1.7-4.1c1.06-1.06,2.53-1.7,4.1-1.7h58.72C64.66,0,64.8,0,64.94,0c0.64,0,1.29,0.28,1.75,0.69h0.09 c0.09,0.05,0.14,0.09,0.23,0.18l29.99,30.36c0.51,0.51,0.88,1.2,0.88,1.98c0,0.23-0.05,0.41-0.09,0.65V57L97.79,57z M67.52,27.97 V8.94l21.43,21.7H70.19c-0.74,0-1.38-0.32-1.89-0.78C67.84,29.4,67.52,28.71,67.52,27.97L67.52,27.97z"/>
    </g>
  </symbol>
</svg>
