<svg width="0" height="0" class="hidden">
	<symbol xmlns="http://www.w3.org/2000/svg" viewBox="0 0 24 24" id="rotate">
		<g fill="var(--phoenix-options-icon-path, #fff)">
			<polygon points="15.1,0.4 9.9,5.6 15.1,10.8" />
			<path d="M7.5,20.2l-7.1-7.1L7.5,6l7.1,7.1L7.5,20.2z M4,13.1l3.5,3.5l3.5-3.5L7.5,9.6L4,13.1z" />
			<path d="M14.7,4.1v2.9c3.3,0,6,2.7,6,6c0,3.3-2.7,6-6,6c-0.9,0-1.7-0.2-2.5-0.6L10,20.7c1.4,0.8,3,1.3,4.7,1.3c4.9,0,9-4,9-9 C23.7,8.2,19.6,4.1,14.7,4.1z" />
		</g>
	</symbol>
</svg>
