<svg width="0" height="0" class="hidden">
	<symbol xmlns="http://www.w3.org/2000/svg" viewBox="0 0 24 24" id="views">
		<path fill="var(--phoenix-options-icon-path, #fff)" d="M23.9,10.4c-3.6-3.8-7.3-5.8-11.3-6c-0.2,0-0.4,0-0.7,0c-0.1,0-0.2,0-0.3,0c-0.1,0-0.1,0-0.2,0C4.7,4.7,0.2,10.3,0,10.5 l2,1.5c0,0,1.5-1.9,4-3.4c-0.2,0.7-0.4,1.4-0.4,2.1c0,3.6,2.9,6.4,6.4,6.4c3.6,0,6.4-2.9,6.4-6.4c0-0.7-0.1-1.4-0.3-2 c1.3,0.8,2.7,2,4,3.4L23.9,10.4z M15.9,10.8c0,2.2-1.8,3.9-3.9,3.9S8.1,13,8.1,10.8c0-2.1,1.7-3.8,3.8-3.9c0.1,0,0.3,0,0.4,0 C14.3,7,15.9,8.7,15.9,10.8z"/>
	</symbol>
</svg>
