<svg display="none" xmlns="http://www.w3.org/2000/svg">
  <symbol id="moreIcon" viewBox="0 0 670 670" id=".7429082458798812" xmlns="http://www.w3.org/2000/svg">
    <g data-name="Capa 2">
      <circle class="acls-3" cx="335" cy="335" r="275" fill="#fff" data-name="Capa 1"/>
      <path class="cls-4"
            d="M351.15,456.06a22.63,22.63,0,0,1-16.47,6.75A22.1,22.1,0,0,1,318.32,456a22.63,22.63,0,0,1-6.75-16.47,23,23,0,0,1,23.11-23.11A22.82,22.82,0,0,1,351.15,423,22,22,0,0,1,358,439.49,22.38,22.38,0,0,1,351.15,456.06Z"/>
      <path class="cls-4"
            d="M351.15,351.34a22.63,22.63,0,0,1-16.47,6.75,22.1,22.1,0,0,1-16.36-6.85,22.63,22.63,0,0,1-6.75-16.47,23,23,0,0,1,23.11-23.11,22.82,22.82,0,0,1,16.47,6.65A22,22,0,0,1,358,334.77,22.38,22.38,0,0,1,351.15,351.34Z"/>
      <path class="cls-4"
            d="M351.15,246.61a22.63,22.63,0,0,1-16.47,6.75,22.1,22.1,0,0,1-16.36-6.85,22.6,22.6,0,0,1-6.75-16.46,23,23,0,0,1,23.11-23.12,22.82,22.82,0,0,1,16.47,6.65A22,22,0,0,1,358,230.05,22.37,22.37,0,0,1,351.15,246.61Z"/>
      <path class="cls-4" d="M399.74,182.2a1.5,1.5,0,0,0,0-3,1.5,1.5,0,0,0,0,3Z"/>
    </g>
  </symbol>
</svg>

