<?xml version="1.0" encoding="utf-8"?>
<!-- Generator: Adobe Illustrator 22.1.0, SVG Export Plug-In . SVG Version: 6.00 Build 0)  -->
<svg version="1.1" id="Capa_1" xmlns="http://www.w3.org/2000/svg" xmlns:xlink="http://www.w3.org/1999/xlink" x="0px" y="0px"
	 viewBox="0 0 550.8 550.8" style="enable-background:new 0 0 550.8 550.8;" xml:space="preserve">
<style type="text/css">
	.st0{fill:#FFFFFF;}
</style>
<g>
	<path class="st0" d="M488.4,197h-13.2v-63.8c0-0.4-0.1-0.8-0.1-1.2c0-2.5-0.8-5-2.6-7L366.3,3.7c0,0-0.1,0-0.1-0.1
		c-0.6-0.7-1.4-1.3-2.2-1.8c-0.2-0.2-0.5-0.3-0.7-0.4c-0.7-0.4-1.4-0.7-2.1-0.9c-0.2-0.1-0.4-0.1-0.6-0.2C359.9,0.1,359,0,358.2,0
		h-261C85.3,0,75.6,9.7,75.6,21.6V197H62.4c-17,0-30.9,13.8-30.9,30.9v160.5c0,17,13.8,30.9,30.9,30.9h13.2v109.9
		c0,11.9,9.7,21.6,21.6,21.6h356.4c11.9,0,21.6-9.7,21.6-21.6V419.3h13.2c17,0,30.9-13.8,30.9-30.9V227.9
		C519.3,210.8,505.5,197,488.4,197z M97.2,21.6h250.2v110.5c0,6,4.8,10.8,10.8,10.8h95.4V197H97.2V21.6z M386,340
		c0,14.9-6.9,26.7-17.1,35c-12,9.5-32.1,14.9-64.9,14.9c-18.4,0-32.1-1.2-40.4-2.4v-162c9.8-2,29.6-3.4,48.2-3.4
		c22.8,0,36.7,2.2,48.7,9.3c11.5,6.1,19.8,17.4,19.8,32.3c0,14.7-8.6,28.4-27.2,35.2v0.5C372.1,304.5,386,318.7,386,340z
		 M80.6,306.9c0-49.4,31.6-86.4,80.3-86.4c50.7,0,78.3,37.9,78.3,83.5c0,54.1-32.8,86.9-81,86.9C109.2,390.9,80.6,353.9,80.6,306.9z
		 M453.6,523.3H97.2v-104h356.4L453.6,523.3L453.6,523.3z M481,327.5c0,47-22.5,63.4-58.7,63.4c-8.6,0-19.8-1.5-27.2-3.9l4.2-30.1
		c5.1,1.7,11.8,2.9,19.1,2.9c15.7,0,25.5-7.1,25.5-32.8V223.2H481L481,327.5L481,327.5z"/>
	<path class="st0" d="M160.1,361.3c25.2,0,39.6-24,39.6-56c0-29.6-14.2-55.1-39.9-55.1c-25.2,0-39.9,24-39.9,56.1
		C120,338.5,135.2,361.3,160.1,361.3z"/>
	<path class="st0" d="M343,268.3c0-12.5-9.5-19.1-26.4-19.1c-8.1,0-12.7,0.5-15.9,1v38.4h12.2C332.4,288.6,343,280.5,343,268.3z"/>
	<path class="st0" d="M313.3,315.3h-12.7v46.5c3.7,0.5,8.1,0.5,14.4,0.5c16.9,0,31.8-6.4,31.8-23.7
		C346.9,321.9,331.9,315.3,313.3,315.3z"/>
</g>
</svg>
