<svg width="0" height="0" class="hidden">
	<symbol xmlns="http://www.w3.org/2000/svg" viewBox="0 0 24 24" id="orthographic">
		<path fill="var(--phoenix-options-icon-path, #fff)" d="M12.9,0.8c-0.5-0.3-1.3-0.3-1.7,0L2.7,5.7c-0.5,0.3-0.9,1-0.9,1.5v9.7c0,0.5,0.4,1.2,0.9,1.5l8.4,4.8 c0.5,0.3,1.3,0.3,1.7,0l8.4-4.8c0.5-0.3,0.9-0.9,0.9-1.5V7.2c0-0.6-0.4-1.2-0.9-1.5L12.9,0.8z M17.8,6.3c0.5,0.3,0.5,0.7,0,1 l-4.9,2.8c-0.5,0.3-1.3,0.3-1.7,0L6.2,7.3c-0.5-0.3-0.5-0.7,0-1l4.9-2.8c0.5-0.3,1.3-0.3,1.7,0L17.8,6.3z M5.1,17 c-0.5-0.3-0.9-1-0.9-1.5V9.8c0-0.6,0.4-0.8,0.9-0.5l4.9,2.8c0.5,0.3,0.9,0.9,0.9,1.5v5.7c0,0.5-0.4,0.8-0.9,0.5L5.1,17z M18.9,9.3 c0.5-0.3,0.9,0,0.9,0.5v5.7c0,0.5-0.4,1.2-0.9,1.5L14,19.9c-0.5,0.3-0.9,0.1-0.9-0.5v-5.7c0-0.6,0.4-1.2,0.9-1.5L18.9,9.3z"/>
	</symbol>
</svg>
