<svg width="0" height="0" class="hidden">
	<symbol xmlns="http://www.w3.org/2000/svg" viewBox="0 0 322.95 247.74" id="overlay">
		<path stroke="var(--phoenix-options-icon-path, #fff)" fill="var(--phoenix-options-icon-bg, #000)" d="M56.86 73a24.79 24.79 0 0 1 24.79-24.79H248V24.79a6.8 6.8 0 0 0-6.75-6.79H24.79A6.79 6.79 0 0 0 18 24.79v149.94a6.8 6.8 0 0 0 6.79 6.8h32.07V73z">
		</path>
		<path fill="var(--phoenix-options-icon-path, #fff)" d="M298.17 48.21H266V24.79A24.79 24.79 0 0 0 241.25 0H24.79A24.79 24.79 0 0 0 0 24.79v149.94a24.79 24.79 0 0 0 24.78 24.8h32.08V223a24.79 24.79 0 0 0 24.79 24.79h216.46A24.79 24.79 0 0 0 323 223V73a24.79 24.79 0 0 0-24.83-24.79zM304.9 223a6.79 6.79 0 0 1-6.79 6.79H81.65a6.8 6.8 0 0 1-6.79-6.79V73a6.8 6.8 0 0 1 6.79-6.8h216.46a6.8 6.8 0 0 1 6.79 6.8zM24.79 181.53a6.8 6.8 0 0 1-6.79-6.8V24.79A6.79 6.79 0 0 1 24.79 18h216.46a6.8 6.8 0 0 1 6.75 6.79v23.42H81.65A24.79 24.79 0 0 0 56.86 73v108.53z">
		</path>
	</symbol>
</svg>
