<?xml version="1.0" encoding="utf-8"?>
<!-- Generator: Adobe Illustrator 22.1.0, SVG Export Plug-In . SVG Version: 6.00 Build 0)  -->
<svg version="1.1" id="Layer_1" xmlns="http://www.w3.org/2000/svg" xmlns:xlink="http://www.w3.org/1999/xlink" x="0px" y="0px"
	 viewBox="0 0 309.3 309.3" style="enable-background:new 0 0 309.3 309.3;" xml:space="preserve">
<style type="text/css">
	.st0{fill:#FFFFFF;}
</style>
<g>
	<g>
		<g>
			<polygon class="st0" points="67.7,125.7 241.6,125.7 280.3,164.4 309.3,164.4 251.3,106.4 58,106.4 0,164.4 29,164.4 			"/>
		</g>
	</g>
	<path class="st0" d="M212.6,164.4v19.3c0,10.7-8.7,19.3-19.3,19.3H116c-10.7,0-19.3-8.7-19.3-19.3v-19.3H0v116
		c0,10.7,8.7,19.3,19.3,19.3h270.6c10.7,0,19.3-8.7,19.3-19.3v-116C309.3,164.4,212.6,164.4,212.6,164.4z"/>
	<path class="st0" d="M220,71.4L164.2,16c-5.2-8.5-13.8-8.5-19.1,0L89.2,71.4c-5.2,8.6-1,15.5,9.5,15.5h26.9V145
		c0,5.4,4.3,9.7,9.7,9.7H174c5.3,0,9.7-4.3,9.7-9.7V86.9h26.9C221,86.9,225.3,79.9,220,71.4z"/>
</g>
</svg>
