<?xml version="1.0" encoding="utf-8"?>
<!-- Generator: Adobe Illustrator 23.0.4, SVG Export Plug-In . SVG Version: 6.00 Build 0)  -->
<svg version="1.1" id="Capa_1" xmlns="http://www.w3.org/2000/svg" xmlns:xlink="http://www.w3.org/1999/xlink" x="0px" y="0px"
	 viewBox="0 0 581.5 305.9" style="enable-background:new 0 0 581.5 305.9;" xml:space="preserve">
<style type="text/css">
	.st0{fill:#118AB2;}
	.st1{fill:#FFD166;}
</style>
<title>atlas</title>
<g id="Capa_2_1_">
	<g id="Calque_1">
		<path class="st0" d="M481.1,246.7h-6.3l-15.6-25.4H459l0.1,1.4c0.2,2.7,0.3,5.2,0.3,7.4v16.6h-4.7v-31.8h6.3l15.5,25.2h0.1
			c0-0.3-0.1-1.6-0.2-3.6s-0.1-3.7-0.1-4.9v-16.7h4.7L481.1,246.7z"/>
		<path class="st0" d="M508.8,246.7h-5.2v-27.4h-9.3v-4.5h23.8v4.5h-9.3V246.7z"/>
		<path class="st0" d="M517.5,175.5c0.2,7.8-2.4,14.1-7.9,18.9c-5.5,4.8-13.2,7.5-23.2,8.2c-9.2,0.6-17.4-0.6-24.5-3.6l-0.5-16.9
			c4.8,1.9,9.8,3.4,14.9,4.5c3.6,0.8,7.4,1.1,11.1,0.9c4-0.3,7.1-1.2,9.2-2.9s3.2-4.3,3-7c0-1.6-0.6-3.1-1.5-4.4
			c-1.2-1.4-2.6-2.6-4.3-3.5c-3.7-1.9-7.5-3.6-11.3-5.1c-4.3-1.6-8.3-3.7-12-6.4c-2.7-2.1-4.9-4.6-6.5-7.5
			c-1.7-3.2-2.6-6.8-2.6-10.4c-0.2-7.6,2.2-13.8,7.3-18.4c5-4.7,12.1-7.3,21.2-7.9c4.3-0.3,8.6,0,12.9,0.8c4.4,0.9,8.7,2.1,12.9,3.7
			l-5.5,14.5c-3.8-1.3-7.6-2.4-11.5-3.2c-2.9-0.5-5.9-0.7-8.9-0.6c-3.5,0.2-6.1,1.2-7.9,2.9s-2.7,4-2.6,6.5c0,1.5,0.4,2.9,1.2,4.1
			c1,1.3,2.2,2.4,3.7,3.2c3.8,2,7.7,3.8,11.8,5.3c8.2,3.3,13.8,6.8,16.9,10.5C515.7,165.2,517.3,169.9,517.5,175.5z"/>
		<path class="st1" d="M92.4,134.6c-15.3,4.6-23.8,3.7-25.3,0.7l-2.7,1.4c1.4,2.8,5.1,4.2,10.5,4.2c5,0,11.6-1.2,19.4-3.6
			C93.6,136.3,93,135.4,92.4,134.6z"/>
		<path class="st1" d="M112.8,88.5c1-0.4,1.9-0.9,2.9-1.3c-13.7-16-26.8-23.1-34.3-18.6l1.6,2.6C88.9,67.6,100.8,74.6,112.8,88.5z"
			/>
		<path class="st1" d="M163.7,85.2l-2.7,1.4c0.5,1.2,0.5,2.5-0.1,3.7c-4-12.9-12.5-22.7-23.8-27.6l-1.2,2.8
			c10.7,4.6,18.7,14,22.4,26.3c0.2,0.8,0.4,1.5,0.6,2.3c-4,5.7-12.5,13.3-24.7,20.9c-1.7-3.4-3.6-6.7-5.6-10.1
			c-1.8-3-3.8-5.9-5.8-8.7l-2.8,1.2c2.1,2.9,4.1,5.9,6,9.1c2.1,3.4,3.9,6.8,5.6,10.1c-3.5,2.1-7.3,4.3-11.3,6.3
			c-5.6,2.9-11.3,5.5-17.1,7.8c0.6,0.9,1.2,1.7,1.8,2.5c5.5-2.2,11.1-4.7,16.6-7.6c3.8-2,7.6-4.1,11.3-6.3
			c3.5,7.1,6.2,14.6,7.9,22.3c0.7,3,1,6.1,1,9.1c-13.5,12.9-31.8,17.9-47.6,11l-1.2,2.8c5.1,2.2,10.6,3.3,16.1,3.3
			c11.3,0,22.7-4.6,32.2-12.6c-0.6,2.6-1.7,4.5-3.4,5.6l1.6,2.6c3.2-2,5-5.9,5.3-11.3c5.7-5.7,10.2-12.4,13.4-19.8
			c5.3-11.8,6.7-25,4-37.6C164.4,91.1,165.1,87.8,163.7,85.2z M155.3,131.1c-2.6,6.1-6.2,11.7-10.6,16.6c-0.2-2.2-0.5-4.5-0.9-6.7
			c-1.8-8.1-4.6-15.9-8.2-23.3c10.2-6.4,19-13.4,24.1-19.7C161.5,109.3,160,120.8,155.3,131.1L155.3,131.1z"/>
		<path class="st1" d="M115.1,57.2c-31.1,0-56.4,25.2-56.4,56.4c0,31.1,25.2,56.4,56.4,56.4c31.1,0,56.4-25.2,56.4-56.4l0,0
			C171.4,82.4,146.2,57.2,115.1,57.2z M154.5,80.4c-4.1-0.2-8.2,0.2-12.3,1.1c-10.3,2.2-23.2,7.1-36.3,13.9
			c-6.7,3.5-13.3,7.4-19.6,11.6c-2.2-5.3-4-10.8-5.1-16.4c-0.3-1.7-0.6-3.4-0.7-4.9c10.4-15.1,26.6-23.8,42.2-23.1
			C135.2,64.4,146.5,70.8,154.5,80.4z M83.3,72.9c5.6-4.4,12-7.6,18.9-9.4c-8.5,3.9-16,9.7-21.7,17.1C80.7,77.1,81.7,74.5,83.3,72.9
			z M76.8,92c1.3,6.1,3.2,12.1,5.7,17.8c-4.6,3.3-8.9,7-12.8,11.1c-0.1-8.5,1.7-16.9,5.1-24.7C75.4,94.8,76.1,93.4,76.8,92z
			 M75.8,80.1c-0.1,2.4-0.1,4.7,0.2,7.1c-1.5,2.5-2.8,5.1-4,7.8c-4.1,9.2-5.8,19.3-5.2,29.3c-0.6,0.8-1.1,1.6-1.6,2.4
			C60.9,110.4,64.8,93,75.8,80.1L75.8,80.1z M67.8,131.9c0.4,1.8,0.8,3.6,1.4,5.4c-0.6-1.2-1.2-2.4-1.7-3.6
			C67.5,133,67.6,132.5,67.8,131.9L67.8,131.9z M136.3,160.5c-4.1,1.1-10.6-1.7-17.9-7.9c0.2,1.4,0.1,2.8-0.5,4.1
			c-0.2,0.5-0.4,0.9-0.6,1.3c2.9,2.3,6.1,4.2,9.5,5.8c-16.1,3.8-33.1-0.4-45.6-11.3c-6.1-7-9.9-15.6-11-24.7
			c2.7-3.7,7.5-8.4,14.3-13.4c2.2,4.6,4.6,9.2,7.3,13.5c3.9,6.4,8.3,12.4,13.1,18.1c1.4-1,3-1.5,4.7-1.5c0.2,0,0.3,0,0.5,0
			c-5.3-5.9-10.1-12.3-14.2-19.2c-2.8-4.5-5.2-9.1-7.4-13.9c6.3-4.4,12.9-8.3,19.8-11.8c12.7-6.6,25.2-11.4,35.1-13.5
			c10.1-2.1,15-0.9,16,0.9c14.6,24.4,6.7,56.1-17.7,70.7C139.9,158.7,138.1,159.7,136.3,160.5L136.3,160.5z"/>
		<path class="st0" d="M182.7,246.7h-17.9v-31.8h17.9v4.4H170v8.7h11.9v4.4H170v10h12.7V246.7z"/>
		<path class="st0" d="M223.1,246.7h-6l-7.9-13l-8,13h-5.5l10.5-16.5l-9.8-15.3h5.8l7.3,12l7.3-12h5.6l-9.9,15.4L223.1,246.7z"/>
		<path class="st0" d="M257.7,224.4c0.2,2.9-1,5.7-3.2,7.6c-2.2,1.8-5.2,2.7-9.2,2.7H242v11.9h-5.2v-31.8h9.1c3.9,0,6.9,0.8,8.9,2.4
			C256.8,218.9,257.7,221.3,257.7,224.4z M242,230.4h2.8c2.7,0,4.6-0.5,5.8-1.4c1.3-1.1,2-2.7,1.9-4.4c0.1-1.6-0.5-3.1-1.7-4.1
			c-1.1-0.9-2.8-1.4-5.2-1.4H242V230.4z"/>
		<path class="st0" d="M291.3,246.7h-17.9v-31.8h17.9v4.4h-12.7v8.7h11.9v4.4h-11.9v10h12.7V246.7z"/>
		<path class="st0" d="M313,234v12.7h-5.2v-31.9h8.9c4.1,0,7.1,0.8,9.1,2.3s2.9,3.9,2.9,7c0,4-2,6.8-6.1,8.5l8.9,14.1h-5.9L318,234
			H313L313,234z M313,229.7h3.6c2.4,0,4.1-0.4,5.2-1.4s1.7-2.5,1.6-4c0.1-1.5-0.5-3-1.8-3.9c-1.6-0.9-3.4-1.3-5.3-1.2H313V229.7z"/>
		<path class="st0" d="M346.4,246.7v-31.8h5.2v31.8H346.4z"/>
		<path class="st0" d="M383.3,246.7l-9.2-26.6H374c0.2,3.9,0.4,7.6,0.4,11.1v15.5h-4.7v-31.8h7.3l8.8,25.3h0.1l9-25.3h7.3v31.8h-5
			V231c0-1.6,0-3.6,0.1-6.2s0.1-4.1,0.2-4.6h-0.2l-9.5,26.5H383.3z"/>
		<path class="st0" d="M438.2,246.7h-17.9v-31.8h17.9v4.4h-12.7v8.7h11.9v4.4h-11.9v10h12.7V246.7z"/>
		<path class="st0" d="M228.4,201.3l-6.2-20.5h-31.4l-6.2,20.5h-19.7l30.4-86.5h22.3l30.5,86.5H228.4z M217.8,165.4
			c-5.8-18.6-9-29.1-9.8-31.5c-0.7-2.4-1.2-4.4-1.6-5.8c-1.3,5-5,17.5-11.1,37.3H217.8z"/>
		<path class="st0" d="M278.3,201.3H260v-71h-23.4v-15.2h65.1v15.2h-23.4L278.3,201.3L278.3,201.3z"/>
		<path class="st0" d="M312.9,201.3v-86.2h18.3v71.1h35v15.1L312.9,201.3L312.9,201.3z"/>
		<path class="st0" d="M434.3,201.3l-6.3-20.5h-31.4l-6.2,20.5h-19.7l30.4-86.5h22.4l30.5,86.5H434.3z M423.7,165.4
			c-5.8-18.6-9-29.1-9.8-31.5c-0.7-2.4-1.2-4.4-1.6-5.8c-1.3,5-5,17.5-11.1,37.3H423.7z"/>
		<path class="st0" d="M143.7,161.6c-0.3,0.3-1.2,1.5-1.9,1.6s-4,0.7-4,1.9c-3,1.4-8.5,2.7-10.3,3.4c-2.9-1.3-6.1-2.1-9.3-2.2
			c-2.2-1.4-4.6-2.3-7.1-2.7l-1.1-0.3l0.6-2c2.5-0.8,4.4-2.9,5-5.5c0.9-3.3-0.6-6.7-3.7-8.2c-3.8-1.7-8.1,1-8.3,5.7
			c0,1.6,0.2,3.3,0.8,4.8c0,0.1,0.1,0.2,0.1,0.3c-0.2,0.8-0.5,1.6-0.9,2.4c-2.3-0.7-4.7-1.2-7.1-1.4c-6.1-3.6-12.3-3.8-15.2-4.7
			c-2-2.5-7-4.5-11.3-8.4c-0.3-0.2,0.6-2.5-1.7-4c-1.6-1.5-1.8-2.3-2.9-4.6c-0.8-0.9-1.9-1.6-2.9-1.2c0.4,1.3,0.8,2.6,1,3.9
			c0.3,3.1,1.9,5,3.4,7.5c2.4,4.9,5.9,9.1,10.2,12.4c4.6,3.4,9.7,6,15.2,7.7c0.2,3.8,0.7,7.6,1.6,11.3c0.4,2.1,1.1,3.6,1,5
			c-0.1,3.1-0.3,2.7-1.8,5.9c-4,8.2-2.9,20.7-2.7,26.5c0,0.3,0,0.5,0,0.8c0,0.6-0.3,1.2-1.5,1.3l0,0c-4.1,0.2-9.4,2.9-13.9,8.3
			c-3.8,4.5-7.3,5.8-10.9,5.4c-3.2-0.4-4.4,1.4-3.1,3.9c1.4,2.7,1,3.6,0.7,6.2c-0.2,1.7-0.7,2.9,0.7,4.6c1.8,2.1,6.7,1.1,5.6,0.6
			c-3-1.6-0.6-5.4,0.4-7.5c8.3-7.7,22.3-12.1,24.1-13c2.7-1.3,6.1-1.5,6.8-4.6c0-0.1,2.8-10.8,4.6-17.2c0.3-1.1,1.1-2.3,2.2-1.8
			c0.4,0.2,0.8,0.5,1.2,0.8c3.1,2.6,7.3,4.8,9.8,6.3c0.6,0.5,0.6,1.3,0.2,1.8c-0.1,0.1-0.1,0.1-0.2,0.2c-3.3,3.3-5.1,7.8-4.8,12.4
			c0.3,3.6-0.9,12.1-2.6,15.7c-1.8,3.8-1.4,5.5,2.7,5c4.6-0.6,5.7,0.9,8.3,1.3s5.7-2.1,4.4-2.6s-6.8-1.1-9-4.7
			c0.6-6.6,11.9-27.6,12.4-30.7c-1.1-7.2-13.2-15.2-14.9-16.8c-0.3-2-0.4-4-0.3-6c0.5-2.4,3.3-9.5,3.3-11.3c3.5,0.4,10,0.9,12.6-0.4
			c3.9-1,9-5,10.3-6.6c1-0.9,2.9-1,3.7-1.8c1.1-1,1.6-1.6,2.9-4.4C147.1,159.7,144.8,160.6,143.7,161.6z"/>
	</g>
</g>
</svg>
