<?xml version="1.0" encoding="utf-8"?>
<!-- Generator: Adobe Illustrator 24.1.0, SVG Export Plug-In . SVG Version: 6.00 Build 0)  -->
<svg version="1.1" id="Layer_1" xmlns="http://www.w3.org/2000/svg" xmlns:xlink="http://www.w3.org/1999/xlink" x="0px" y="0px"
	 viewBox="0 0 400.6 401" style="enable-background:new 0 0 400.6 401;" xml:space="preserve">
<style type="text/css">
	.st0{fill:#128AB4;}
	.st1{fill:#67B7C9;}
	.st2{fill:#128AB3;}
	.st3{fill:#BF264E;stroke:#BF264E;stroke-width:0.5;}
</style>
<g id="Layer_2_1_">
	<g id="Layer_1-2">
		<path class="st0" d="M60.8,319.9c-1.2-0.8-2.3-1.6-3.5-2.4l-1,1.1c1.1,0.7,2.3,1.5,3.4,2.3L60.8,319.9z"/>
		<path class="st0" d="M72,329.3c-1.2-1.2-2.5-2.5-3.8-3.6l-1.1,1c1.2,1.1,2.4,2.2,3.6,3.4L72,329.3z"/>
		<path class="st0" d="M83,346l1.7-0.3c-1.9-3.2-4.1-6.3-6.4-9.3l-1.4,0.7C79.1,340,81.1,342.9,83,346z"/>
		<path class="st0" d="M396.8,397.7L396.8,397.7L396.8,397.7L396.8,397.7L396.8,397.7c0-0.1-0.1-0.2,0-0.2h0.1l0,0c0,0-0.1,0-0.2,0
			C396.7,397.6,396.7,397.7,396.8,397.7L396.8,397.7L396.8,397.7c-0.1,0-0.2,0-0.2,0l0,0C396.6,397.8,396.7,397.8,396.8,397.7
			L396.8,397.7z"/>
		<path class="st0" d="M397,397.5L397,397.5c-0.1-0.1-0.1,0-0.1,0s0,0.1,0,0.2l0.1,0.1l0,0l0,0c-0.1,0-0.1,0-0.1,0v-0.1
			C396.9,397.7,396.9,397.5,397,397.5z"/>
		<path class="st0" d="M397.1,397.7L397.1,397.7C397.1,397.7,397.2,397.7,397.1,397.7L397.1,397.7c0.1,0,0.1,0,0.1-0.1v-0.1l0,0l0,0
			l0,0l0,0h-0.1l0,0l0,0l0,0l0,0l0,0l0,0l0,0C397.2,397.5,397.2,397.6,397.1,397.7L397.1,397.7L397.1,397.7L397.1,397.7L397.1,397.7
			L397.1,397.7L397.1,397.7z"/>
		<path class="st0" d="M397.3,397.6L397.3,397.6L397.3,397.6c0,0.1,0,0.1,0,0.1l0,0C397.4,397.7,397.4,397.7,397.3,397.6
			L397.3,397.6L397.3,397.6L397.3,397.6L397.3,397.6C397.4,397.6,397.4,397.6,397.3,397.6L397.3,397.6L397.3,397.6L397.3,397.6
			L397.3,397.6L397.3,397.6z"/>
		<path class="st0" d="M217.2,307.4c-5.4-14.2-12.1-27.7-20.1-40.6c-0.4-0.6-0.7-1.1-1.1-1.7l-2.3,0.6c8.5,13.2,15.6,27.3,21.1,42
			C215.6,307.7,216.4,307.5,217.2,307.4z"/>
		<path class="st0" d="M190.6,257.1c-6.4-9.1-13.6-17.6-21.4-25.6l-2.1,1.2c7.7,7.7,14.7,16.1,21.1,24.9L190.6,257.1z"/>
		<path class="st0" d="M231.5,359.1c-2.6-14.6-6.4-28.9-11.1-42.9l-2.4,0.4c4.7,13.8,8.4,28,11,42.4L231.5,359.1z"/>
		<path class="st0" d="M112.1,285c-3.3-3.2-6.8-6.3-10.4-9.1l-1.9,1.5c3.5,2.8,6.9,5.7,10.2,8.8L112.1,285z"/>
		<path class="st0" d="M149,345.4c-2.9-9-6.7-17.7-11.1-26c-0.9,0.1-1.7,0.2-2.6,0.2c4.4,8.1,8.1,16.6,11,25.4L149,345.4z"/>
		<path class="st0" d="M132.9,310.7L132.9,310.7c-4.2-6.7-8.9-13-14.1-18.8c-0.7,0.4-1.4,0.8-2.2,1.1c5.1,5.6,9.6,11.6,13.7,18
			C131.1,310.9,132,310.8,132.9,310.7z"/>
		<path class="st0" d="M75,327.8l2.3-1.1c-1.5-1.6-3.1-3.1-4.7-4.6c-0.6,0.5-1.3,1-1.9,1.5C72.2,324.9,73.6,326.3,75,327.8z"/>
		<path class="st0" d="M90.7,344.8c-2.1-3.8-4.6-7.5-7.2-10.9l-2.3,1.1c2.5,3.2,4.8,6.6,6.8,10.2C88.9,345.1,89.8,344.9,90.7,344.8z
			"/>
		<path class="st0" d="M65.3,316.1c-1.3-1-2.7-2-4.2-2.9c-0.5,0.6-1.1,1.2-1.6,1.8c1.3,0.9,2.6,1.7,3.9,2.7L65.3,316.1z"/>
		<path class="st0" d="M1.5,401h1.2l0,0H399c0.8,0,1.5-0.7,1.5-1.5l0,0V1.5c0-0.8-0.7-1.5-1.5-1.5l0,0H1.5C0.7,0,0,0.7,0,1.5l0,0
			v398c0,0.4,0.2,0.8,0.5,1.1 M3,386.8v-11.4c1.4,0.1,2.8,0.2,4.2,0.5c0.3-0.8,0.7-1.5,1-2.3c-1.7-0.4-3.5-0.6-5.3-0.7v-18
			c4.8,0.1,9.5,0.9,14.1,2.3l1.3-2.2c-5-1.6-10.1-2.5-15.4-2.6v-48.9h0.8c15.4,0.1,30.6,3.7,44.4,10.5l1-1.1
			c-14.1-7-29.6-10.7-45.3-10.9H3v-3.2h1c16.5,0.2,32.7,4.1,47.5,11.5l1.6-1.8c-15.2-7.7-32-11.9-49.1-12.1H3v-50.8h2
			c10,0,45.3,1.5,79.1,21.3c2.7,1.6,5.3,3.2,7.9,4.9l2-1.6c-2.8-1.9-5.7-3.7-8.6-5.5c-34.4-20-70.2-21.6-80.3-21.6h-2v-74.4
			c0.8,0,2,0,3.6,0c15,0,67.8,2.3,118.6,31.9c12.5,7.3,24.3,15.9,35,25.7c0.7-0.4,1.4-0.9,2.1-1.3c-11-10.1-23-19-35.9-26.5
			c-51.3-30-104.7-32.3-119.8-32.3c-1.6,0-2.8,0-3.6,0V3h13.7c30.6,1.9,102.9,10.4,177,49.7c1.5,0.8,1,0.5,2.4,1.3
			c0.6-1.2,0.5-0.9,1.2-2.1c-1.5-0.8-1-0.5-2.5-1.3C136.6,19.8,79.5,7.7,42.6,3h354.9v367.2c-7.9-67.8-26.6-127.4-55.8-177.9
			l-1.6,1.3c31.6,55,50.6,120.9,57,197.6c0.1,1.8,0.3,3.2,0.4,4.4v2.3h-161l-0.3-3.3c-0.8-9-1.8-17.9-3.2-26.4l-2.5-0.1
			c1.3,8.7,2.4,17.6,3.2,26.8l0.2,3.1h-74.8l-0.1-1.6c-1.1-14-3.5-27.8-7.1-41.3l-2.6-0.4c3.7,13.7,6.2,27.7,7.3,41.9l0.1,1.4h-51.1
			v-0.4c-1.4-16.6-4.9-31.3-10.6-44l-2.6,0.3c5.4,11.9,9.3,26.4,10.8,43.9v0.2H100v-0.2c-1.4-16.6-5-31.1-10.9-43.5l-1.6,0.3
			C93,366.2,97,380.5,98.4,398v0.1H49.1C48,386.2,44.6,377.4,40,371c-0.7,0.4-1.5,0.9-2.2,1.3c4.4,6.2,7.7,14.5,8.8,25.9H28.2
			c-0.7-6.8-2.8-11.7-5.5-15.3c-0.6,0.6-1.3,1.1-1.9,1.7c2.8,4,4.5,8.8,4.9,13.7H3V386.8z"/>
		<path class="st1" d="M79.6,51c12.8,0,22,8.5,23.7,10.7l0.9-0.1c0.6-3.3,1.4-6.5,2.6-9.6c-8.4-3.7-17.5-5.6-26.7-5.7
			c-26.2,0-46.8,15.9-46.8,43.8c0,27.2,16.4,44.5,43.7,44.5c9.4,0,19.6-1.9,27.4-7.1l0.6-7.8c-2.5,2.1-12.9,10.1-26.3,10.1
			c-19.6,0-33.2-15.3-33.2-39.1C45.5,69.5,56.8,51,79.6,51z"/>
		<path class="st2" d="M326.3,167.8c-8.2-12-17.2-23.5-26.8-34.4l-1.6,1.4c14,15.8,26.6,32.8,37.5,50.9c0.5-0.4,1.1-0.9,1.6-1.4
			C333.6,178.7,330,173.2,326.3,167.8z"/>
		<path class="st2" d="M257.7,96.3c2.9,2.4,5.8,4.8,8.6,7.3C263.8,100.7,260.9,98.9,257.7,96.3z"/>
		<path class="st2" d="M278.4,111.4c-0.1,0.9,0.2,1.8-0.5,2.5c5,4.7,9.2,9.1,13.9,14.1l1.6-1.4C288.3,121.3,283.7,116.5,278.4,111.4
			z"/>
		<path class="st2" d="M208.4,62.2c8,4.6,12.8,7.4,20.2,12.4c-0.3-1-0.5-2.1-0.5-3.2c-7.4-5-12.2-7.7-20.1-12.2
			C208.2,60.2,208.3,61.2,208.4,62.2z"/>
		<path class="st1" d="M239,66.2c0-8.8,7.1-14.5,15.6-14.5c7.3,0,12.8,4.1,15.4,10.8h1.2c0.9-3.5,2-6.9,3.4-10.2
			c-4.6-4.1-11.8-6-17.8-6c-14.9,0-27.5,7.8-27.5,23.8c0,28.1,38.8,17.9,38.8,41c0,9.8-7.2,18.1-17.2,18.1c-9.7,0-15.3-5-20.1-12.9
			h-1.2c-0.4,3.8-1.2,7.5-2.4,11.1c4.2,4.6,14.1,7.2,20.2,7.2c16.9,0,30.7-10.6,30.7-28.3C278.1,79.8,239,89,239,66.2z"/>
		<path class="st1" d="M201.8,48c-12.5,22.2-23.9,43.8-35.7,65c-13.3-22-25.2-45.3-35.1-65.1h-3.2c-1.2,13-8.7,65-11.9,85
			c1.5-0.1,2.8-0.4,4.5-0.4c1.4,0,2.7,0.2,4.3,0.4c0-15.3,3.3-39.9,6.1-64.1c8.4,16.1,17.1,32.3,25.1,48.7l6.8,14h1.4
			c7.4-17.1,18.1-37,32.5-62.7c1.7,12.3,4.2,39.1,6.3,64.1c1.9-0.1,3.8-0.4,5.8-0.4s3.6,0.2,5.8,0.4c-3.4-23.7-6.8-54.3-10.1-85
			L201.8,48z"/>
		<path class="st3" d="M42.5,366.5c23.6-12.6,65.5-24.6,130.8-9.9c103.1,23.2,122.3-1.1,137.7-20.7c2.2-2.8,4.2-5.4,6.5-7.8
			c0.9-1,0.9-2.6-0.1-3.5s-2.6-0.9-3.5,0.1l0,0c-2.4,2.5-4.5,5.2-6.7,8.1c-7.6,9.7-15.5,19.7-33.9,24.9c-21.6,6.1-53.9,4.1-98.7-6
			c-67-15.1-110.2-2.6-134.6,10.5c-2.9,1.6-5.7,3.2-8.2,4.9c4.1-4,8.6-8.1,13.6-12.2c23.5-19.1,62.7-41.3,116.2-38.3
			c40.3,2.3,80.8-4.2,114.1-18.4s57.9-35.1,69.5-59.2c0.6-1.2,0.1-2.7-1.2-3.3s-2.7-0.1-3.3,1.2c-11.1,23-34.9,43.2-67,56.8
			c-32.6,13.8-72.3,20.2-111.9,18c-55.2-3.1-95.6,19.8-119.8,39.5c-4.5,3.6-8.5,7.3-12.2,10.8c4.7-5.9,10.1-12.3,16.3-18.8
			c36.7-38.4,83.8-65.1,135.5-76.9C253,249.5,326.8,210,361.1,170c0.9-1,0.8-2.6-0.3-3.5s-2.6-0.8-3.5,0.3
			C323.7,206,251,244.9,180.5,261.3c-52.7,12-100.7,39.3-138,78.4C34,348.6,26.1,358,18.9,368c4.2-8,8.8-15.7,13.9-23.1
			C51.7,317,87.7,276,151.7,239C274.1,168.3,354.4,75.1,355.2,74.2c0.9-1,0.8-2.6-0.3-3.5s-2.6-0.8-3.5,0.3
			c-0.8,0.9-80.5,93.5-202.2,163.8C84.2,272.3,47.7,314,28.5,342.4c-16.2,24-23.1,42.4-25.5,49.9v5.8h4
			C9.3,393.5,20,378.6,42.5,366.5z"/>
	</g>
</g>
</svg>
