<?xml version="1.0" encoding="utf-8"?>
<!-- Generator: Adobe Illustrator 22.1.0, SVG Export Plug-In . SVG Version: 6.00 Build 0)  -->
<svg version="1.1" id="Layer_1" xmlns="http://www.w3.org/2000/svg" xmlns:xlink="http://www.w3.org/1999/xlink" x="0px" y="0px"
	 viewBox="0 0 512 512" style="enable-background:new 0 0 512 512;" xml:space="preserve">
<style type="text/css">
	.st0{fill:#FFFFFF;}
</style>
<g>
	<g>
		<path class="st0" d="M499,340c-7.2,0-13,5.8-13,13v49.8c0,28.7-23.4,52.1-52.1,52.1H78.2c-28.7,0-52.1-23.4-52.1-52.1V353
			c0-7.2-5.8-13-13-13s-13,5.8-13,13v49.8C0,445.9,35.1,481,78.2,481h355.6c43.1,0,78.2-35.1,78.2-78.2V353
			C512,345.8,506.2,340,499,340z"/>
	</g>
</g>
<g>
	<g>
		<path class="st0" d="M419.8,391.3H92.2c-7.2,0-13,5.8-13,13s5.8,13,13,13h327.7c7.2,0,13-5.8,13-13S427,391.3,419.8,391.3z"/>
	</g>
</g>
<g>
	<g>
		<path class="st0" d="M386.9,136.8L277.7,39.3c-12.4-11.1-31-11.1-43.4,0l-109.2,97.5c-5.4,4.8-5.8,13-1,18.4
			c4.8,5.4,13,5.8,18.4,1L243,66.5v252.6c0,7.2,5.8,13,13,13c7.2,0,13-5.8,13-13V66.5l100.5,89.8c2.5,2.2,5.6,3.3,8.7,3.3
			c3.6,0,7.1-1.5,9.7-4.4C392.7,149.9,392.2,141.6,386.9,136.8z"/>
	</g>
</g>
</svg>
