<?xml version="1.0" standalone="no"?>
<!DOCTYPE svg PUBLIC "-//W3C//DTD SVG 20010904//EN"
 "http://www.w3.org/TR/2001/REC-SVG-20010904/DTD/svg10.dtd">
<svg version="1.0" xmlns="http://www.w3.org/2000/svg"
 width="936.000000pt" height="936.000000pt" viewBox="0 0 936.000000 936.000000"
 preserveAspectRatio="xMidYMid meet">
<metadata>
Created by potrace 1.11, written by Peter Selinger 2001-2013
</metadata>
<g transform="translate(0.000000,936.000000) scale(0.100000,-0.100000)"
fill="#000000" stroke="none">
<path d="M5202 9330 c-23 -22 -33 -45 -41 -92 -17 -98 -21 -120 -32 -168 -6
-25 -12 -58 -15 -75 -4 -30 -9 -56 -19 -105 -8 -38 -13 -63 -21 -117 -9 -54
-11 -62 -14 -65 -1 -2 -3 -12 -4 -23 -3 -21 -25 -160 -31 -198 -2 -12 -8 -49
-14 -82 -20 -113 -22 -130 -26 -165 -2 -19 -6 -46 -9 -60 -5 -24 -11 -71 -21
-155 -5 -39 -9 -69 -20 -152 -11 -83 -27 -217 -31 -263 -1 -19 -5 -60 -8 -90
-15 -150 -19 -193 -30 -365 -13 -201 -16 -260 -21 -488 l-6 -239 -33 -61 c-96
-179 -94 -306 5 -349 28 -12 30 -16 26 -56 -3 -35 -12 -50 -49 -85 -61 -57
-114 -170 -134 -282 -8 -47 -23 -81 -24 -53 0 9 -9 32 -19 50 -19 31 -19 36
-5 93 19 75 24 188 10 229 -24 69 -77 127 -133 146 -18 6 -35 20 -38 31 -4 10
-11 19 -16 19 -5 0 -9 6 -9 14 0 7 -10 35 -22 62 -12 27 -23 54 -24 59 -1 6
-11 42 -22 80 -12 39 -24 85 -27 104 -3 19 -8 38 -10 42 -3 4 -7 24 -10 44 -2
21 -7 45 -9 54 -3 9 -8 30 -11 46 -23 132 -35 206 -39 240 -3 22 -7 51 -10 65
-2 14 -7 54 -10 90 -4 36 -8 75 -10 87 -4 19 -8 64 -22 237 -9 127 -4 313 10
354 35 99 39 206 11 322 -3 14 -7 30 -8 35 -2 6 -16 37 -32 70 -29 61 -69 104
-114 127 -14 7 -27 22 -28 33 -14 143 -17 203 -17 335 0 147 8 274 19 330 3
14 8 39 10 55 8 44 16 68 28 83 25 31 11 99 -26 131 -8 6 -30 14 -47 16 -125
16 -183 -180 -184 -615 0 -316 26 -467 90 -523 14 -12 29 -22 32 -22 45 -4 75
-48 91 -138 11 -59 6 -115 -15 -176 -8 -25 -18 -59 -20 -76 -6 -38 -6 -261 0
-340 15 -204 20 -262 30 -325 3 -19 8 -53 10 -75 5 -42 24 -178 32 -230 3 -16
11 -61 19 -100 8 -38 16 -83 19 -100 30 -168 85 -353 137 -460 38 -78 83 -130
139 -158 55 -27 56 -36 26 -180 -12 -56 -21 -109 -20 -117 1 -8 2 -20 3 -26 0
-6 13 -29 28 -50 24 -36 39 -76 47 -129 2 -11 4 -20 5 -20 2 0 4 -16 6 -35 2
-19 6 -48 9 -65 2 -16 7 -57 11 -89 3 -33 8 -64 11 -68 3 -4 3 -8 0 -8 -3 0
-15 17 -26 38 -11 20 -30 53 -41 72 -12 19 -64 112 -115 205 -52 94 -100 181
-108 195 -34 61 -142 283 -179 365 -56 127 -76 202 -64 242 13 44 1 96 -30
133 -14 18 -70 53 -127 82 -178 89 -228 146 -263 303 -2 11 -4 95 -5 187 0
167 -8 218 -44 308 -41 104 -124 205 -254 311 -30 24 -66 53 -79 64 -63 51
-126 124 -148 172 -37 80 -33 152 17 327 77 270 82 371 26 456 -23 35 -79 78
-109 84 -12 3 -19 5 -81 29 -34 13 -70 50 -92 95 -22 47 -66 72 -110 62 -46
-11 -72 -35 -80 -76 -6 -33 13 -104 28 -104 4 0 8 -6 8 -14 0 -39 168 -165
223 -166 33 -1 52 -26 52 -67 0 -24 -2 -43 -6 -43 -3 0 -6 -6 -6 -12 -2 -38
-15 -93 -42 -178 -68 -216 -71 -360 -8 -485 11 -22 18 -40 16 -40 -3 0 19 -27
71 -87 19 -23 87 -83 150 -136 241 -200 269 -253 268 -513 -1 -143 2 -184 18
-249 3 -14 7 -32 8 -40 6 -40 73 -156 118 -205 46 -50 183 -147 214 -151 38
-6 59 -34 60 -84 3 -70 54 -218 135 -389 38 -79 69 -147 69 -151 0 -5 6 -10
13 -13 6 -2 9 -8 4 -12 -4 -5 -46 6 -95 25 -117 44 -192 97 -242 170 -13 19
-27 37 -30 40 -3 3 -23 39 -44 80 -75 143 -145 232 -252 316 -54 44 -104 133
-175 314 -89 226 -131 305 -193 360 -70 61 -118 80 -221 86 -86 6 -95 8 -123
35 -35 34 -63 81 -106 184 -63 147 -97 216 -146 295 -46 76 -61 95 -135 179
-177 202 -432 348 -623 357 -76 3 -142 -16 -142 -42 0 -7 -4 -14 -10 -16 -5
-1 -14 -17 -19 -34 -11 -37 10 -88 43 -106 29 -16 78 -19 93 -6 27 22 141 -13
258 -81 177 -101 334 -274 428 -469 38 -77 62 -142 59 -154 -1 -5 2 -8 6 -8 4
0 14 -16 21 -36 39 -109 140 -232 219 -266 52 -23 73 -28 155 -32 76 -3 98
-14 135 -69 28 -39 72 -128 72 -142 0 -4 6 -21 14 -38 7 -18 24 -59 36 -92 66
-174 140 -299 216 -364 118 -101 140 -128 209 -256 79 -147 154 -239 248 -304
50 -34 171 -92 222 -106 17 -5 32 -9 35 -10 3 -1 19 -5 35 -10 17 -4 37 -13
45 -20 8 -6 22 -14 31 -18 22 -7 46 -63 53 -122 8 -64 10 -72 25 -118 7 -21
11 -40 9 -43 -6 -5 -45 21 -313 211 -55 38 -111 78 -125 87 -14 9 -133 93
-265 187 -132 93 -309 219 -393 278 -85 59 -159 113 -165 118 -7 6 -59 44
-117 85 -58 40 -106 78 -108 82 -2 4 -8 8 -13 8 -10 0 -232 161 -237 172 -2 5
-8 8 -13 8 -5 0 -39 22 -74 50 -35 27 -67 50 -70 50 -3 0 -27 17 -54 38 -27
20 -59 45 -72 54 -49 35 -134 98 -144 106 -6 4 -44 33 -85 62 -41 30 -77 57
-80 60 -3 3 -21 17 -40 30 -19 13 -37 27 -40 30 -3 3 -59 45 -125 95 -66 49
-124 93 -130 97 -5 5 -57 45 -115 90 -158 122 -258 206 -325 274 -71 71 -95
86 -131 80 -69 -13 -103 -72 -77 -136 18 -45 116 -141 283 -276 74 -60 137
-112 138 -116 2 -5 8 -8 14 -8 6 0 31 -17 57 -38 25 -22 120 -95 211 -163 91
-68 170 -127 175 -132 6 -4 46 -34 90 -66 44 -32 136 -100 205 -150 69 -51
136 -100 149 -109 13 -9 43 -32 67 -49 24 -18 48 -33 53 -33 5 0 11 -3 13 -8
2 -6 44 -38 153 -116 11 -8 144 -103 295 -211 151 -108 283 -202 293 -210 9
-8 19 -15 21 -15 4 0 293 -204 318 -225 10 -8 37 -27 60 -42 24 -15 48 -32 53
-36 6 -4 32 -24 59 -43 60 -42 54 -43 -27 -5 -34 16 -87 40 -117 54 -30 13
-80 36 -110 50 -30 13 -172 77 -315 141 -143 64 -273 123 -290 131 -46 22
-164 75 -345 154 -91 40 -198 88 -238 107 -40 19 -75 34 -77 34 -3 0 -28 11
-57 24 -88 40 -128 55 -128 49 0 -3 -6 -1 -12 4 -22 18 -85 9 -112 -14 -14
-13 -26 -26 -27 -30 0 -5 -2 -17 -4 -28 -6 -28 16 -85 32 -85 7 0 13 -4 13
-10 0 -5 6 -10 13 -10 7 0 104 -40 215 -90 112 -49 204 -90 206 -90 2 0 42
-17 88 -39 45 -21 166 -76 268 -121 237 -105 258 -115 358 -161 45 -22 85 -39
87 -39 3 0 38 -15 77 -34 40 -19 93 -43 118 -54 25 -11 81 -37 125 -57 44 -21
99 -46 123 -56 23 -11 63 -29 90 -41 26 -12 49 -22 52 -23 3 -1 20 -9 38 -17
l33 -15 -24 -16 c-31 -20 -48 -17 -123 21 -84 42 -228 85 -394 118 -132 26
-344 65 -375 69 -24 4 -61 11 -135 25 -30 7 -68 14 -85 16 -16 3 -41 7 -55 11
-14 3 -34 8 -45 10 -137 24 -399 92 -430 111 -5 4 -13 7 -17 7 -3 0 -35 21
-70 46 -35 26 -78 54 -97 64 -72 36 -247 95 -421 140 -45 11 -199 47 -220 51
-30 6 -58 11 -85 17 -19 4 -98 19 -120 23 -5 1 -12 3 -15 4 -3 1 -14 3 -25 5
-11 1 -42 6 -70 10 -27 4 -53 9 -56 11 -4 2 -27 6 -50 9 -24 3 -55 8 -69 10
-48 8 -105 15 -145 19 -22 2 -56 7 -75 11 -49 9 -160 14 -190 8 -32 -6 -70
-60 -70 -99 1 -59 51 -94 144 -100 34 -2 81 -6 106 -9 25 -3 68 -8 95 -11 28
-2 57 -7 65 -9 14 -4 41 -9 105 -19 102 -16 122 -19 140 -22 11 -2 58 -11 105
-20 47 -8 110 -22 140 -29 30 -8 69 -16 85 -19 77 -13 270 -63 375 -98 101
-33 190 -73 202 -92 4 -6 8 -7 8 -2 0 5 8 -1 19 -12 10 -12 23 -22 30 -22 6 0
11 -4 11 -10 0 -5 11 -12 25 -16 14 -3 25 -9 25 -13 0 -4 6 -8 13 -8 6 0 28
-7 47 -16 36 -16 155 -54 194 -61 11 -2 39 -9 61 -14 22 -6 54 -14 70 -16 48
-9 75 -15 93 -20 9 -3 28 -7 42 -10 144 -27 301 -56 325 -60 17 -2 55 -9 85
-15 54 -10 105 -20 145 -27 11 -2 29 -5 40 -8 11 -2 31 -5 44 -5 32 -1 20 -13
-16 -16 -15 -1 -50 -5 -78 -9 -168 -22 -332 -30 -645 -29 -157 0 -308 2 -337
4 -46 3 -54 1 -77 -24 -37 -40 -38 -97 -4 -134 41 -44 96 -53 348 -52 301 0
550 13 730 36 94 13 396 6 530 -12 19 -3 67 -8 105 -11 39 -3 84 -7 100 -8 68
-7 162 -18 185 -21 14 -2 52 -7 85 -10 33 -3 69 -7 80 -9 11 -2 47 -7 80 -10
33 -4 76 -10 95 -13 19 -3 40 -6 47 -7 19 -3 28 -16 12 -17 -60 -5 -98 -4
-124 3 -66 20 -183 25 -280 13 -33 -4 -69 -9 -80 -10 -16 -1 -79 -14 -150 -30
-5 -1 -17 -5 -25 -8 -76 -28 -116 -41 -122 -39 -5 1 -8 -3 -8 -8 0 -6 -6 -10
-14 -10 -17 0 -76 -68 -76 -87 0 -12 -132 -11 -279 2 -109 10 -132 15 -165 30
-17 8 -45 16 -62 17 -35 2 -84 -25 -84 -47 0 -8 -6 -12 -14 -9 -11 4 -13 -6
-10 -49 4 -49 2 -56 -19 -70 -13 -8 -43 -21 -66 -27 -41 -11 -76 -14 -301 -25
-227 -11 -342 -70 -357 -184 -12 -87 58 -190 131 -193 71 -3 123 68 99 133 -8
22 -8 29 0 30 7 0 21 2 32 5 11 2 65 6 120 9 263 13 335 24 418 67 45 22 98
71 116 107 12 21 17 22 58 16 77 -11 123 -15 282 -20 85 -3 156 -6 157 -8 2
-2 -22 -14 -54 -27 -31 -13 -90 -38 -130 -57 -40 -18 -78 -34 -85 -36 -6 -1
-14 -4 -17 -8 -3 -3 -30 -16 -60 -28 -30 -13 -84 -37 -120 -54 -36 -17 -67
-30 -69 -28 -2 1 -7 -1 -10 -6 -3 -4 -58 -34 -121 -65 -141 -71 -211 -109
-228 -125 -6 -6 -21 -15 -32 -18 -11 -3 -20 -10 -20 -15 0 -5 -8 -11 -18 -14
-22 -7 -104 -83 -126 -117 -9 -15 -19 -40 -22 -55 -3 -16 -12 -34 -21 -41 -14
-11 -143 -64 -168 -69 -5 -1 -75 -19 -155 -38 -80 -20 -164 -39 -186 -42 -23
-2 -53 -7 -65 -9 -66 -13 -139 -25 -184 -31 -27 -3 -63 -8 -80 -10 -40 -5
-156 -14 -227 -19 -31 -2 -62 -6 -67 -10 -6 -3 -11 -1 -11 5 0 7 -7 8 -17 3
-10 -5 -31 -7 -48 -6 -34 4 -36 4 -125 0 -36 -1 -69 0 -75 2 -5 3 -32 6 -60 7
-86 3 -159 24 -210 58 -30 21 -48 26 -74 22 -20 -2 -37 -9 -39 -15 -2 -6 -10
-11 -17 -11 -24 0 -38 -72 -20 -112 19 -47 120 -107 206 -123 13 -3 35 -7 49
-10 76 -16 331 -22 493 -12 42 3 77 4 77 3 0 -2 -15 -19 -33 -38 -50 -54 -65
-74 -93 -130 -32 -63 -28 -109 13 -144 54 -46 119 -26 163 51 35 62 89 120
152 163 65 45 204 111 264 127 7 2 38 12 70 23 59 20 131 40 169 47 11 2 20 4
20 5 0 1 11 3 25 6 14 2 51 11 83 19 32 8 72 17 89 20 63 11 245 63 288 83 49
22 101 65 119 99 13 26 191 145 341 228 58 32 121 67 140 78 58 33 123 67 126
67 2 0 3 -12 2 -27 -5 -55 -176 -205 -428 -375 -141 -95 -422 -267 -520 -319
-36 -18 -66 -37 -68 -41 -2 -5 -10 -8 -18 -8 -8 0 -14 -4 -14 -10 0 -5 -3 -9
-7 -8 -5 1 -82 -35 -173 -79 -172 -85 -228 -107 -295 -116 -50 -7 -94 -22
-165 -54 -112 -51 -180 -125 -174 -190 2 -21 8 -49 14 -64 12 -28 75 -69 108
-69 12 0 23 -4 26 -9 7 -11 75 2 104 20 28 17 42 64 30 104 -7 27 4 45 32 50
69 12 182 44 240 68 113 46 417 203 570 295 19 12 51 31 70 42 19 11 44 26 55
33 11 6 69 43 130 81 60 38 113 73 116 78 3 5 8 8 10 6 5 -4 61 35 227 158
200 149 306 261 319 338 7 47 119 151 263 246 12 8 33 23 45 32 13 10 27 18
32 18 5 0 18 8 29 18 10 10 78 52 149 94 72 42 135 81 140 85 6 5 12 9 15 9 3
0 16 7 30 16 56 35 284 157 288 153 4 -3 -344 -535 -357 -545 -3 -3 -12 -17
-20 -33 -25 -48 -120 -89 -239 -103 -113 -13 -274 -80 -362 -151 -78 -63 -166
-163 -197 -223 -10 -19 -21 -37 -24 -40 -5 -5 -18 -32 -25 -55 -2 -5 -16 -44
-30 -85 -38 -107 -38 -224 0 -299 l26 -54 -24 -31 c-14 -17 -35 -43 -48 -57
-54 -61 -197 -217 -243 -265 -27 -29 -95 -101 -150 -160 -55 -59 -116 -125
-135 -145 -37 -39 -151 -164 -185 -203 -87 -97 -153 -172 -168 -190 -10 -12
-29 -33 -41 -47 -13 -14 -62 -75 -110 -135 -48 -60 -94 -117 -102 -128 -35
-42 -154 -225 -183 -280 -17 -33 -34 -72 -36 -88 -10 -57 44 -115 106 -113 36
1 70 32 99 90 47 95 222 347 289 417 9 9 28 31 43 50 97 118 238 276 223 248
-10 -18 -90 -130 -104 -147 -6 -6 -20 -30 -32 -52 -12 -23 -24 -41 -28 -41 -3
0 -15 -18 -25 -40 -11 -22 -23 -40 -28 -40 -4 0 -8 -5 -8 -11 0 -7 -18 -40
-40 -75 -22 -35 -37 -64 -33 -64 5 0 3 -4 -3 -8 -8 -6 -110 -197 -104 -197 1
0 -4 -13 -10 -30 -73 -189 -67 -282 21 -311 28 -10 40 -9 64 4 41 21 53 39 61
92 21 133 161 413 328 654 24 33 67 97 97 141 30 44 59 85 64 91 6 6 19 23 30
38 39 53 166 221 186 246 11 14 64 80 116 147 53 68 100 123 105 123 4 0 8 6
8 14 0 8 3 16 8 18 8 3 92 111 221 283 41 55 78 102 81 105 3 3 16 21 30 40
13 19 28 40 32 45 16 19 134 182 233 320 55 77 103 145 107 150 12 14 124 177
182 262 27 40 51 72 52 70 1 -1 -12 -45 -30 -97 -67 -198 -90 -341 -72 -457 7
-45 5 -57 -19 -99 -64 -114 -222 -317 -436 -558 -20 -23 -47 -54 -60 -70 -13
-16 -37 -43 -54 -61 -16 -18 -52 -59 -80 -91 -27 -32 -60 -69 -72 -82 -13 -12
-23 -26 -23 -29 0 -3 -8 -13 -18 -22 -9 -9 -38 -41 -62 -71 -25 -30 -52 -62
-60 -71 -8 -10 -25 -30 -38 -46 -12 -15 -34 -41 -47 -58 -14 -16 -38 -48 -53
-70 -15 -22 -29 -42 -32 -45 -13 -12 -71 -109 -87 -145 -36 -82 -34 -131 6
-167 58 -52 150 -22 165 52 8 45 128 224 203 305 10 11 30 36 45 55 15 19 39
49 53 65 15 17 45 52 68 80 23 27 49 56 57 65 15 16 120 135 170 194 14 16 30
34 35 40 13 14 122 141 155 180 14 16 32 37 40 45 8 9 40 48 70 86 30 39 57
72 60 75 21 17 155 215 179 265 46 93 60 195 31 230 -19 23 11 173 72 365 17
52 33 100 36 105 4 6 7 12 8 15 1 8 13 38 55 145 22 55 41 105 43 110 16 53
56 136 89 187 19 29 47 74 62 101 30 53 46 61 38 20 -3 -16 -5 -34 -4 -40 0
-7 1 -19 1 -25 1 -20 -8 -153 -10 -153 -1 0 -3 -16 -4 -35 -1 -19 -6 -55 -11
-80 -4 -25 -9 -52 -10 -60 -12 -77 -24 -96 -80 -126 -83 -45 -92 -121 -32
-244 32 -65 61 -163 51 -172 -1 -2 -5 -15 -7 -28 -3 -14 -18 -59 -35 -100 -56
-141 -162 -503 -179 -610 -8 -54 -23 -74 -93 -130 -128 -101 -230 -197 -265
-247 -27 -39 -40 -102 -50 -226 -9 -129 -20 -246 -30 -317 -3 -19 -8 -55 -11
-80 -3 -24 -7 -47 -9 -51 -2 -3 -7 -20 -10 -37 -11 -62 -46 -142 -68 -154 -96
-50 -131 -187 -103 -403 10 -75 18 -128 23 -150 2 -11 6 -33 8 -50 3 -16 9
-44 14 -62 5 -17 7 -34 3 -37 -3 -3 0 -6 7 -6 7 0 9 -4 6 -10 -3 -5 13 -81 36
-167 23 -87 46 -176 51 -197 20 -86 65 -124 131 -112 37 7 56 25 75 68 7 17 8
29 1 33 -5 4 -7 10 -5 14 3 3 -5 38 -16 76 -27 95 -38 136 -42 160 -3 11 -9
35 -14 53 -6 18 -11 35 -11 37 -1 3 -1 6 -2 8 0 1 -2 11 -4 22 -2 11 -6 31 -9
45 -34 141 -57 302 -58 395 -1 102 1 112 20 117 29 8 88 87 115 155 23 56 42
128 52 193 3 14 7 36 10 50 12 56 38 322 39 402 1 27 3 48 6 48 3 0 6 17 7 37
2 32 12 47 62 96 l61 59 -2 -86 c-2 -47 -5 -86 -8 -86 -8 0 -4 -228 4 -275 4
-22 9 -51 11 -63 5 -32 59 -142 82 -168 47 -53 106 -58 152 -15 17 16 32 36
32 45 1 9 2 22 3 29 2 12 -15 44 -46 88 -37 53 -54 262 -35 414 4 28 10 73 13
100 3 28 8 59 10 70 5 23 15 93 16 114 1 8 21 32 46 55 160 147 208 213 218
299 5 43 52 159 66 165 4 2 8 7 8 12 0 7 27 57 102 187 22 40 71 134 73 143 1
3 9 22 18 44 16 37 27 76 29 104 2 17 11 6 14 -16 1 -9 8 -49 16 -88 8 -40 12
-83 9 -95 -12 -51 -3 -300 14 -399 1 -8 5 -33 9 -55 3 -22 9 -60 12 -85 4 -25
8 -55 8 -67 1 -13 5 -23 9 -23 5 0 6 -4 3 -9 -4 -5 -2 -31 3 -58 5 -26 15 -77
21 -113 6 -36 16 -85 20 -110 5 -25 12 -62 15 -82 2 -21 10 -59 16 -85 6 -27
12 -61 15 -78 2 -16 6 -41 9 -55 3 -14 7 -34 9 -45 3 -11 14 -64 25 -119 30
-139 30 -143 37 -173 3 -16 23 -106 45 -201 22 -95 42 -182 45 -192 2 -11 6
-28 9 -37 2 -10 11 -45 20 -78 8 -33 17 -67 19 -75 2 -8 9 -37 16 -65 6 -27
14 -57 17 -65 3 -8 7 -19 8 -25 9 -38 70 -239 87 -284 95 -265 133 -334 206
-378 46 -28 91 -29 125 -3 53 42 52 121 -4 161 -25 18 -97 139 -83 139 3 0 -2
12 -10 28 -18 33 -77 202 -70 202 3 0 0 9 -6 21 -7 11 -17 42 -24 67 -48 177
-88 327 -91 341 -2 9 -17 72 -34 141 -18 69 -33 134 -35 145 -3 11 -10 43 -16
70 -7 28 -14 66 -17 85 -3 19 -10 43 -15 53 -5 10 -7 21 -5 24 3 2 1 20 -5 40
-11 39 -17 65 -24 103 -2 14 -9 48 -15 75 -6 28 -13 61 -15 75 -2 14 -9 45
-14 70 -5 25 -12 59 -15 75 -3 17 -7 41 -10 55 -7 35 -11 56 -39 225 -31 187
-34 204 -40 235 -2 14 -7 48 -10 75 -4 28 -8 61 -11 75 -18 105 -23 253 -14
365 3 28 -1 82 -8 120 -18 102 -15 108 12 30 14 -38 32 -82 40 -97 8 -14 15
-30 15 -35 0 -5 19 -45 43 -89 61 -111 77 -138 139 -234 86 -134 258 -419 258
-429 0 -5 3 -11 8 -13 9 -4 82 -126 82 -139 0 -5 4 -9 8 -9 4 0 15 -15 23 -32
9 -18 58 -105 109 -193 51 -88 104 -180 117 -205 13 -25 28 -52 33 -60 28 -43
130 -231 130 -239 0 -5 3 -11 8 -13 4 -2 15 -19 26 -38 43 -81 100 -188 124
-230 77 -137 273 -535 287 -582 25 -86 76 -118 147 -90 56 23 69 101 31 192
-21 51 -215 439 -260 520 -17 30 -52 96 -78 145 -27 50 -61 112 -77 138 -15
26 -28 50 -28 53 0 3 -17 36 -39 72 -21 37 -49 85 -61 107 -12 22 -42 74 -65
115 -64 114 -89 166 -74 154 30 -24 97 -37 179 -35 313 9 370 5 427 -26 61
-33 71 -91 99 -573 3 -47 7 -224 9 -395 l4 -310 30 -26 c41 -38 93 -37 133 1
16 16 27 33 24 39 -4 5 -2 12 3 16 19 11 1 724 -23 980 -3 28 -8 82 -11 120
-12 140 -42 217 -109 278 -38 36 -55 45 -130 76 -56 23 -154 27 -461 20 -33
-1 -69 2 -80 6 -44 19 -101 110 -139 222 -13 38 -24 71 -24 76 -2 11 -14 80
-18 99 -2 10 -6 28 -9 39 -2 12 -7 61 -10 108 -10 162 -17 197 -56 278 -68
140 -176 217 -303 218 l-71 0 -31 52 c-34 56 -67 154 -85 248 -11 56 -19 241
-11 257 13 28 173 -120 257 -238 61 -86 170 -204 241 -261 48 -38 186 -123
202 -123 27 0 129 -74 189 -136 34 -35 105 -131 159 -211 53 -81 102 -153 108
-159 6 -6 27 -31 46 -54 19 -24 59 -59 88 -78 49 -31 60 -34 109 -30 66 6 96
26 146 100 27 41 46 58 67 63 43 10 78 59 74 104 -5 56 -50 91 -118 91 -66 0
-109 -26 -151 -92 -16 -26 -33 -47 -37 -47 -10 -1 -54 44 -61 63 -4 9 -11 16
-17 16 -5 0 -10 4 -10 10 0 5 -16 32 -35 59 -19 26 -35 53 -35 60 0 6 -4 11
-8 11 -5 0 -14 10 -19 23 -18 37 -120 169 -175 226 -62 62 -135 113 -233 161
-136 66 -234 149 -335 280 -19 25 -39 50 -45 57 -5 6 -21 26 -35 45 -29 39
-164 173 -206 205 -53 41 -168 92 -234 105 -71 14 -99 35 -120 88 -7 19 -24
50 -37 68 -13 17 -21 32 -17 32 4 0 43 -21 88 -47 83 -48 320 -172 334 -174 4
0 22 -7 40 -15 53 -22 102 -33 172 -40 35 -3 79 -12 96 -19 50 -21 171 -104
328 -227 16 -13 34 -25 40 -27 6 -2 13 -7 16 -11 7 -9 188 -130 195 -130 3 0
24 -12 47 -26 23 -14 46 -27 52 -29 6 -1 38 -14 71 -30 33 -15 92 -36 130 -47
79 -22 81 -23 150 -32 67 -10 196 -35 215 -43 8 -3 20 -7 25 -9 24 -5 243 -86
270 -99 32 -14 86 -37 95 -40 18 -4 360 -178 428 -217 46 -26 86 -48 88 -48 3
0 25 -13 49 -30 24 -16 46 -30 49 -30 3 0 35 -20 71 -45 36 -24 65 -41 65 -37
0 4 4 2 8 -4 4 -6 32 -29 63 -50 117 -81 158 -118 195 -176 13 -20 32 -42 43
-48 48 -25 123 2 137 49 29 98 -25 165 -286 359 -43 32 -262 167 -333 206 -37
20 -84 46 -105 58 -51 29 -301 157 -307 157 -3 0 -29 11 -58 24 -132 61 -152
70 -162 71 -5 2 -28 10 -50 20 -22 9 -57 23 -78 29 -20 7 -40 20 -43 30 -15
48 -141 150 -246 200 -74 35 -502 207 -516 207 -5 0 -17 7 -28 16 -10 8 -13
12 -5 8 8 -4 24 -8 35 -10 12 -2 32 -6 46 -9 14 -3 35 -8 46 -10 12 -3 62 -17
110 -31 49 -14 96 -27 106 -29 9 -2 30 -11 47 -19 17 -9 32 -16 33 -16 28 6
252 -110 390 -203 139 -93 166 -107 209 -107 112 0 185 131 113 203 -22 23
-32 25 -82 23 -52 -3 -92 9 -112 35 -3 4 -36 27 -75 52 -220 141 -449 232
-750 297 -55 12 -107 23 -115 25 -8 2 -21 4 -29 4 -8 1 -12 4 -9 7 5 5 91 13
181 18 15 0 27 3 27 6 0 6 69 8 245 9 143 0 137 1 280 -24 81 -14 193 -58 258
-102 134 -90 172 -100 233 -62 24 14 39 35 51 69 19 54 25 57 103 54 81 -3
245 -26 245 -34 0 -1 9 -3 20 -4 11 -2 74 -18 140 -35 66 -18 127 -34 135 -36
38 -8 476 -158 488 -167 6 -6 12 -8 12 -5 0 3 31 -7 70 -23 38 -16 83 -31 100
-33 44 -7 92 29 105 77 12 51 -7 84 -65 113 -103 51 -725 259 -832 278 -15 3
-37 9 -50 14 -13 4 -29 6 -35 4 -7 -3 -13 0 -13 7 0 6 -4 9 -8 6 -4 -3 -28 0
-53 5 -112 26 -178 34 -289 32 -109 -1 -152 -15 -203 -67 -31 -30 -35 -32 -53
-19 -36 28 -224 108 -224 97 0 -4 -7 -1 -15 6 -8 7 -15 10 -15 7 0 -3 -21 1
-46 9 -26 7 -50 11 -55 8 -5 -3 -9 -2 -9 3 0 4 -12 9 -27 9 -16 1 -53 4 -83 8
-101 11 -343 7 -455 -8 -150 -20 -440 -28 -510 -14 -16 4 -37 7 -46 7 -15 1
-79 84 -108 140 -13 23 -12 23 31 17 23 -4 63 -9 88 -12 45 -5 85 -11 85 -14
0 -1 11 -3 25 -5 14 -2 77 -13 140 -25 160 -31 259 -29 410 5 98 22 181 36
245 40 22 2 40 4 40 5 0 9 524 13 690 5 155 -7 297 -14 370 -19 192 -13 254
-18 300 -21 127 -9 194 -15 245 -21 30 -3 85 -7 122 -9 66 -4 67 -3 97 31 33
37 38 67 19 108 -17 40 -51 56 -128 61 -39 3 -88 7 -108 9 -38 5 -120 12 -252
21 -41 3 -104 7 -140 10 -154 11 -202 14 -320 21 -69 4 -133 6 -144 6 -50 -2
24 18 154 43 26 5 57 11 100 20 14 2 41 7 60 10 19 3 51 10 70 15 31 8 78 16
135 25 11 2 21 4 23 5 3 3 7 4 57 14 65 12 94 29 111 64 20 42 11 81 -24 115
-23 22 -34 25 -77 22 -27 -2 -59 -6 -70 -8 -24 -6 -209 -44 -250 -51 -85 -15
-182 -35 -195 -40 -8 -3 -32 -7 -52 -10 -21 -3 -57 -10 -80 -15 -96 -22 -207
-38 -313 -46 -209 -16 -337 -22 -675 -31 -330 -9 -1101 -11 -1106 -2 -2 4 2
10 10 15 8 4 32 25 54 45 l39 36 29 -17 c53 -32 129 -44 243 -38 58 3 121 10
139 16 18 5 35 10 37 10 3 0 18 2 33 5 15 4 38 9 52 12 28 6 38 9 60 16 8 3
80 27 160 53 80 26 149 51 154 56 6 5 16 9 24 9 8 0 28 7 45 14 18 8 73 31
122 52 170 69 573 274 724 368 20 12 43 26 51 30 16 7 35 19 85 50 17 11 46
29 65 41 140 88 166 105 178 115 6 6 12 7 12 3 0 -4 4 -3 8 2 11 15 79 65 89
65 4 0 20 11 35 25 15 14 30 25 33 25 13 0 356 255 422 314 40 36 51 82 29
124 -21 41 -50 55 -97 49 -35 -5 -79 -34 -204 -135 -49 -40 -324 -232 -442
-308 -82 -53 -167 -110 -190 -126 -24 -16 -43 -26 -43 -21 0 4 -4 3 -8 -3 -4
-6 -36 -27 -72 -48 -36 -20 -72 -41 -80 -46 -106 -69 -487 -261 -660 -334 -63
-26 -128 -54 -145 -61 -28 -12 -228 -84 -250 -89 -5 -2 -17 -5 -25 -8 -25 -9
-130 -39 -148 -43 -9 -2 -37 -8 -62 -14 -149 -33 -264 -28 -308 16 -35 34 -72
45 -124 37 -27 -4 -57 -24 -121 -83 -78 -71 -165 -124 -262 -160 -62 -22 -208
-61 -213 -56 -3 3 -11 0 -19 -7 -7 -6 -16 -9 -18 -6 -6 5 81 68 94 68 5 0 11
4 13 8 2 4 44 37 93 72 50 36 95 68 100 73 127 105 597 407 634 407 6 0 11 5
11 10 0 6 9 10 19 10 11 0 23 5 26 10 4 6 34 24 68 41 96 47 248 129 257 140
3 3 21 15 41 27 43 26 99 70 154 120 66 61 164 135 270 204 171 111 213 138
219 138 3 0 29 14 58 31 159 95 495 249 572 263 109 20 226 72 343 153 182
126 463 375 483 429 23 59 -21 124 -88 131 -44 4 -32 13 -222 -166 -166 -157
-414 -325 -494 -336 -12 -1 -28 -5 -36 -8 -8 -3 -48 -15 -89 -27 -99 -29 -327
-132 -481 -217 -25 -14 -67 -37 -95 -52 -100 -55 -367 -222 -385 -241 -3 -3
-30 -24 -60 -46 -30 -23 -77 -61 -104 -85 -88 -79 -100 -89 -151 -121 -27 -18
-52 -35 -55 -38 -5 -5 -21 -14 -195 -105 -60 -32 -135 -71 -165 -88 -30 -16
-75 -41 -100 -54 -25 -14 -49 -29 -54 -34 -6 -5 -14 -9 -20 -9 -5 0 6 15 26
33 38 34 167 150 202 180 23 20 161 146 204 186 16 14 84 78 152 141 158 147
392 380 450 449 25 29 50 59 55 65 101 118 103 235 3 260 -49 12 -88 -9 -115
-64 -47 -92 -194 -250 -504 -540 -73 -69 -148 -138 -165 -155 -18 -16 -58 -52
-89 -80 -32 -27 -76 -67 -98 -88 -23 -21 -65 -59 -95 -85 -30 -26 -69 -60 -87
-77 -17 -16 -63 -57 -100 -90 -38 -33 -80 -70 -93 -83 -14 -12 -48 -41 -75
-65 -69 -58 -126 -107 -156 -136 -14 -13 -43 -37 -65 -55 -21 -17 -53 -44 -71
-61 -71 -64 -138 -120 -152 -129 -12 -6 39 77 79 129 157 207 227 275 317 310
83 32 132 66 204 139 160 166 254 398 218 543 -9 36 -24 58 -57 89 l-45 40 17
45 c10 24 31 69 47 99 16 30 41 78 55 105 15 28 30 52 33 55 3 3 12 16 19 30
50 96 260 395 402 572 127 158 275 298 316 298 16 0 176 162 230 232 105 137
277 410 352 559 39 76 36 116 -14 154 -30 23 -96 32 -96 13 0 -5 -6 -8 -14 -8
-13 0 -88 -120 -86 -136 1 -4 -3 -10 -8 -13 -5 -3 -20 -26 -33 -51 -14 -25
-33 -58 -43 -75 -42 -67 -190 -290 -195 -295 -3 -3 -24 -27 -46 -55 -63 -79
-130 -141 -192 -176 -93 -53 -253 -219 -404 -419 -35 -47 -66 -87 -69 -90 -8
-8 -49 -67 -135 -195 -272 -403 -388 -670 -334 -766 21 -35 60 -68 91 -74 16
-4 26 -10 24 -14 -3 -4 -8 -22 -11 -39 -8 -49 -72 -177 -117 -235 -56 -71 -93
-103 -158 -133 -30 -14 -74 -35 -97 -45 -57 -27 -186 -154 -277 -274 -135
-177 -129 -175 -80 -31 61 179 94 242 158 304 88 87 127 185 121 311 -3 65
-22 117 -57 162 -20 25 -89 69 -108 69 -24 0 -27 13 -26 95 2 74 5 81 161 293
31 42 137 174 163 202 67 73 77 130 29 178 -27 27 -80 36 -112 19 -21 -11 -65
-54 -65 -64 0 -3 -8 -13 -18 -22 -22 -20 -125 -149 -140 -176 -11 -19 -11 -19
-12 5 -2 25 0 86 5 225 3 72 13 224 20 305 2 25 7 79 10 120 4 41 8 86 10 100
2 14 7 59 11 100 3 41 7 86 9 100 9 76 16 138 20 160 2 14 7 45 9 70 11 99 17
146 22 172 3 15 7 39 9 55 5 36 34 229 40 266 3 15 8 42 11 60 3 17 7 41 9 52
4 31 37 218 42 240 2 11 6 34 8 50 3 17 7 41 10 55 3 14 8 39 10 55 3 17 8 38
11 48 3 10 7 30 9 45 2 15 11 61 20 102 33 152 28 187 -30 214 -49 24 -80 20
-113 -14z m-1337 -4930 c-107 -50 -207 -87 -211 -77 -8 23 -9 56 -2 58 81 22
252 37 213 19z m1959 -140 c61 -58 95 -83 173 -125 29 -15 60 -37 70 -47 17
-19 17 -19 -12 -6 -80 35 -224 133 -297 201 -15 14 -36 28 -47 32 -10 3 -24
12 -31 20 -9 10 1 9 39 -5 31 -11 72 -38 105 -70z m-975 -577 c12 -43 24 -82
25 -88 2 -5 4 -14 6 -20 1 -5 8 -25 15 -42 8 -18 12 -33 10 -33 -2 0 2 -17 9
-37 7 -21 16 -50 20 -65 l6 -27 -26 26 c-14 14 -32 43 -39 63 -16 44 -43 175
-51 245 -3 27 -8 54 -11 59 -3 5 -2 6 4 3 5 -3 20 -41 32 -84z m246 10 c3 -13
8 -45 10 -71 3 -26 8 -58 11 -72 22 -116 13 -105 -25 27 -16 55 -34 110 -40
121 -10 20 -9 22 13 20 17 -2 27 -10 31 -25z m-432 -219 c13 -72 36 -127 75
-181 24 -34 26 -45 13 -71 -5 -9 -22 -44 -38 -77 -70 -143 -155 -278 -99 -156
14 30 23 58 20 63 -3 4 -1 8 3 8 12 0 16 39 17 135 0 89 -4 120 -22 153 -7 12
-10 22 -8 22 3 0 -3 15 -13 33 l-19 32 32 31 c17 17 32 30 33 29 2 -1 4 -10 6
-21z m-913 3 c0 -10 -236 -349 -283 -407 -7 -8 -34 -46 -61 -85 -53 -74 -67
-89 -76 -76 -3 5 -16 12 -30 16 -14 4 -28 13 -32 19 -8 12 -2 61 14 121 7 22
12 42 13 45 0 3 11 25 24 50 82 157 187 249 346 302 44 15 81 27 83 27 1 1 2
-5 2 -12z m1808 -510 c28 -14 92 -16 127 -4 42 14 126 -72 140 -143 2 -12 7
-29 10 -39 3 -9 7 -60 10 -112 3 -51 7 -103 9 -114 2 -11 7 -40 11 -65 4 -25
11 -53 17 -62 13 -26 -5 -22 -21 5 -67 104 -121 197 -121 205 0 6 -3 12 -7 14
-8 3 -63 84 -63 92 0 3 -22 37 -48 78 -77 115 -103 158 -97 158 3 0 18 -6 33
-13z"/>
</g>
</svg>
