<svg xmlns="http://www.w3.org/2000/svg" xmlns:xlink="http://www.w3.org/1999/xlink" viewBox="0 0 229 236.16"><defs><style>.cls-1,.cls-10,.cls-11,.cls-12,.cls-13,.cls-14,.cls-15,.cls-16,.cls-17,.cls-18,.cls-19,.cls-2,.cls-20,.cls-21,.cls-22,.cls-23,.cls-24,.cls-25,.cls-26,.cls-27,.cls-28,.cls-29,.cls-3,.cls-30,.cls-31,.cls-32,.cls-33,.cls-4,.cls-5,.cls-6,.cls-7,.cls-8,.cls-9{fill:none;stroke-linecap:round;stroke-miterlimit:10;stroke-width:5px;}.cls-1{stroke:url(#Degradado_sin_nombre_80);}.cls-2{stroke:url(#Degradado_sin_nombre_80-2);}.cls-3{stroke:url(#Degradado_sin_nombre_80-3);}.cls-4{stroke:url(#Degradado_sin_nombre_80-4);}.cls-5{stroke:url(#Degradado_sin_nombre_80-5);}.cls-6{stroke:url(#Degradado_sin_nombre_80-6);}.cls-7{stroke:url(#Degradado_sin_nombre_80-7);}.cls-8{stroke:url(#Degradado_sin_nombre_80-8);}.cls-9{stroke:url(#Degradado_sin_nombre_80-9);}.cls-10{stroke:url(#Degradado_sin_nombre_80-10);}.cls-11{stroke:url(#Degradado_sin_nombre_80-11);}.cls-12{stroke:url(#Degradado_sin_nombre_80-12);}.cls-13{stroke:url(#Degradado_sin_nombre_80-13);}.cls-14{stroke:url(#Degradado_sin_nombre_80-14);}.cls-15{stroke:url(#Degradado_sin_nombre_80-15);}.cls-16{stroke:url(#Degradado_sin_nombre_80-16);}.cls-17{stroke:url(#Degradado_sin_nombre_80-17);}.cls-18{stroke:url(#Degradado_sin_nombre_80-18);}.cls-19{stroke:url(#Degradado_sin_nombre_80-19);}.cls-20{stroke:url(#Degradado_sin_nombre_80-20);}.cls-21{stroke:url(#Degradado_sin_nombre_80-21);}.cls-22{stroke:url(#Degradado_sin_nombre_80-22);}.cls-23{stroke:url(#Degradado_sin_nombre_80-23);}.cls-24{stroke:url(#Degradado_sin_nombre_80-24);}.cls-25{stroke:url(#Degradado_sin_nombre_80-25);}.cls-26{stroke:url(#Degradado_sin_nombre_80-26);}.cls-27{stroke:url(#Degradado_sin_nombre_80-27);}.cls-28{stroke:url(#Degradado_sin_nombre_80-28);}.cls-29{stroke:url(#Degradado_sin_nombre_80-29);}.cls-30{stroke:url(#Degradado_sin_nombre_80-30);}.cls-31{stroke:url(#Degradado_sin_nombre_80-31);}.cls-32{stroke:url(#Degradado_sin_nombre_80-32);}.cls-33{stroke:url(#Degradado_sin_nombre_80-33);}</style><radialGradient id="Degradado_sin_nombre_80" cx="145.52" cy="73.08" r="42.86" gradientTransform="translate(0 -36.54) scale(1 1.5)" gradientUnits="userSpaceOnUse"><stop offset="0" stop-color="#1e8bb0"/><stop offset="0.2" stop-color="#00a7ba"/><stop offset="0.4" stop-color="#00c2b3"/><stop offset="0.6" stop-color="#5bd99e"/><stop offset="0.8" stop-color="#a9ec83"/><stop offset="1" stop-color="#f1e833"/></radialGradient><radialGradient id="Degradado_sin_nombre_80-2" cx="127.28" cy="87.2" r="25.72" gradientTransform="translate(0 -43.6) scale(1 1.5)" xlink:href="#Degradado_sin_nombre_80"/><radialGradient id="Degradado_sin_nombre_80-3" cx="121.62" cy="60.98" r="42.55" gradientTransform="translate(0 -30.49) scale(1 1.5)" xlink:href="#Degradado_sin_nombre_80"/><radialGradient id="Degradado_sin_nombre_80-4" cx="114.04" cy="119.4" r="2.59" gradientTransform="translate(0 -59.7) scale(1 1.5)" xlink:href="#Degradado_sin_nombre_80"/><radialGradient id="Degradado_sin_nombre_80-5" cx="162.96" cy="101.17" r="39.81" gradientTransform="translate(0 -50.59) scale(1 1.5)" xlink:href="#Degradado_sin_nombre_80"/><radialGradient id="Degradado_sin_nombre_80-6" cx="73.15" cy="146.4" r="36.89" gradientTransform="translate(0 -73.2) scale(1 1.5)" xlink:href="#Degradado_sin_nombre_80"/><radialGradient id="Degradado_sin_nombre_80-7" cx="74.68" cy="78.7" r="43.11" gradientTransform="translate(0 -39.35) scale(1 1.5)" xlink:href="#Degradado_sin_nombre_80"/><radialGradient id="Degradado_sin_nombre_80-8" cx="162.51" cy="90.15" r="42.67" gradientTransform="translate(0 -45.07) scale(1 1.5)" xlink:href="#Degradado_sin_nombre_80"/><radialGradient id="Degradado_sin_nombre_80-9" cx="89.27" cy="68.54" r="42.55" gradientTransform="translate(0 -34.27) scale(1 1.5)" xlink:href="#Degradado_sin_nombre_80"/><radialGradient id="Degradado_sin_nombre_80-10" cx="127.69" cy="176.38" r="42.66" gradientTransform="translate(0 -88.19) scale(1 1.5)" xlink:href="#Degradado_sin_nombre_80"/><radialGradient id="Degradado_sin_nombre_80-11" cx="140.14" cy="171.65" r="42.89" gradientTransform="translate(0 -85.82) scale(1 1.5)" xlink:href="#Degradado_sin_nombre_80"/><radialGradient id="Degradado_sin_nombre_80-12" cx="144.12" cy="146.35" r="31.02" gradientTransform="translate(0 -73.17) scale(1 1.5)" xlink:href="#Degradado_sin_nombre_80"/><radialGradient id="Degradado_sin_nombre_80-13" cx="146.85" cy="135.79" r="28" gradientTransform="translate(0 -67.9) scale(1 1.5)" xlink:href="#Degradado_sin_nombre_80"/><radialGradient id="Degradado_sin_nombre_80-14" cx="109.03" cy="159.44" r="30.81" gradientTransform="translate(0 -79.72) scale(1 1.5)" xlink:href="#Degradado_sin_nombre_80"/><radialGradient id="Degradado_sin_nombre_80-15" cx="81.62" cy="167.77" r="43.24" gradientTransform="translate(0 -83.88) scale(1 1.5)" xlink:href="#Degradado_sin_nombre_80"/><radialGradient id="Degradado_sin_nombre_80-16" cx="78.01" cy="165.46" r="43.06" gradientTransform="translate(0 -82.73) scale(1 1.5)" xlink:href="#Degradado_sin_nombre_80"/><radialGradient id="Degradado_sin_nombre_80-17" cx="62.26" cy="138.62" r="41.59" gradientTransform="translate(0 -69.31) scale(1 1.5)" xlink:href="#Degradado_sin_nombre_80"/><radialGradient id="Degradado_sin_nombre_80-18" cx="65.88" cy="86.38" r="43.43" gradientTransform="translate(0 -43.19) scale(1 1.5)" xlink:href="#Degradado_sin_nombre_80"/><radialGradient id="Degradado_sin_nombre_80-19" cx="77.28" cy="104.23" r="30.72" gradientTransform="translate(0 -52.11) scale(1 1.5)" xlink:href="#Degradado_sin_nombre_80"/><radialGradient id="Degradado_sin_nombre_80-20" cx="78.95" cy="117.58" r="26.7" gradientTransform="translate(0 -58.79) scale(1 1.5)" xlink:href="#Degradado_sin_nombre_80"/><radialGradient id="Degradado_sin_nombre_80-21" cx="69.68" cy="142.73" r="36.49" gradientTransform="translate(0 -71.37) scale(1 1.5)" xlink:href="#Degradado_sin_nombre_80"/><radialGradient id="Degradado_sin_nombre_80-22" cx="104.49" cy="177.95" r="42.91" gradientTransform="translate(0 -88.97) scale(1 1.5)" xlink:href="#Degradado_sin_nombre_80"/><radialGradient id="Degradado_sin_nombre_80-23" cx="143.99" cy="170.93" r="42.09" gradientTransform="translate(0 -85.46) scale(1 1.5)" xlink:href="#Degradado_sin_nombre_80"/><radialGradient id="Degradado_sin_nombre_80-24" cx="172.39" cy="129.92" r="41.14" gradientTransform="translate(0 -64.96) scale(1 1.5)" xlink:href="#Degradado_sin_nombre_80"/><radialGradient id="Degradado_sin_nombre_80-25" cx="153.67" cy="134.38" r="29.06" gradientTransform="translate(0 -67.19) scale(1 1.5)" xlink:href="#Degradado_sin_nombre_80"/><radialGradient id="Degradado_sin_nombre_80-26" cx="165.2" cy="116.59" r="33.58" gradientTransform="translate(0 -58.29) scale(1 1.5)" xlink:href="#Degradado_sin_nombre_80"/><radialGradient id="Degradado_sin_nombre_80-27" cx="166.74" cy="122.46" r="39.18" gradientTransform="translate(0 -61.23) scale(1 1.5)" xlink:href="#Degradado_sin_nombre_80"/><radialGradient id="Degradado_sin_nombre_80-28" cx="91.16" cy="161.42" r="34.32" gradientTransform="translate(0 -80.71) scale(1 1.5)" xlink:href="#Degradado_sin_nombre_80"/><radialGradient id="Degradado_sin_nombre_80-29" cx="144.08" cy="92.85" r="27.95" gradientTransform="translate(0 -46.42) scale(1 1.5)" xlink:href="#Degradado_sin_nombre_80"/><radialGradient id="Degradado_sin_nombre_80-30" cx="58.82" cy="107.28" r="43.17" gradientTransform="translate(0 -53.64) scale(1 1.5)" xlink:href="#Degradado_sin_nombre_80"/><radialGradient id="Degradado_sin_nombre_80-31" cx="165.85" cy="146.86" r="42.19" gradientTransform="translate(0 -73.43) scale(1 1.5)" xlink:href="#Degradado_sin_nombre_80"/><radialGradient id="Degradado_sin_nombre_80-32" cx="104.61" cy="59.09" r="42.6" gradientTransform="translate(0 -29.54) scale(1 1.5)" xlink:href="#Degradado_sin_nombre_80"/><radialGradient id="Degradado_sin_nombre_80-33" cx="80.57" cy="128.85" r="25.53" gradientTransform="translate(0 -64.43) scale(1 1.5)" xlink:href="#Degradado_sin_nombre_80"/></defs><title>logo-small2_1</title><g id="Capa_2" data-name="Capa 2"><g id="Capa_1-2" data-name="Capa 1"><path class="cls-1" d="M113.88,120.67s12.32-23.52,19-25.2S145.8,79.8,140.2,79.8,155.88,48.44,162,45.64s15.12-20.16,15.12-20.16"/><path class="cls-2" d="M140,56.67c-4.23,6.33-22.5,17.5-20.5,25.5,0,3,6-1,7,3,0,4-4,7-6,11a78.49,78.49,0,0,0-5.94,21.56"/><path class="cls-3" d="M114,117.79c1.52-6.62-.48-12.62,1.52-19.62,2-5,6-10,6-15,0-27,2-53,7.75-79"/><path class="cls-4" d="M114.2,119.41c-.08.53-.21,1.06-.32,1.59,0-.54,0-1.08,0-1.61"/><path class="cls-5" d="M212.21,81.51S189.4,100.34,164,109.6s-16.85-3-23.13,3.63-27.1,7.61-27.1,7.61"/><path class="cls-6" d="M113.91,119.74S79,137.36,79,142.65,45.3,167.44,40,168.1s-10.9,4.63-5.28,5"/><path class="cls-7" d="M113.88,120.67S102.15,112.9,101.49,104,90.91,101,85,89.44s-6.28-3-11.9-18.51-9.91,0-15.86-15.87S36.58,35.2,35.49,37.2"/><path class="cls-8" d="M113.91,119.74s4.43.43,19.64-11.13S157.34,95.72,163,90.1s24.13-15.87,30.41-16.86S211.1,60.55,211.1,60.55"/><path class="cls-9" d="M113.91,119.74s-22-35.59-19.69-39.56-11.9-1.32-10.58-17.51S65.46,49.78,70.75,33.25s-2.65-7.7-6.12-15.91"/><path class="cls-10" d="M113.72,120.84s13.22,37,11.23,40,11,70.46,16.72,71.09"/><path class="cls-11" d="M113.72,120.84s7.27,19.5,11.56,19.83-.33,9.25,9.59,24.45,32,54.84,31.7,57.34"/><path class="cls-12" d="M113.72,119.84s14.87,13.22,14.54,17.52,5-3.3,14.87,9.92,11.24,4.62,20.16,18.84,7.27,1.32,11.24,2.64"/><path class="cls-13" d="M113.88,120.67s9.09,7.11,19.34,8.1,2.64,3,22.47,10.9,20.16,7.28,24.13,11.24"/><path class="cls-14" d="M114,119s1.34,27.91-3.29,28.9,3.31,4.29,0,11.9-10.57,35-4.63,40"/><path class="cls-15" d="M113.72,119.84s-20.83,33.72-43,61.15-21.22,34.7-21.22,34.7"/><path class="cls-16" d="M113.88,120.67s-7.77,24-22.31,25.61-17.84,19.5-12.89,18.84-30.77,31.74-36.53,45.12"/><path class="cls-17" d="M114.91,120.67S54.23,143,56.21,148.27s-41.65,11.9-46.6,5.95"/><path class="cls-18" d="M112.57,120.67S22.17,58,19.19,52.09"/><path class="cls-19" d="M113.88,120.67S41.67,87.78,40.67,87.78"/><path class="cls-20" d="M113.91,119.74S76,114.56,70.42,115.55,45.3,117.2,44,116.21"/><path class="cls-21" d="M112.57,120.67S60.5,145,59.18,149.26s-26.77,3.3-32.39,15.53"/><path class="cls-22" d="M114.21,122.23s.5,28.35,4.13,30.33-6.61,13.89-6.61,18.18S96.86,183.3,96.2,186.94s-.66,19.83-5,21.48S94,233.66,94,233.66"/><path class="cls-23" d="M116.13,122.23s5.52,7.86,5.52,10.17,11.24,4.3,10.57,11.24,3,17.19,6.62,15.87,7.27,3.63,7.27,8.26,2,17.85,8.59,17.85,14.87-2,15.86,5.28,1.61,25,1.14,28.72"/><path class="cls-24" d="M118.27,119a32.89,32.89,0,0,0,19.24,5.76c11.24-.33,3,9.26,27.77,6.28s24.78,9.59,26.11,3,35.11,6.74,35.11,6.74"/><path class="cls-25" d="M118.27,121s6,7.44,19.24,3.14,4.3,8.92,25.45,12.89,24.13,13.55,26.11,9.92"/><path class="cls-26" d="M120.5,119s57.67,1.13,71.22-1.51,18.17-3.64,18.17-3.64"/><path class="cls-27" d="M114,120.67s27.48-.5,43.34,2.81.33-5,62.14.66"/><path class="cls-28" d="M112.57,121.68S96.2,155.54,99.17,160.5s-28.09,33.38-29.41,40.65"/><path class="cls-29" d="M117.78,117.41A632.62,632.62,0,0,0,169.5,71.17a2.66,2.66,0,0,0,.73-2.89"/><path class="cls-30" d="M2.5,93.41c12-.24,23,3.76,34,6.76a35.52,35.52,0,0,0,9,4c13,5,26,6,40,10,1,0,1-1,2-1a7.58,7.58,0,0,1,4,2c2,1,6,0,8,1,4,3,9,4,14,5,1,0,1-1,1.64-1.53"/><path class="cls-31" d="M116,120.67s23.46,16.36,29.07,15.7,15.54,13.22,28.43,14.54,41.62,18.18,42.13,22.15"/><path class="cls-32" d="M113.88,115.67s-1.82-23.63-3.8-24,3.64-8.59-2-10.25-9.92-39.33-7.93-43.62-.67-11.57-3-10.91-2.64-21.1,0-24.43"/><path class="cls-33" d="M112.57,120.67s-9.43,4.46-14.39,2.81-21.48,2.64-13.55,4-15.86,1.32-17.18-.67,4,5.62-9.59,5.62S49.6,137,49.6,137"/></g></g></svg>