<?xml version="1.0" encoding="utf-8"?>
<!-- Generator: Adobe Illustrator 22.1.0, SVG Export Plug-In . SVG Version: 6.00 Build 0)  -->
<svg version="1.1" id="Capa_1" xmlns="http://www.w3.org/2000/svg" xmlns:xlink="http://www.w3.org/1999/xlink" x="0px" y="0px"
	 viewBox="0 0 512 512" style="enable-background:new 0 0 512 512;" xml:space="preserve">
<style type="text/css">
	.st0{fill:url(#SVGID_1_);}
</style>
<linearGradient id="SVGID_1_" gradientUnits="userSpaceOnUse" x1="126.2097" y1="128.2097" x2="385.7903" y2="387.7903" gradientTransform="matrix(1 0 0 -1 0 514)">
	<stop  offset="0" style="stop-color:#118AB2"/>
	<stop  offset="0.25" style="stop-color:#00A7AF"/>
	<stop  offset="0.5" style="stop-color:#47BE91"/>
	<stop  offset="0.75" style="stop-color:#A4CE6E"/>
	<stop  offset="1" style="stop-color:#FFD166"/>
</linearGradient>
<path class="st0" d="M366.4,375.9h-45.3c-18.5,0-35.3-11-42.7-27.9l-4.9-11.3c-2.9-6.7-9.5-11-16.8-11c-7.3,0-13.8,4.3-16.8,11
	L235,348c-7.4,17-24.2,27.9-42.7,27.9h-46.7c-39,0-70.8-31.7-70.8-70.8v-98.4c0-39,31.7-70.8,70.8-70.8h220.8
	c39,0,70.8,31.7,70.8,70.8v26.9c0,7.8-6.3,14.2-14.2,14.2c-7.8,0-14.2-6.3-14.2-14.2v-26.9c0-23.4-19-42.5-42.5-42.5H145.6
	c-23.4,0-42.5,19-42.5,42.5v98.4c0,23.4,19,42.5,42.5,42.5h46.7c7.3,0,13.8-4.3,16.8-11l4.9-11.3c7.4-17,24.2-27.9,42.7-27.9
	s35.3,11,42.7,27.9l4.9,11.3c2.9,6.7,9.5,11,16.8,11h45.3c23.4,0,42.5-19,42.5-42.5c0-7.8,6.3-14.2,14.2-14.2
	c7.8,0,14.2,6.3,14.2,14.2C437.1,344.2,405.4,375.9,366.4,375.9z M377,245c0-23.4-19-42.5-42.5-42.5s-42.5,19-42.5,42.5
	s19,42.5,42.5,42.5S377,268.4,377,245z M348.7,245c0,7.8-6.3,14.2-14.2,14.2s-14.2-6.3-14.2-14.2s6.3-14.2,14.2-14.2
	S348.7,237.2,348.7,245z M219.9,245c0-23.4-19-42.5-42.5-42.5S135,221.6,135,245s19,42.5,42.5,42.5S219.9,268.4,219.9,245z
	 M191.6,245c0,7.8-6.3,14.2-14.2,14.2s-14.2-6.3-14.2-14.2s6.3-14.2,14.2-14.2S191.6,237.2,191.6,245z"/>
</svg>
