<?xml version="1.0" encoding="utf-8"?>
<!-- Generator: Adobe Illustrator 22.1.0, SVG Export Plug-In . SVG Version: 6.00 Build 0)  -->
<svg version="1.1" id="Capa_1" xmlns="http://www.w3.org/2000/svg" xmlns:xlink="http://www.w3.org/1999/xlink" x="0px" y="0px"
	 viewBox="0 0 512 512" style="enable-background:new 0 0 512 512;" xml:space="preserve">
<style type="text/css">
	.st0{fill:#BDC3C7;}
	.st1{fill:#95A5A5;}
	.st2{fill:#52ADC6;}
	.st3{fill:#118AB2;}
	.st4{fill:#E64C3C;}
	.st5{fill:#81CFE2;}
	.st6{fill:#FFD166;}
</style>
<path class="st0" d="M275.9,315c-4.5-11.9-4.5-25.1,0-37l15.4-41.3c1.7-4.6,6.8-6.9,11.4-5.2l82.7,30.9c2.2,0.8,4,2.5,4.9,4.6
	c1,2.1,1.1,4.6,0.2,6.8l-15.4,41.3c-3.2,8.6-8.5,16.1-15.5,22L275.9,315z"/>
<path class="st1" d="M328.6,297.1c-2.9,0-5.6-1.4-7.2-3.8s-2-5.4-1-8.1L376,136.3c1.7-4.6,6.8-6.9,11.4-5.2s6.9,6.8,5.2,11.4
	L337,291.4C335.6,294.8,332.3,297.1,328.6,297.1z"/>
<path class="st2" d="M404.8,153.6c-5.3,0-10.5-1-15.5-2.8l-16.5-6.2c-22.8-8.5-34.4-33.9-25.9-56.8l12.4-33.1
	c1.7-4.6,6.8-6.9,11.4-5.2l82.7,30.9c2.2,0.8,4,2.5,4.9,4.6s1.1,4.6,0.2,6.8l-12.3,33.1C439.7,142.1,423.2,153.6,404.8,153.6
	L404.8,153.6z M372.7,69.2L363.4,94c-5.1,13.7,1.9,28.9,15.6,34.1l16.5,6.2c6.6,2.5,13.9,2.2,20.3-0.7s11.4-8.2,13.8-14.8l9.3-24.8
	L372.7,69.2z"/>
<path class="st3" d="M176.6,366.8l-51.8-10.3L106,243.6h123.6l-15.3,91.5L176.6,366.8z"/>
<path class="st2" d="M238.3,217.2v17.7c0,4.9-4,8.8-8.8,8.8H105.9c-4.9,0-8.8-4-8.8-8.8v-17.7c0-2.3,0.9-4.6,2.6-6.2
	c1.7-1.7,3.9-2.6,6.2-2.6h35.3v8.7c0,4.9,4,8.8,8.8,8.8s8.8-4,8.8-8.8v-8.7h70.6c2.3,0,4.6,0.9,6.3,2.6
	C237.4,212.6,238.4,214.8,238.3,217.2z"/>
<path class="st4" d="M158.9,208.3v8.7c0,4.9-4,8.8-8.8,8.8s-8.8-4-8.8-8.8v-8.7H158.9z"/>
<path class="st5" d="M211.9,164.1v44.2h-17.7v-44.2c0-9.8-7.9-17.7-17.7-17.7s-17.7,7.9-17.7,17.7v53c0,4.9-4,8.8-8.8,8.8
	s-8.8-4-8.8-8.8v-53c0-19.5,15.8-35.3,35.3-35.3C196.1,128.8,211.9,144.6,211.9,164.1z"/>
<path class="st6" d="M88.3,376c24.2-22.1,55.5-34.6,88.3-35.3c53,0,61.8-26.5,114.8-26.5S415,376,415,376l-26.5,17.3H105.9L88.3,376
	z"/>
<path class="st2" d="M54.7,411.3H44.1c-11.7,0-23,4.6-31.2,12.9S0,443.8,0,455.5c0,4.9,4,8.8,8.8,8.8h494.3c4.9,0,8.8-4,8.8-8.8
	v-8.8c0-29.2-23.7-52.9-53-53h-23L54.7,411.3z"/>
<path class="st3" d="M450.2,464.3H44.1L59,390.2c1.7-8.3,8.9-14.2,17.3-14.2h341.8c8.4,0,15.7,5.9,17.3,14.2L450.2,464.3z"/>
<g>
	<path class="st2" d="M335.4,411.3c24.4,0,44.1,19.8,44.1,44.1v8.8h-88.3v-8.8C291.3,431.1,311.1,411.3,335.4,411.3z"/>
	<path class="st2" d="M150.1,411.3c11.7,0,22.9,4.6,31.2,12.9s12.9,19.5,12.9,31.2v8.8h-88.3v-8.8
		C105.9,431.1,125.7,411.3,150.1,411.3z"/>
</g>
</svg>
