<?xml version="1.0" standalone="no"?>
<!DOCTYPE svg PUBLIC "-//W3C//DTD SVG 20010904//EN"
 "http://www.w3.org/TR/2001/REC-SVG-20010904/DTD/svg10.dtd">
<svg version="1.0" xmlns="http://www.w3.org/2000/svg"
 width="944.000000pt" height="944.000000pt" viewBox="0 0 944.000000 944.000000"
 preserveAspectRatio="xMidYMid meet">
<metadata>
Created by potrace 1.11, written by Peter Selinger 2001-2013
</metadata>
<g transform="translate(0.000000,944.000000) scale(0.100000,-0.100000)"
fill="#000000" stroke="none">
<path d="M3964 9415 c-70 -70 -94 -198 -101 -546 -9 -431 20 -560 131 -600 45
-16 67 -67 74 -169 3 -58 0 -91 -17 -144 -73 -237 46 -1235 194 -1617 18 -48
41 -101 50 -119 26 -51 94 -118 131 -130 44 -15 47 -42 17 -178 -19 -90 -13
-164 14 -195 24 -26 37 -65 57 -172 17 -95 59 -442 54 -455 -10 -29 -421 742
-498 935 -53 131 -60 159 -48 201 25 91 -18 150 -165 225 -125 64 -170 98
-203 155 -48 82 -56 126 -59 329 -3 207 -10 247 -63 352 -47 92 -117 169 -264
291 -186 153 -218 203 -218 338 0 54 10 107 39 211 71 247 77 351 27 437 -29
50 -68 78 -152 106 -80 28 -97 41 -132 103 -45 81 -111 98 -169 44 -35 -32
-39 -78 -12 -134 45 -94 133 -167 241 -202 20 -7 42 -18 48 -26 15 -18 0 -101
-51 -280 -65 -225 -64 -361 2 -494 39 -78 97 -141 238 -261 235 -198 253 -232
256 -510 3 -207 13 -259 71 -378 23 -47 56 -93 92 -129 54 -53 184 -138 230
-149 18 -5 22 -13 22 -44 0 -83 96 -341 189 -510 43 -78 41 -82 -24 -60 -159
55 -240 126 -335 292 -87 155 -150 238 -225 298 -35 27 -78 73 -95 100 -35 55
-94 186 -142 315 -41 112 -102 222 -151 273 -65 67 -125 93 -235 102 -84 6
-95 9 -123 36 -42 39 -69 88 -128 229 -62 146 -121 251 -197 351 -254 332
-716 540 -842 379 -64 -81 15 -187 114 -155 96 32 336 -97 491 -263 110 -118
179 -232 247 -407 109 -279 222 -380 424 -380 47 0 82 -16 110 -50 22 -26 79
-151 120 -260 49 -131 113 -260 161 -323 20 -27 66 -73 103 -103 70 -56 123
-129 208 -286 31 -58 69 -108 125 -164 91 -91 174 -139 340 -194 137 -46 152
-62 171 -178 8 -51 19 -104 25 -118 5 -15 8 -28 6 -30 -2 -2 -93 60 -203 137
-109 78 -251 179 -314 224 -1720 1221 -2392 1719 -2594 1920 -81 80 -101 88
-156 60 -35 -18 -50 -43 -50 -85 0 -46 21 -79 97 -151 237 -223 1199 -940
2333 -1739 244 -172 319 -226 285 -207 -17 9 -511 231 -840 377 -652 290 -865
380 -908 386 -39 6 -48 3 -76 -23 -25 -22 -33 -37 -34 -65 -1 -39 24 -86 51
-95 48 -17 533 -233 892 -398 126 -58 132 -60 430 -195 113 -51 253 -115 312
-141 60 -27 134 -61 165 -75 49 -21 55 -27 40 -35 -12 -7 -38 -4 -90 10 -96
27 -396 95 -527 120 -317 60 -709 158 -850 212 -41 15 -106 38 -145 50 -67 20
-210 85 -285 128 -71 41 -778 224 -985 256 -139 20 -405 39 -448 31 -70 -13
-110 -99 -71 -154 27 -39 54 -46 224 -53 261 -11 430 -45 885 -175 202 -57
282 -85 357 -124 231 -119 667 -255 1095 -341 90 -19 159 -37 155 -40 -24 -23
-761 -45 -971 -30 -39 3 -48 0 -73 -28 -61 -68 -16 -160 87 -176 127 -20 778
-3 993 25 147 20 280 12 877 -50 160 -17 331 -35 380 -42 84 -11 88 -12 56
-22 -24 -7 -53 -6 -105 5 -102 20 -339 18 -441 -5 -193 -42 -305 -96 -329
-157 l-11 -30 -100 6 c-164 10 -298 26 -334 41 -59 25 -106 18 -147 -20 -33
-32 -35 -36 -29 -78 6 -41 4 -46 -20 -62 -38 -25 -147 -46 -243 -46 -186 0
-343 -31 -412 -80 -37 -26 -70 -88 -70 -130 0 -69 65 -163 121 -175 39 -9 94
19 109 56 7 16 10 45 7 64 -3 19 -1 37 5 41 5 4 85 10 177 15 208 11 302 24
367 54 58 26 130 86 140 117 5 18 11 19 67 13 34 -4 139 -13 234 -19 l172 -11
-182 -79 c-390 -170 -658 -308 -796 -412 -68 -51 -121 -122 -121 -162 0 -19
-11 -28 -62 -51 -133 -60 -374 -117 -675 -161 -468 -67 -831 -61 -942 14 -51
34 -75 39 -116 22 -25 -11 -40 -26 -51 -51 -40 -97 61 -179 266 -216 50 -9
155 -14 316 -14 l241 0 -44 -50 c-60 -67 -103 -142 -103 -184 0 -24 9 -42 34
-67 57 -57 122 -40 167 44 33 63 121 149 199 195 36 20 111 55 167 77 92 36
187 61 606 160 177 42 241 72 298 140 62 74 206 167 541 348 l77 42 -9 -33
c-19 -66 -241 -246 -545 -441 -369 -236 -793 -463 -920 -492 -284 -64 -420
-169 -384 -297 16 -60 98 -107 186 -107 64 0 116 74 94 133 -6 15 -7 29 -1 32
5 3 62 19 127 35 74 19 167 53 252 92 218 101 567 300 832 474 362 238 538
399 567 517 12 45 46 80 167 174 150 115 796 505 811 490 3 -3 -86 -141 -197
-307 -201 -301 -203 -303 -256 -326 -30 -13 -99 -31 -155 -39 -99 -15 -218
-55 -288 -97 -126 -76 -247 -210 -311 -343 -82 -171 -99 -323 -46 -425 l26
-50 -82 -92 c-45 -51 -190 -210 -323 -353 -596 -641 -869 -975 -981 -1201 -43
-86 -45 -94 -33 -128 15 -46 44 -66 95 -66 52 0 75 21 116 103 40 79 106 177
205 303 75 96 303 364 310 364 2 0 -39 -64 -90 -142 -226 -344 -346 -601 -346
-743 0 -38 5 -52 29 -76 55 -54 151 -29 165 43 2 12 10 49 16 81 18 89 154
350 288 552 129 194 328 464 519 701 317 395 567 730 900 1208 84 120 153 217
153 215 0 -2 -9 -28 -20 -57 -30 -79 -67 -228 -80 -321 -8 -61 -8 -96 1 -141
11 -58 11 -60 -21 -117 -65 -117 -194 -278 -553 -692 -467 -539 -587 -708
-587 -827 0 -47 45 -94 90 -94 55 0 86 24 109 86 40 106 136 230 513 660 432
493 568 666 632 805 44 96 50 134 31 194 -8 30 -12 66 -9 90 32 217 221 733
335 913 l61 97 -5 -135 c-6 -138 -26 -275 -49 -342 -10 -28 -24 -43 -57 -60
-90 -48 -101 -128 -35 -259 50 -101 55 -161 19 -254 -70 -183 -162 -490 -195
-657 -11 -56 -13 -58 -105 -133 -201 -161 -262 -231 -284 -325 -6 -25 -18
-135 -27 -245 -17 -225 -35 -339 -66 -438 -18 -55 -30 -74 -69 -107 -56 -47
-78 -90 -90 -177 -18 -128 30 -427 127 -788 38 -145 50 -174 75 -198 40 -37
88 -37 131 1 43 39 42 60 -19 292 -61 232 -102 449 -110 581 l-6 97 50 48 c63
61 96 127 128 251 32 126 51 267 66 478 l13 170 55 58 56 58 0 -228 c0 -258 9
-306 71 -401 58 -88 135 -104 190 -39 32 39 29 92 -10 137 -40 49 -51 101 -50
260 0 144 13 274 40 401 13 66 15 68 118 170 109 108 156 181 156 244 0 36 43
128 132 286 89 157 122 224 144 293 l19 59 12 -59 c9 -40 11 -100 7 -184 -7
-137 1 -219 47 -520 112 -719 317 -1620 462 -2030 101 -286 170 -380 277 -380
48 0 90 47 90 100 0 36 -6 48 -39 79 -21 20 -50 59 -65 87 -123 248 -345 1163
-490 2024 -61 359 -82 556 -67 635 6 33 8 85 6 115 -6 62 -10 67 55 -75 36
-79 78 -151 282 -480 412 -666 1091 -1898 1114 -2022 13 -67 89 -102 153 -68
64 33 59 103 -19 276 -77 170 -343 673 -553 1044 -46 83 -83 152 -81 153 1 2
18 -1 37 -7 23 -8 112 -11 263 -9 215 2 232 1 276 -19 29 -13 52 -32 62 -51
33 -63 56 -375 62 -842 3 -223 10 -376 16 -393 12 -30 53 -57 88 -57 36 0 77
28 91 62 27 65 12 749 -26 1115 -16 156 -44 231 -110 292 -97 89 -158 103
-447 102 l-226 -1 -33 32 c-78 79 -143 285 -159 511 -12 164 -36 252 -90 335
-73 114 -157 166 -269 167 -60 1 -76 5 -88 21 -71 94 -134 362 -115 488 l7 49
50 -40 c60 -47 126 -120 207 -226 140 -184 240 -270 426 -366 151 -78 209
-135 352 -346 133 -196 194 -265 262 -299 63 -32 98 -33 156 -4 33 15 54 36
81 78 28 45 44 60 74 69 110 34 84 185 -34 198 -63 6 -124 -28 -168 -94 l-35
-53 -24 23 c-13 12 -58 74 -100 137 -205 309 -276 383 -455 472 -161 80 -236
145 -383 333 -99 127 -201 228 -284 283 -63 41 -198 92 -244 92 -29 0 -46 19
-89 102 -41 78 -50 79 103 -10 117 -68 305 -157 373 -177 28 -8 72 -15 97 -15
86 0 145 -31 370 -200 345 -257 531 -349 779 -385 233 -34 485 -127 856 -315
391 -198 690 -399 760 -511 43 -67 124 -75 168 -16 54 72 0 172 -163 298 -260
201 -749 472 -1117 619 -89 36 -134 59 -138 71 -9 27 -114 119 -184 160 -34
20 -171 81 -306 135 -134 54 -243 99 -241 101 1 2 58 -11 125 -28 250 -62 425
-140 647 -289 72 -48 147 -90 165 -94 70 -13 147 33 169 100 25 73 -53 152
-123 126 -26 -10 -37 -5 -140 64 -216 146 -498 264 -766 320 -73 15 -126 31
-119 35 12 6 171 22 328 33 98 7 288 -12 393 -38 105 -27 161 -53 274 -127 71
-46 82 -50 122 -46 52 6 95 44 116 103 l13 39 104 -1 c190 -3 540 -96 1037
-278 171 -63 194 -64 236 -14 32 38 33 88 3 123 -24 26 -90 54 -358 147 -553
193 -918 269 -1073 224 -35 -10 -73 -30 -96 -51 l-38 -34 -65 34 c-173 92
-342 127 -608 127 -101 0 -230 -7 -305 -16 -144 -18 -460 -22 -515 -6 -27 7
-45 24 -79 75 -24 36 -42 68 -38 71 6 6 79 -5 347 -51 189 -33 266 -32 451 5
241 47 339 53 789 47 386 -5 658 -19 1018 -52 222 -20 245 -20 277 7 51 45 42
124 -18 162 -23 15 -301 40 -812 74 l-260 17 310 63 c171 34 326 67 346 72 86
24 113 115 51 171 -18 16 -41 29 -52 29 -11 0 -165 -29 -343 -64 -177 -36
-362 -72 -412 -80 -238 -40 -556 -54 -1375 -62 l-635 -6 50 45 c45 40 52 43
70 31 11 -7 49 -21 85 -30 222 -57 694 79 1285 371 390 193 833 468 1226 761
187 140 229 181 229 220 0 33 -25 81 -49 94 -49 25 -86 13 -183 -63 -619 -484
-1391 -911 -2001 -1106 -168 -53 -276 -75 -382 -75 -88 -1 -91 0 -144 37 -90
63 -137 50 -266 -73 -67 -64 -158 -114 -280 -153 -92 -30 -198 -58 -202 -53
-2 2 29 25 69 51 40 27 147 103 238 169 293 213 445 306 842 516 163 86 275
161 378 254 257 232 879 577 1154 640 168 39 391 190 662 449 112 107 114 110
114 154 0 59 -40 103 -95 103 -31 0 -49 -12 -147 -102 -289 -268 -436 -367
-612 -413 -334 -86 -948 -428 -1232 -685 -96 -87 -151 -122 -384 -247 -248
-133 -258 -138 -245 -126 6 5 60 54 120 109 428 386 935 887 960 946 40 98 -6
208 -88 208 -64 0 -116 -57 -105 -115 5 -22 -21 -50 -196 -218 -503 -483 -912
-851 -1470 -1327 -117 -99 -113 -88 30 103 112 150 211 246 279 271 154 57
285 186 379 374 45 90 66 168 66 249 0 80 -17 121 -68 164 l-40 33 20 51 c56
143 268 483 456 734 174 230 304 366 392 411 85 43 227 204 363 409 133 200
267 438 267 472 0 74 -97 126 -157 84 -11 -8 -60 -82 -108 -165 -115 -200
-204 -334 -302 -455 -86 -105 -104 -122 -219 -198 -158 -104 -452 -464 -687
-842 -261 -420 -310 -624 -165 -684 38 -15 39 -17 33 -54 -3 -21 -18 -67 -34
-102 -65 -142 -156 -240 -263 -281 -69 -26 -131 -67 -196 -128 -46 -43 -184
-214 -239 -297 -26 -38 -48 -68 -49 -66 -6 6 84 247 116 313 16 33 52 90 79
126 117 155 171 266 171 356 0 84 -76 170 -165 186 l-35 7 0 88 0 89 73 83
c41 46 139 142 218 214 190 171 352 329 400 388 47 58 54 118 18 156 -56 60
-117 47 -185 -40 -26 -32 -119 -123 -208 -201 -88 -78 -194 -174 -235 -213
l-73 -70 6 140 c41 869 120 1557 255 2227 44 214 43 241 -4 272 -47 31 -133
13 -149 -31 -16 -39 -88 -401 -130 -643 -102 -592 -157 -1170 -186 -1943 l-10
-269 -34 -71 c-42 -88 -60 -171 -51 -234 7 -50 37 -112 60 -126 11 -6 11 -17
-4 -60 -19 -55 -70 -160 -129 -266 l-35 -64 -17 64 c-9 35 -24 78 -33 95 -13
25 -14 39 -6 65 18 64 28 171 19 225 -12 72 -52 130 -118 167 -30 16 -63 44
-73 61 -43 70 -114 331 -153 561 -44 258 -55 347 -71 540 -21 265 -20 413 5
500 56 196 -11 454 -135 521 -19 10 -37 25 -40 34 -10 31 -25 249 -25 355 0
166 18 341 42 405 11 30 22 74 25 97 4 37 1 46 -25 73 -40 40 -101 42 -138 5z
m-154 -5048 l-105 -42 -7 24 c-4 14 -5 27 -2 30 8 8 132 29 179 29 36 1 29 -4
-65 -41z m1998 -49 c10 -7 47 -40 84 -74 37 -33 94 -75 127 -93 72 -38 94 -63
25 -28 -50 26 -143 90 -232 162 -27 22 -58 45 -68 52 -16 10 -13 10 14 3 19
-5 41 -15 50 -22z m-868 -797 c17 -57 28 -106 26 -109 -9 -8 -27 10 -37 36
-12 31 -44 185 -53 252 -6 44 -6 44 14 -15 11 -33 34 -107 50 -164z m195 177
c7 -32 25 -151 24 -163 0 -7 -57 168 -59 183 0 1 7 2 15 2 8 0 17 -10 20 -22z
m-420 -265 c20 -69 40 -110 68 -140 18 -21 19 -26 7 -62 -7 -22 -37 -84 -67
-138 -30 -54 -52 -89 -48 -78 45 138 45 248 1 358 l-28 69 23 24 c12 13 24 24
25 24 1 0 10 -26 19 -57z m-931 35 c-4 -7 -95 -135 -201 -284 l-194 -271 -35
16 -35 16 4 67 c8 132 117 300 251 387 87 57 230 103 210 69z m1878 -510 c13
0 43 1 67 2 42 3 47 0 83 -40 44 -49 68 -119 68 -199 0 -53 24 -233 36 -276 3
-11 -11 7 -32 40 -20 33 -95 153 -165 267 -71 113 -129 209 -129 212 0 4 11 4
25 0 14 -3 35 -6 47 -6z"/>
</g>
</svg>
