{
  "asset": {
    "version": "2.0",
    "generator": "THREE.GLTFExporter"
  },
  "scenes": [
    {
      "nodes": [2, 5],
      "name": "Scene"
    }
  ],
  "scene": 0,
  "nodes": [
    {
      "name": "DTs3D_V1",
      "mesh": 0
    },
    {
      "name": "DTs3D_V1",
      "children": [0]
    },
    {
      "name": "DTs3D_V1(1).gltf",
      "children": [1]
    },
    {
      "name": "CSC3D_V1",
      "mesh": 1
    },
    {
      "name": "CSC3D_V1",
      "children": [3]
    },
    {
      "name": "CSC3D_V1.gltf",
      "children": [4]
    }
  ],
  "bufferViews": [
    {
      "buffer": 0,
      "byteOffset": 0,
      "byteLength": 108000,
      "target": 34962,
      "byteStride": 12
    },
    {
      "buffer": 0,
      "byteOffset": 108000,
      "byteLength": 108000,
      "target": 34962,
      "byteStride": 12
    },
    {
      "buffer": 0,
      "byteOffset": 216000,
      "byteLength": 108000,
      "target": 34962,
      "byteStride": 12
    },
    {
      "buffer": 0,
      "byteOffset": 324000,
      "byteLength": 264384,
      "target": 34962,
      "byteStride": 12
    },
    {
      "buffer": 0,
      "byteOffset": 588384,
      "byteLength": 264384,
      "target": 34962,
      "byteStride": 12
    },
    {
      "buffer": 0,
      "byteOffset": 852768,
      "byteLength": 264384,
      "target": 34962,
      "byteStride": 12
    }
  ],
  "buffers": [
    {
      "byteLength": 1117152,
      "uri": "data:application/octet-stream;base64,"
    }
  ],
  "accessors": [
    {
      "bufferView": 0,
      "componentType": 5126,
      "count": 9000,
      "max": [7.9037699699401855, 7.370110034942627, 6.594099998474121],
      "min": [-7.9018402099609375, -7.371059894561768, -6.592050075531006],
      "type": "VEC3"
    },
    {
      "bufferView": 1,
      "componentType": 5126,
      "count": 9000,
      "max": [0.9949347972869873, 0.9929603338241577, 0.31602534651756287],
      "min": [-0.9948988556861877, -0.9929217100143433, -0.31468188762664795],
      "type": "VEC3"
    },
    {
      "bufferView": 2,
      "componentType": 5126,
      "count": 9000,
      "max": [1, 1, 1],
      "min": [1, 1, 1],
      "type": "VEC3"
    },
    {
      "bufferView": 3,
      "componentType": 5126,
      "count": 22032,
      "max": [6.982510089874268, 6.982419967651367, 10.468199729919434],
      "min": [-6.982079982757568, -6.9822998046875, -10.466400146484375],
      "type": "VEC3"
    },
    {
      "bufferView": 4,
      "componentType": 5126,
      "count": 22032,
      "max": [0.7116276025772095, 0.7117704749107361, 0.9966132044792175],
      "min": [-0.7129578590393066, -0.711753249168396, -0.9966269135475159],
      "type": "VEC3"
    },
    {
      "bufferView": 5,
      "componentType": 5126,
      "count": 22032,
      "max": [1, 1, 1],
      "min": [1, 1, 1],
      "type": "VEC3"
    }
  ],
  "materials": [
    {
      "pbrMetallicRoughness": {
        "baseColorFactor": [0.8, 0.4, 0, 0.5],
        "metallicFactor": 0,
        "roughnessFactor": 0.9
      },
      "extensions": {
        "KHR_materials_unlit": {}
      },
      "alphaMode": "BLEND",
      "doubleSided": true
    },
    {
      "pbrMetallicRoughness": {
        "baseColorFactor": [0.6, 0.7, 0.1, 0.5],
        "metallicFactor": 0,
        "roughnessFactor": 0.9
      },
      "extensions": {
        "KHR_materials_unlit": {}
      },
      "alphaMode": "BLEND",
      "doubleSided": true
    }
  ],
  "meshes": [
    {
      "primitives": [
        {
          "mode": 4,
          "attributes": {
            "POSITION": 0,
            "NORMAL": 1,
            "COLOR_0": 2
          },
          "material": 0
        }
      ]
    },
    {
      "primitives": [
        {
          "mode": 4,
          "attributes": {
            "POSITION": 3,
            "NORMAL": 4,
            "COLOR_0": 5
          },
          "material": 1
        }
      ]
    }
  ],
  "extensionsUsed": ["KHR_materials_unlit"]
}
