{
  "asset": {
    "version": "2.0",
    "generator": "THREE.GLTFExporter"
  },
  "scenes": [
    {
      "nodes": [
        2
      ],
      "name": "AuxScene"
    }
  ],
  "scene": 0,
  "nodes": [
    {
      "name": "_042D6568",
      "mesh": 0
    },
    {
      "name": "_05423DB8",
      "mesh": 1
    },
    {
      "name": "Muon-Big-Wheel-MDT",
      "children": [
        0,
        1
      ]
    }
  ],
  "bufferViews": [
    {
      "buffer": 0,
      "byteOffset": 0,
      "byteLength": 69120,
      "target": 34962,
      "byteStride": 12
    },
    {
      "buffer": 0,
      "byteOffset": 69120,
      "byteLength": 69120,
      "target": 34962,
      "byteStride": 12
    },
    {
      "buffer": 0,
      "byteOffset": 138240,
      "byteLength": 69120,
      "target": 34962,
      "byteStride": 12
    },
    {
      "buffer": 0,
      "byteOffset": 207360,
      "byteLength": 279648,
      "target": 34962,
      "byteStride": 12
    },
    {
      "buffer": 0,
      "byteOffset": 487008,
      "byteLength": 279648,
      "target": 34962,
      "byteStride": 12
    },
    {
      "buffer": 0,
      "byteOffset": 766656,
      "byteLength": 279648,
      "target": 34962,
      "byteStride": 12
    }
  ],
  "buffers": [
    {
      "byteLength": 1046304,
      "uri": "data:application/octet-stream;base64,"
    }
  ],
  "accessors": [
    {
      "bufferView": 0,
      "componentType": 5126,
      "count": 5760,
      "max": [
        11.388199806213379,
        11.388299942016602,
        14.476499557495117
      ],
      "min": [
        -11.388199806213379,
        -11.388299942016602,
        -14.476499557495117
      ],
      "type": "VEC3"
    },
    {
      "bufferView": 1,
      "componentType": 5126,
      "count": 5760,
      "max": [
        1,
        1,
        1
      ],
      "min": [
        -1,
        -1,
        -1
      ],
      "type": "VEC3"
    },
    {
      "bufferView": 2,
      "componentType": 5126,
      "count": 5760,
      "max": [
        1,
        1,
        1
      ],
      "min": [
        1,
        1,
        1
      ],
      "type": "VEC3"
    },
    {
      "bufferView": 3,
      "componentType": 5126,
      "count": 23304,
      "max": [
        12.858499526977539,
        11.729801177978516,
        14.476499557495117
      ],
      "min": [
        -12.85789966583252,
        -11.694299697875977,
        -14.476499557495117
      ],
      "type": "VEC3"
    },
    {
      "bufferView": 4,
      "componentType": 5126,
      "count": 23304,
      "max": [
        1,
        1,
        1
      ],
      "min": [
        -1,
        -1,
        -1
      ],
      "type": "VEC3"
    },
    {
      "bufferView": 5,
      "componentType": 5126,
      "count": 23304,
      "max": [
        1,
        1,
        1
      ],
      "min": [
        1,
        1,
        1
      ],
      "type": "VEC3"
    }
  ],
  "materials": [
    {
      "pbrMetallicRoughness": {
        "baseColorFactor": [
          0.6352941176470588,
          0.6,
          0.996078431372549,
          1
        ],
        "metallicFactor": 0.5,
        "roughnessFactor": 0.5
      },
      "alphaMode": "MASK",
      "doubleSided": true
    },
    {
      "pbrMetallicRoughness": {
        "baseColorFactor": [
          0.7764705882352941,
          0.7607843137254902,
          0.9803921568627451,
          1
        ],
        "metallicFactor": 0.5,
        "roughnessFactor": 0.5
      },
      "alphaMode": "MASK",
      "doubleSided": true
    }
  ],
  "meshes": [
    {
      "primitives": [
        {
          "mode": 4,
          "attributes": {
            "POSITION": 0,
            "NORMAL": 1,
            "COLOR_0": 2
          },
          "material": 0
        }
      ]
    },
    {
      "primitives": [
        {
          "mode": 4,
          "attributes": {
            "POSITION": 3,
            "NORMAL": 4,
            "COLOR_0": 5
          },
          "material": 1
        }
      ]
    }
  ]
}