{
  "asset": {
    "version": "2.0",
    "generator": "THREE.GLTFExporter"
  },
  "scenes": [
    {
      "nodes": [
        7
      ],
      "name": "AuxScene"
    }
  ],
  "scene": 0,
  "nodes": [
    {
      "name": "_0654C048"
    },
    {
      "name": "_065B53E8",
      "mesh": 0
    },
    {
      "name": "_0682E928",
      "mesh": 1
    },
    {
      "name": "_0684A5D8",
      "mesh": 2
    },
    {
      "name": "_06853328",
      "mesh": 3
    },
    {
      "name": "_068D1DA8",
      "mesh": 4
    },
    {
      "name": "_06D92DB8",
      "mesh": 5
    },
    {
      "name": "Muon-Barrel-Middle",
      "children": [
        0,
        1,
        2,
        3,
        4,
        5,
        6
      ]
    }
  ],
  "bufferViews": [
    {
      "buffer": 0,
      "byteOffset": 0,
      "byteLength": 610272,
      "target": 34962,
      "byteStride": 12
    },
    {
      "buffer": 0,
      "byteOffset": 610272,
      "byteLength": 610272,
      "target": 34962,
      "byteStride": 12
    },
    {
      "buffer": 0,
      "byteOffset": 1220544,
      "byteLength": 610272,
      "target": 34962,
      "byteStride": 12
    },
    {
      "buffer": 0,
      "byteOffset": 1830816,
      "byteLength": 6192,
      "target": 34962,
      "byteStride": 12
    },
    {
      "buffer": 0,
      "byteOffset": 1837008,
      "byteLength": 6192,
      "target": 34962,
      "byteStride": 12
    },
    {
      "buffer": 0,
      "byteOffset": 1843200,
      "byteLength": 6192,
      "target": 34962,
      "byteStride": 12
    },
    {
      "buffer": 0,
      "byteOffset": 1849392,
      "byteLength": 5472,
      "target": 34962,
      "byteStride": 12
    },
    {
      "buffer": 0,
      "byteOffset": 1854864,
      "byteLength": 5472,
      "target": 34962,
      "byteStride": 12
    },
    {
      "buffer": 0,
      "byteOffset": 1860336,
      "byteLength": 5472,
      "target": 34962,
      "byteStride": 12
    },
    {
      "buffer": 0,
      "byteOffset": 1865808,
      "byteLength": 5472,
      "target": 34962,
      "byteStride": 12
    },
    {
      "buffer": 0,
      "byteOffset": 1871280,
      "byteLength": 5472,
      "target": 34962,
      "byteStride": 12
    },
    {
      "buffer": 0,
      "byteOffset": 1876752,
      "byteLength": 5472,
      "target": 34962,
      "byteStride": 12
    },
    {
      "buffer": 0,
      "byteOffset": 1882224,
      "byteLength": 6192,
      "target": 34962,
      "byteStride": 12
    },
    {
      "buffer": 0,
      "byteOffset": 1888416,
      "byteLength": 6192,
      "target": 34962,
      "byteStride": 12
    },
    {
      "buffer": 0,
      "byteOffset": 1894608,
      "byteLength": 6192,
      "target": 34962,
      "byteStride": 12
    },
    {
      "buffer": 0,
      "byteOffset": 1900800,
      "byteLength": 287532,
      "target": 34962,
      "byteStride": 12
    },
    {
      "buffer": 0,
      "byteOffset": 2188332,
      "byteLength": 287532,
      "target": 34962,
      "byteStride": 12
    },
    {
      "buffer": 0,
      "byteOffset": 2475864,
      "byteLength": 287532,
      "target": 34962,
      "byteStride": 12
    }
  ],
  "buffers": [
    {
      "byteLength": 2763396,
      "uri": "data:application/octet-stream;base64,"
    }
  ],
  "accessors": [
    {
      "bufferView": 0,
      "componentType": 5126,
      "count": 50856,
      "max": [
        8.388859748840332,
        8.388899803161621,
        9.800431251525879
      ],
      "min": [
        -8.388859748840332,
        -8.416069984436035,
        -9.755419731140137
      ],
      "type": "VEC3"
    },
    {
      "bufferView": 1,
      "componentType": 5126,
      "count": 50856,
      "max": [
        1,
        1,
        1
      ],
      "min": [
        -1,
        -1,
        -1
      ],
      "type": "VEC3"
    },
    {
      "bufferView": 2,
      "componentType": 5126,
      "count": 50856,
      "max": [
        1,
        1,
        1
      ],
      "min": [
        1,
        1,
        1
      ],
      "type": "VEC3"
    },
    {
      "bufferView": 3,
      "componentType": 5126,
      "count": 516,
      "max": [
        -1.5451300144195557,
        -7.435349941253662,
        7.045330047607422
      ],
      "min": [
        -2.8873701095581055,
        -8.260009765625,
        -7.045269966125488
      ],
      "type": "VEC3"
    },
    {
      "bufferView": 4,
      "componentType": 5126,
      "count": 516,
      "max": [
        0.9267392754554749,
        0.9240279197692871,
        1
      ],
      "min": [
        -0.9250198006629944,
        -0.9239614605903625,
        -1
      ],
      "type": "VEC3"
    },
    {
      "bufferView": 5,
      "componentType": 5126,
      "count": 516,
      "max": [
        1,
        1,
        1
      ],
      "min": [
        1,
        1,
        1
      ],
      "type": "VEC3"
    },
    {
      "bufferView": 6,
      "componentType": 5126,
      "count": 456,
      "max": [
        -1.5455900430679321,
        -7.4362897872924805,
        -8.940369606018066
      ],
      "min": [
        -2.8877298831939697,
        -8.260950088500977,
        -9.800371170043945
      ],
      "type": "VEC3"
    },
    {
      "bufferView": 7,
      "componentType": 5126,
      "count": 456,
      "max": [
        0.927241861820221,
        0.9239779710769653,
        1
      ],
      "min": [
        -0.924138605594635,
        -0.9239779710769653,
        -1
      ],
      "type": "VEC3"
    },
    {
      "bufferView": 8,
      "componentType": 5126,
      "count": 456,
      "max": [
        1,
        1,
        1
      ],
      "min": [
        1,
        1,
        1
      ],
      "type": "VEC3"
    },
    {
      "bufferView": 9,
      "componentType": 5126,
      "count": 456,
      "max": [
        4.650979995727539,
        -6.698949813842773,
        -8.940369606018066
      ],
      "min": [
        3.3090500831604004,
        -7.524139881134033,
        -9.800379753112793
      ],
      "type": "VEC3"
    },
    {
      "bufferView": 10,
      "componentType": 5126,
      "count": 456,
      "max": [
        0.927241861820221,
        0.9239940643310547,
        1
      ],
      "min": [
        -0.9305287599563599,
        -0.92410808801651,
        -1
      ],
      "type": "VEC3"
    },
    {
      "bufferView": 11,
      "componentType": 5126,
      "count": 456,
      "max": [
        1,
        1,
        1
      ],
      "min": [
        1,
        1,
        1
      ],
      "type": "VEC3"
    },
    {
      "bufferView": 12,
      "componentType": 5126,
      "count": 516,
      "max": [
        4.650599956512451,
        -6.697831153869629,
        7.045330047607422
      ],
      "min": [
        3.3086600303649902,
        -7.523210048675537,
        -7.0452799797058105
      ],
      "type": "VEC3"
    },
    {
      "bufferView": 13,
      "componentType": 5126,
      "count": 516,
      "max": [
        0.9241786003112793,
        0.92410808801651,
        1
      ],
      "min": [
        -0.924153208732605,
        -0.9239614605903625,
        -1
      ],
      "type": "VEC3"
    },
    {
      "bufferView": 14,
      "componentType": 5126,
      "count": 516,
      "max": [
        1,
        1,
        1
      ],
      "min": [
        1,
        1,
        1
      ],
      "type": "VEC3"
    },
    {
      "bufferView": 15,
      "componentType": 5126,
      "count": 23961,
      "max": [
        7.626009941101074,
        7.626049995422363,
        9.800431251525879
      ],
      "min": [
        -8.388859748840332,
        -8.41609001159668,
        -9.755431175231934
      ],
      "type": "VEC3"
    },
    {
      "bufferView": 16,
      "componentType": 5126,
      "count": 23961,
      "max": [
        1,
        1,
        1
      ],
      "min": [
        -1,
        -1,
        -1
      ],
      "type": "VEC3"
    },
    {
      "bufferView": 17,
      "componentType": 5126,
      "count": 23961,
      "max": [
        1,
        1,
        1
      ],
      "min": [
        1,
        1,
        1
      ],
      "type": "VEC3"
    }
  ],
  "materials": [
    {
      "pbrMetallicRoughness": {
        "baseColorFactor": [
          0.45098039215686275,
          0.7254901960784313,
          1,
          1
        ],
        "metallicFactor": 0.5,
        "roughnessFactor": 0.5
      },
      "alphaMode": "MASK",
      "doubleSided": true
    },
    {
      "pbrMetallicRoughness": {
        "baseColorFactor": [
          0.45098039215686275,
          0.7254901960784313,
          1,
          1
        ],
        "metallicFactor": 0.5,
        "roughnessFactor": 0.5
      },
      "alphaMode": "MASK",
      "doubleSided": true
    },
    {
      "pbrMetallicRoughness": {
        "baseColorFactor": [
          0.45098039215686275,
          0.7254901960784313,
          1,
          1
        ],
        "metallicFactor": 0.5,
        "roughnessFactor": 0.5
      },
      "alphaMode": "MASK",
      "doubleSided": true
    },
    {
      "pbrMetallicRoughness": {
        "baseColorFactor": [
          0.45098039215686275,
          0.7254901960784313,
          1,
          1
        ],
        "metallicFactor": 0.5,
        "roughnessFactor": 0.5
      },
      "alphaMode": "MASK",
      "doubleSided": true
    },
    {
      "pbrMetallicRoughness": {
        "baseColorFactor": [
          0.45098039215686275,
          0.7254901960784313,
          1,
          1
        ],
        "metallicFactor": 0.5,
        "roughnessFactor": 0.5
      },
      "alphaMode": "MASK",
      "doubleSided": true
    },
    {
      "pbrMetallicRoughness": {
        "baseColorFactor": [
          0.45098039215686275,
          0.7254901960784313,
          1,
          1
        ],
        "metallicFactor": 0.5,
        "roughnessFactor": 0.5
      },
      "alphaMode": "MASK",
      "doubleSided": true
    }
  ],
  "meshes": [
    {
      "primitives": [
        {
          "mode": 4,
          "attributes": {
            "POSITION": 0,
            "NORMAL": 1,
            "COLOR_0": 2
          },
          "material": 0
        }
      ]
    },
    {
      "primitives": [
        {
          "mode": 4,
          "attributes": {
            "POSITION": 3,
            "NORMAL": 4,
            "COLOR_0": 5
          },
          "material": 1
        }
      ]
    },
    {
      "primitives": [
        {
          "mode": 4,
          "attributes": {
            "POSITION": 6,
            "NORMAL": 7,
            "COLOR_0": 8
          },
          "material": 2
        }
      ]
    },
    {
      "primitives": [
        {
          "mode": 4,
          "attributes": {
            "POSITION": 9,
            "NORMAL": 10,
            "COLOR_0": 11
          },
          "material": 3
        }
      ]
    },
    {
      "primitives": [
        {
          "mode": 4,
          "attributes": {
            "POSITION": 12,
            "NORMAL": 13,
            "COLOR_0": 14
          },
          "material": 4
        }
      ]
    },
    {
      "primitives": [
        {
          "mode": 4,
          "attributes": {
            "POSITION": 15,
            "NORMAL": 16,
            "COLOR_0": 17
          },
          "material": 5
        }
      ]
    }
  ]
}