<?xml version="1.0" encoding="utf-8"?>
<!-- Generator: Adobe Illustrator 22.1.0, SVG Export Plug-In . SVG Version: 6.00 Build 0)  -->
<svg version="1.1" id="Capa_1" xmlns="http://www.w3.org/2000/svg" xmlns:xlink="http://www.w3.org/1999/xlink" x="0px" y="0px"
	 viewBox="0 0 512 511" style="enable-background:new 0 0 512 511;" xml:space="preserve">
<style type="text/css">
	.st0{fill:#FFD166;}
	.st1{fill:#118AB2;}
</style>
<path class="st0" d="M322,327.3c-3.8,0-6.9,3.1-6.9,6.9s3.1,6.9,6.9,6.9s6.9-3.1,6.9-6.9S325.8,327.3,322,327.3z"/>
<path class="st0" d="M262.9,206.3c0-3.8-3.1-6.9-6.9-6.9s-6.9,3.1-6.9,6.9c0,3.8,3.1,6.9,6.9,6.9S262.9,210.1,262.9,206.3z"/>
<path class="st0" d="M190,341.1c3.8,0,6.9-3.1,6.9-6.9s-3.1-6.9-6.9-6.9s-6.9,3.1-6.9,6.9S186.2,341.1,190,341.1z"/>
<path class="st1" d="M427.9,373.7l-37.2-16.5V206.3c0-2.7-1.6-5.2-4.2-6.3l-123.7-53.2V96.3c0-3.8-3.1-6.9-6.9-6.9
	c-3.8,0-6.9,3.1-6.9,6.9v50.5L125.5,200c-2.5,1-4.2,3.5-4.2,6.3v150.9l-37.2,16.5c-3.5,1.5-5,5.6-3.5,9.1c1.5,3.4,5.6,5,9.1,3.5
	l38.5-17.1L253.3,423c1.7,0.7,3.7,0.8,5.4,0l125.1-53.8l38.5,17.1c3.5,1.6,7.5-0.1,9.1-3.5C432.9,379.3,431.4,375.3,427.9,373.7z
	 M249.1,161.8v17.1c0,3.8,3.1,6.9,6.9,6.9s6.9-3.1,6.9-6.9v-17.1l103.6,44.6L256,253.8l-110.5-47.5L249.1,161.8z M171.2,342.6
	c-1.5-3.5-5.6-5-9.1-3.5l-27.1,12V216.7l114.1,49.1v140.4l-103.8-44.7l22.4-9.9C171.1,350.1,172.7,346,171.2,342.6z M262.9,406.2
	V265.8L377,216.7v134.4l-27.1-12c-3.5-1.5-7.5,0-9.1,3.5c-1.5,3.5,0,7.5,3.5,9.1l22.4,9.9L262.9,406.2z"/>
</svg>
