<?xml version="1.0" encoding="UTF-8" standalone="no"?>
<!DOCTYPE svg PUBLIC "-//W3C//DTD SVG 1.1//EN"
 "http://www.w3.org/Graphics/SVG/1.1/DTD/svg11.dtd">
<!-- Generated by graphviz version 2.40.1 (20161225.0304)
 -->
<!-- Title: dependencies Pages: 1 -->
<svg width="4397pt" height="284pt"
 viewBox="0.00 0.00 4397.00 284.00" xmlns="http://www.w3.org/2000/svg" xmlns:xlink="http://www.w3.org/1999/xlink">
<g id="graph0" class="graph" transform="scale(1 1) rotate(0) translate(4 280)">
<title>dependencies</title>
<polygon fill="#ffffff" stroke="transparent" points="-4,4 -4,-280 4393,-280 4393,4 -4,4"/>
<text text-anchor="start" x="2173.5091" y="-42.4" font-family="sans-serif" font-weight="bold" font-size="14.00" fill="#000000">Legend</text>
<polygon fill="#ffffb3" stroke="transparent" points="1960.5,-10 1960.5,-30 1980.5,-30 1980.5,-10 1960.5,-10"/>
<text text-anchor="start" x="1984.129" y="-15.4" font-family="sans-serif" font-size="14.00" fill="#000000"> &#160;Declarations</text>
<polygon fill="#8dd3c7" stroke="transparent" points="2073.5,-10 2073.5,-30 2093.5,-30 2093.5,-10 2073.5,-10"/>
<text text-anchor="start" x="2097.2251" y="-15.4" font-family="sans-serif" font-size="14.00" fill="#000000"> &#160;Module</text>
<polygon fill="#80b1d3" stroke="transparent" points="2159.5,-10 2159.5,-30 2179.5,-30 2179.5,-10 2159.5,-10"/>
<text text-anchor="start" x="2183.2812" y="-15.4" font-family="sans-serif" font-size="14.00" fill="#000000"> &#160;Bootstrap</text>
<polygon fill="#fdb462" stroke="transparent" points="2256.5,-10 2256.5,-30 2276.5,-30 2276.5,-10 2256.5,-10"/>
<text text-anchor="start" x="2280.1732" y="-15.4" font-family="sans-serif" font-size="14.00" fill="#000000"> &#160;Providers</text>
<polygon fill="#fb8072" stroke="transparent" points="2352.5,-10 2352.5,-30 2372.5,-30 2372.5,-10 2352.5,-10"/>
<text text-anchor="start" x="2376.2258" y="-15.4" font-family="sans-serif" font-size="14.00" fill="#000000"> &#160;Exports</text>
<g id="clust1" class="cluster">
<title>cluster_AppModule</title>
<polygon fill="none" stroke="#000000" stroke-dasharray="1,5" points="8,-70 8,-268 4381,-268 4381,-70 8,-70"/>
</g>
<g id="clust2" class="cluster">
<title>cluster_AppModule_declarations</title>
<polygon fill="none" stroke="#000000" points="16,-78 16,-130 4373,-130 4373,-78 16,-78"/>
</g>
<g id="clust31" class="cluster">
<title>cluster_AppModule_bootstrap</title>
<polygon fill="none" stroke="#000000" points="2200,-208 2200,-260 2324,-260 2324,-208 2200,-208"/>
</g>
<!-- AppComponent -->
<g id="node1" class="node">
<title>AppComponent</title>
<polygon fill="#ffffb3" stroke="#000000" points="4364.9399,-122 4259.0601,-122 4259.0601,-86 4364.9399,-86 4364.9399,-122"/>
<text text-anchor="middle" x="4312" y="-99.8" font-family="Times,serif" font-size="14.00" fill="#000000">AppComponent</text>
</g>
<!-- AppModule -->
<g id="node27" class="node">
<title>AppModule</title>
<polygon fill="#8dd3c7" stroke="#000000" points="2303.6571,-187 2300.6571,-191 2279.6571,-191 2276.6571,-187 2220.3429,-187 2220.3429,-151 2303.6571,-151 2303.6571,-187"/>
<text text-anchor="middle" x="2262" y="-164.8" font-family="Times,serif" font-size="14.00" fill="#000000">AppModule</text>
</g>
<!-- AppComponent&#45;&gt;AppModule -->
<g id="edge1" class="edge">
<title>AppComponent&#45;&gt;AppModule</title>
<path fill="none" stroke="#000000" d="M4312,-122.3802C4312,-146.2785 4312,-185 4312,-185 4312,-185 2313.8785,-185 2313.8785,-185"/>
<polygon fill="#000000" stroke="#000000" points="2313.8785,-181.5001 2303.8785,-185 2313.8784,-188.5001 2313.8785,-181.5001"/>
</g>
<!-- AtlasComponent -->
<g id="node2" class="node">
<title>AtlasComponent</title>
<polygon fill="#ffffb3" stroke="#000000" points="4241.3795,-122 4130.6205,-122 4130.6205,-86 4241.3795,-86 4241.3795,-122"/>
<text text-anchor="middle" x="4186" y="-99.8" font-family="Times,serif" font-size="14.00" fill="#000000">AtlasComponent</text>
</g>
<!-- AtlasComponent&#45;&gt;AppModule -->
<g id="edge2" class="edge">
<title>AtlasComponent&#45;&gt;AppModule</title>
<path fill="none" stroke="#000000" d="M4186,-122.0908C4186,-145.1328 4186,-182 4186,-182 4186,-182 2313.9748,-182 2313.9748,-182"/>
<polygon fill="#000000" stroke="#000000" points="2313.9748,-178.5001 2303.9748,-182 2313.9748,-185.5001 2313.9748,-178.5001"/>
</g>
<!-- AttributePipe -->
<g id="node3" class="node">
<title>AttributePipe</title>
<polygon fill="#ffffb3" stroke="#000000" points="4112.933,-122 4021.067,-122 4021.067,-86 4112.933,-86 4112.933,-122"/>
<text text-anchor="middle" x="4067" y="-99.8" font-family="Times,serif" font-size="14.00" fill="#000000">AttributePipe</text>
</g>
<!-- AttributePipe&#45;&gt;AppModule -->
<g id="edge3" class="edge">
<title>AttributePipe&#45;&gt;AppModule</title>
<path fill="none" stroke="#000000" d="M4067,-122.1554C4067,-144.3519 4067,-179 4067,-179 4067,-179 2313.9604,-179 2313.9604,-179"/>
<polygon fill="#000000" stroke="#000000" points="2313.9604,-175.5001 2303.9604,-179 2313.9604,-182.5001 2313.9604,-175.5001"/>
</g>
<!-- AutoRotateComponent -->
<g id="node4" class="node">
<title>AutoRotateComponent</title>
<polygon fill="#ffffb3" stroke="#000000" points="4002.8767,-122 3857.1233,-122 3857.1233,-86 4002.8767,-86 4002.8767,-122"/>
<text text-anchor="middle" x="3930" y="-99.8" font-family="Times,serif" font-size="14.00" fill="#000000">AutoRotateComponent</text>
</g>
<!-- AutoRotateComponent&#45;&gt;AppModule -->
<g id="edge4" class="edge">
<title>AutoRotateComponent&#45;&gt;AppModule</title>
<path fill="none" stroke="#000000" d="M3930,-122.1686C3930,-143.498 3930,-176 3930,-176 3930,-176 2314.0659,-176 2314.0659,-176"/>
<polygon fill="#000000" stroke="#000000" points="2314.066,-172.5001 2304.0659,-176 2314.0659,-179.5001 2314.066,-172.5001"/>
</g>
<!-- CollectionsInfoComponent -->
<g id="node5" class="node">
<title>CollectionsInfoComponent</title>
<polygon fill="#ffffb3" stroke="#000000" points="3839.4269,-122 3670.5731,-122 3670.5731,-86 3839.4269,-86 3839.4269,-122"/>
<text text-anchor="middle" x="3755" y="-99.8" font-family="Times,serif" font-size="14.00" fill="#000000">CollectionsInfoComponent</text>
</g>
<!-- CollectionsInfoComponent&#45;&gt;AppModule -->
<g id="edge5" class="edge">
<title>CollectionsInfoComponent&#45;&gt;AppModule</title>
<path fill="none" stroke="#000000" d="M3755,-122.0267C3755,-142.7672 3755,-174 3755,-174 3755,-174 2313.8828,-174 2313.8828,-174"/>
<polygon fill="#000000" stroke="#000000" points="2313.8828,-170.5001 2303.8828,-174 2313.8827,-177.5001 2313.8828,-170.5001"/>
</g>
<!-- CollectionsInfoOverlayComponent -->
<g id="node6" class="node">
<title>CollectionsInfoOverlayComponent</title>
<polygon fill="#ffffb3" stroke="#000000" points="3652.514,-122 3439.486,-122 3439.486,-86 3652.514,-86 3652.514,-122"/>
<text text-anchor="middle" x="3546" y="-99.8" font-family="Times,serif" font-size="14.00" fill="#000000">CollectionsInfoOverlayComponent</text>
</g>
<!-- CollectionsInfoOverlayComponent&#45;&gt;AppModule -->
<g id="edge6" class="edge">
<title>CollectionsInfoOverlayComponent&#45;&gt;AppModule</title>
<path fill="none" stroke="#000000" d="M3546,-122.308C3546,-142.1455 3546,-171 3546,-171 3546,-171 2313.991,-171 2313.991,-171"/>
<polygon fill="#000000" stroke="#000000" points="2313.991,-167.5001 2303.991,-171 2313.9909,-174.5001 2313.991,-167.5001"/>
</g>
<!-- DarkThemeComponent -->
<g id="node7" class="node">
<title>DarkThemeComponent</title>
<polygon fill="#ffffb3" stroke="#000000" points="3421.1867,-122 3272.8133,-122 3272.8133,-86 3421.1867,-86 3421.1867,-122"/>
<text text-anchor="middle" x="3347" y="-99.8" font-family="Times,serif" font-size="14.00" fill="#000000">DarkThemeComponent</text>
</g>
<!-- DarkThemeComponent&#45;&gt;AppModule -->
<g id="edge7" class="edge">
<title>DarkThemeComponent&#45;&gt;AppModule</title>
<path fill="none" stroke="#000000" d="M3347,-122.1686C3347,-141.0898 3347,-168 3347,-168 3347,-168 2313.8685,-168 2313.8685,-168"/>
<polygon fill="#000000" stroke="#000000" points="2313.8685,-164.5001 2303.8685,-168 2313.8684,-171.5001 2313.8685,-164.5001"/>
</g>
<!-- EventSelectorComponent -->
<g id="node8" class="node">
<title>EventSelectorComponent</title>
<polygon fill="#ffffb3" stroke="#000000" points="3254.8585,-122 3095.1415,-122 3095.1415,-86 3254.8585,-86 3254.8585,-122"/>
<text text-anchor="middle" x="3175" y="-99.8" font-family="Times,serif" font-size="14.00" fill="#000000">EventSelectorComponent</text>
</g>
<!-- EventSelectorComponent&#45;&gt;AppModule -->
<g id="edge8" class="edge">
<title>EventSelectorComponent&#45;&gt;AppModule</title>
<path fill="none" stroke="#000000" d="M3175,-122.302C3175,-140.2699 3175,-165 3175,-165 3175,-165 2313.903,-165 2313.903,-165"/>
<polygon fill="#000000" stroke="#000000" points="2313.903,-161.5001 2303.903,-165 2313.903,-168.5001 2313.903,-161.5001"/>
</g>
<!-- ExperimentInfoComponent -->
<g id="node9" class="node">
<title>ExperimentInfoComponent</title>
<polygon fill="#ffffb3" stroke="#000000" points="3076.9678,-122 2907.0322,-122 2907.0322,-86 3076.9678,-86 3076.9678,-122"/>
<text text-anchor="middle" x="2992" y="-99.8" font-family="Times,serif" font-size="14.00" fill="#000000">ExperimentInfoComponent</text>
</g>
<!-- ExperimentInfoComponent&#45;&gt;AppModule -->
<g id="edge9" class="edge">
<title>ExperimentInfoComponent&#45;&gt;AppModule</title>
<path fill="none" stroke="#000000" d="M2992,-122.0225C2992,-139.3734 2992,-163 2992,-163 2992,-163 2313.8699,-163 2313.8699,-163"/>
<polygon fill="#000000" stroke="#000000" points="2313.8699,-159.5001 2303.8699,-163 2313.8699,-166.5001 2313.8699,-159.5001"/>
</g>
<!-- GeometryComponent -->
<g id="node10" class="node">
<title>GeometryComponent</title>
<polygon fill="#ffffb3" stroke="#000000" points="2888.8104,-122 2751.1896,-122 2751.1896,-86 2888.8104,-86 2888.8104,-122"/>
<text text-anchor="middle" x="2820" y="-99.8" font-family="Times,serif" font-size="14.00" fill="#000000">GeometryComponent</text>
</g>
<!-- GeometryComponent&#45;&gt;AppModule -->
<g id="edge10" class="edge">
<title>GeometryComponent&#45;&gt;AppModule</title>
<path fill="none" stroke="#000000" d="M2820,-122.027C2820,-138.3976 2820,-160 2820,-160 2820,-160 2313.9407,-160 2313.9407,-160"/>
<polygon fill="#000000" stroke="#000000" points="2313.9407,-156.5001 2303.9407,-160 2313.9407,-163.5001 2313.9407,-156.5001"/>
</g>
<!-- HomeComponent -->
<g id="node11" class="node">
<title>HomeComponent</title>
<polygon fill="#ffffb3" stroke="#000000" points="2733.5451,-122 2618.4549,-122 2618.4549,-86 2733.5451,-86 2733.5451,-122"/>
<text text-anchor="middle" x="2676" y="-99.8" font-family="Times,serif" font-size="14.00" fill="#000000">HomeComponent</text>
</g>
<!-- HomeComponent&#45;&gt;AppModule -->
<g id="edge11" class="edge">
<title>HomeComponent&#45;&gt;AppModule</title>
<path fill="none" stroke="#000000" d="M2676,-122.2396C2676,-137.5706 2676,-157 2676,-157 2676,-157 2313.9748,-157 2313.9748,-157"/>
<polygon fill="#000000" stroke="#000000" points="2313.9749,-153.5001 2303.9748,-157 2313.9748,-160.5001 2313.9749,-153.5001"/>
</g>
<!-- IOOptionsDialogComponent -->
<g id="node12" class="node">
<title>IOOptionsDialogComponent</title>
<polygon fill="#ffffb3" stroke="#000000" points="2600.035,-122 2421.965,-122 2421.965,-86 2600.035,-86 2600.035,-122"/>
<text text-anchor="middle" x="2511" y="-99.8" font-family="Times,serif" font-size="14.00" fill="#000000">IOOptionsDialogComponent</text>
</g>
<!-- IOOptionsDialogComponent&#45;&gt;AppModule -->
<g id="edge12" class="edge">
<title>IOOptionsDialogComponent&#45;&gt;AppModule</title>
<path fill="none" stroke="#000000" d="M2511,-122.0511C2511,-136.373 2511,-154 2511,-154 2511,-154 2313.677,-154 2313.677,-154"/>
<polygon fill="#000000" stroke="#000000" points="2313.677,-150.5001 2303.677,-154 2313.677,-157.5001 2313.677,-150.5001"/>
</g>
<!-- IoOptionsComponent -->
<g id="node13" class="node">
<title>IoOptionsComponent</title>
<polygon fill="#ffffb3" stroke="#000000" points="2403.8258,-122 2266.1742,-122 2266.1742,-86 2403.8258,-86 2403.8258,-122"/>
<text text-anchor="middle" x="2335" y="-99.8" font-family="Times,serif" font-size="14.00" fill="#000000">IoOptionsComponent</text>
</g>
<!-- IoOptionsComponent&#45;&gt;AppModule -->
<g id="edge13" class="edge">
<title>IoOptionsComponent&#45;&gt;AppModule</title>
<path fill="none" stroke="#000000" d="M2285.0828,-122.1061C2285.0828,-122.1061 2285.0828,-140.991 2285.0828,-140.991"/>
<polygon fill="#000000" stroke="#000000" points="2281.5828,-140.9909 2285.0828,-150.991 2288.5828,-140.991 2281.5828,-140.9909"/>
</g>
<!-- LHCbComponent -->
<g id="node14" class="node">
<title>LHCbComponent</title>
<polygon fill="#ffffb3" stroke="#000000" points="2248.3287,-122 2131.6713,-122 2131.6713,-86 2248.3287,-86 2248.3287,-122"/>
<text text-anchor="middle" x="2190" y="-99.8" font-family="Times,serif" font-size="14.00" fill="#000000">LHCbComponent</text>
</g>
<!-- LHCbComponent&#45;&gt;AppModule -->
<g id="edge14" class="edge">
<title>LHCbComponent&#45;&gt;AppModule</title>
<path fill="none" stroke="#000000" d="M2234.168,-122.1061C2234.168,-122.1061 2234.168,-140.991 2234.168,-140.991"/>
<polygon fill="#000000" stroke="#000000" points="2230.668,-140.9909 2234.168,-150.991 2237.668,-140.991 2230.668,-140.9909"/>
</g>
<!-- MenuToggleComponent -->
<g id="node15" class="node">
<title>MenuToggleComponent</title>
<polygon fill="#ffffb3" stroke="#000000" points="2113.6498,-122 1960.3502,-122 1960.3502,-86 2113.6498,-86 2113.6498,-122"/>
<text text-anchor="middle" x="2037" y="-99.8" font-family="Times,serif" font-size="14.00" fill="#000000">MenuToggleComponent</text>
</g>
<!-- MenuToggleComponent&#45;&gt;AppModule -->
<g id="edge15" class="edge">
<title>MenuToggleComponent&#45;&gt;AppModule</title>
<path fill="none" stroke="#000000" d="M2037,-122.0511C2037,-136.373 2037,-154 2037,-154 2037,-154 2210.2065,-154 2210.2065,-154"/>
<polygon fill="#000000" stroke="#000000" points="2210.2066,-157.5001 2220.2065,-154 2210.2065,-150.5001 2210.2066,-157.5001"/>
</g>
<!-- NavComponent -->
<g id="node16" class="node">
<title>NavComponent</title>
<polygon fill="#ffffb3" stroke="#000000" points="1942.1542,-122 1837.8458,-122 1837.8458,-86 1942.1542,-86 1942.1542,-122"/>
<text text-anchor="middle" x="1890" y="-99.8" font-family="Times,serif" font-size="14.00" fill="#000000">NavComponent</text>
</g>
<!-- NavComponent&#45;&gt;AppModule -->
<g id="edge16" class="edge">
<title>NavComponent&#45;&gt;AppModule</title>
<path fill="none" stroke="#000000" d="M1890,-122.2396C1890,-137.5706 1890,-157 1890,-157 1890,-157 2210.05,-157 2210.05,-157"/>
<polygon fill="#000000" stroke="#000000" points="2210.05,-160.5001 2220.05,-157 2210.05,-153.5001 2210.05,-160.5001"/>
</g>
<!-- ObjectClippingComponent -->
<g id="node17" class="node">
<title>ObjectClippingComponent</title>
<polygon fill="#ffffb3" stroke="#000000" points="1819.6581,-122 1652.3419,-122 1652.3419,-86 1819.6581,-86 1819.6581,-122"/>
<text text-anchor="middle" x="1736" y="-99.8" font-family="Times,serif" font-size="14.00" fill="#000000">ObjectClippingComponent</text>
</g>
<!-- ObjectClippingComponent&#45;&gt;AppModule -->
<g id="edge17" class="edge">
<title>ObjectClippingComponent&#45;&gt;AppModule</title>
<path fill="none" stroke="#000000" d="M1736,-122.027C1736,-138.3976 1736,-160 1736,-160 1736,-160 2210.286,-160 2210.286,-160"/>
<polygon fill="#000000" stroke="#000000" points="2210.286,-163.5001 2220.286,-160 2210.286,-156.5001 2210.286,-163.5001"/>
</g>
<!-- ObjectSelectionComponent -->
<g id="node18" class="node">
<title>ObjectSelectionComponent</title>
<polygon fill="#ffffb3" stroke="#000000" points="1634.2478,-122 1463.7522,-122 1463.7522,-86 1634.2478,-86 1634.2478,-122"/>
<text text-anchor="middle" x="1549" y="-99.8" font-family="Times,serif" font-size="14.00" fill="#000000">ObjectSelectionComponent</text>
</g>
<!-- ObjectSelectionComponent&#45;&gt;AppModule -->
<g id="edge18" class="edge">
<title>ObjectSelectionComponent&#45;&gt;AppModule</title>
<path fill="none" stroke="#000000" d="M1549,-122.0225C1549,-139.3734 1549,-163 1549,-163 1549,-163 2210.3227,-163 2210.3227,-163"/>
<polygon fill="#000000" stroke="#000000" points="2210.3228,-166.5001 2220.3227,-163 2210.3227,-159.5001 2210.3228,-166.5001"/>
</g>
<!-- ObjectSelectionOverlayComponent -->
<g id="node19" class="node">
<title>ObjectSelectionOverlayComponent</title>
<polygon fill="#ffffb3" stroke="#000000" points="1445.8347,-122 1230.1653,-122 1230.1653,-86 1445.8347,-86 1445.8347,-122"/>
<text text-anchor="middle" x="1338" y="-99.8" font-family="Times,serif" font-size="14.00" fill="#000000">ObjectSelectionOverlayComponent</text>
</g>
<!-- ObjectSelectionOverlayComponent&#45;&gt;AppModule -->
<g id="edge19" class="edge">
<title>ObjectSelectionOverlayComponent&#45;&gt;AppModule</title>
<path fill="none" stroke="#000000" d="M1338,-122.302C1338,-140.2699 1338,-165 1338,-165 1338,-165 2210.2001,-165 2210.2001,-165"/>
<polygon fill="#000000" stroke="#000000" points="2210.2001,-168.5001 2220.2001,-165 2210.2001,-161.5001 2210.2001,-168.5001"/>
</g>
<!-- OverlayViewComponent -->
<g id="node20" class="node">
<title>OverlayViewComponent</title>
<polygon fill="#ffffb3" stroke="#000000" points="1212.238,-122 1055.762,-122 1055.762,-86 1212.238,-86 1212.238,-122"/>
<text text-anchor="middle" x="1134" y="-99.8" font-family="Times,serif" font-size="14.00" fill="#000000">OverlayViewComponent</text>
</g>
<!-- OverlayViewComponent&#45;&gt;AppModule -->
<g id="edge20" class="edge">
<title>OverlayViewComponent&#45;&gt;AppModule</title>
<path fill="none" stroke="#000000" d="M1134,-122.1686C1134,-141.0898 1134,-168 1134,-168 1134,-168 2210.1786,-168 2210.1786,-168"/>
<polygon fill="#000000" stroke="#000000" points="2210.1786,-171.5001 2220.1786,-168 2210.1785,-164.5001 2210.1786,-171.5001"/>
</g>
<!-- OverlayViewWindowComponent -->
<g id="node21" class="node">
<title>OverlayViewWindowComponent</title>
<polygon fill="#ffffb3" stroke="#000000" points="1037.4496,-122 832.5504,-122 832.5504,-86 1037.4496,-86 1037.4496,-122"/>
<text text-anchor="middle" x="935" y="-99.8" font-family="Times,serif" font-size="14.00" fill="#000000">OverlayViewWindowComponent</text>
</g>
<!-- OverlayViewWindowComponent&#45;&gt;AppModule -->
<g id="edge21" class="edge">
<title>OverlayViewWindowComponent&#45;&gt;AppModule</title>
<path fill="none" stroke="#000000" d="M935,-122.308C935,-142.1455 935,-171 935,-171 935,-171 2210.0938,-171 2210.0938,-171"/>
<polygon fill="#000000" stroke="#000000" points="2210.0939,-174.5001 2220.0938,-171 2210.0938,-167.5001 2210.0939,-174.5001"/>
</g>
<!-- PlaygroundComponent -->
<g id="node22" class="node">
<title>PlaygroundComponent</title>
<polygon fill="#ffffb3" stroke="#000000" points="814.8808,-122 669.1192,-122 669.1192,-86 814.8808,-86 814.8808,-122"/>
<text text-anchor="middle" x="742" y="-99.8" font-family="Times,serif" font-size="14.00" fill="#000000">PlaygroundComponent</text>
</g>
<!-- PlaygroundComponent&#45;&gt;AppModule -->
<g id="edge22" class="edge">
<title>PlaygroundComponent&#45;&gt;AppModule</title>
<path fill="none" stroke="#000000" d="M742,-122.0267C742,-142.7672 742,-174 742,-174 742,-174 2210.1586,-174 2210.1586,-174"/>
<polygon fill="#000000" stroke="#000000" points="2210.1586,-177.5001 2220.1586,-174 2210.1586,-170.5001 2210.1586,-177.5001"/>
</g>
<!-- PlaygroundVrComponent -->
<g id="node23" class="node">
<title>PlaygroundVrComponent</title>
<polygon fill="#ffffb3" stroke="#000000" points="651.1484,-122 490.8516,-122 490.8516,-86 651.1484,-86 651.1484,-122"/>
<text text-anchor="middle" x="571" y="-99.8" font-family="Times,serif" font-size="14.00" fill="#000000">PlaygroundVrComponent</text>
</g>
<!-- PlaygroundVrComponent&#45;&gt;AppModule -->
<g id="edge23" class="edge">
<title>PlaygroundVrComponent&#45;&gt;AppModule</title>
<path fill="none" stroke="#000000" d="M571,-122.1686C571,-143.498 571,-176 571,-176 571,-176 2210.1998,-176 2210.1998,-176"/>
<polygon fill="#000000" stroke="#000000" points="2210.1998,-179.5001 2220.1998,-176 2210.1997,-172.5001 2210.1998,-179.5001"/>
</g>
<!-- TrackmlComponent -->
<g id="node24" class="node">
<title>TrackmlComponent</title>
<polygon fill="#ffffb3" stroke="#000000" points="472.2562,-122 343.7438,-122 343.7438,-86 472.2562,-86 472.2562,-122"/>
<text text-anchor="middle" x="408" y="-99.8" font-family="Times,serif" font-size="14.00" fill="#000000">TrackmlComponent</text>
</g>
<!-- TrackmlComponent&#45;&gt;AppModule -->
<g id="edge24" class="edge">
<title>TrackmlComponent&#45;&gt;AppModule</title>
<path fill="none" stroke="#000000" d="M408,-122.1554C408,-144.3519 408,-179 408,-179 408,-179 2210.2362,-179 2210.2362,-179"/>
<polygon fill="#000000" stroke="#000000" points="2210.2363,-182.5001 2220.2362,-179 2210.2362,-175.5001 2210.2363,-182.5001"/>
</g>
<!-- UiMenuComponent -->
<g id="node25" class="node">
<title>UiMenuComponent</title>
<polygon fill="#ffffb3" stroke="#000000" points="325.9888,-122 198.0112,-122 198.0112,-86 325.9888,-86 325.9888,-122"/>
<text text-anchor="middle" x="262" y="-99.8" font-family="Times,serif" font-size="14.00" fill="#000000">UiMenuComponent</text>
</g>
<!-- UiMenuComponent&#45;&gt;AppModule -->
<g id="edge25" class="edge">
<title>UiMenuComponent&#45;&gt;AppModule</title>
<path fill="none" stroke="#000000" d="M262,-122.0908C262,-145.1328 262,-182 262,-182 262,-182 2210.2272,-182 2210.2272,-182"/>
<polygon fill="#000000" stroke="#000000" points="2210.2272,-185.5001 2220.2272,-182 2210.2271,-178.5001 2210.2272,-185.5001"/>
</g>
<!-- ViewOptionsComponent -->
<g id="node26" class="node">
<title>ViewOptionsComponent</title>
<polygon fill="#ffffb3" stroke="#000000" points="179.9832,-122 24.0168,-122 24.0168,-86 179.9832,-86 179.9832,-122"/>
<text text-anchor="middle" x="102" y="-99.8" font-family="Times,serif" font-size="14.00" fill="#000000">ViewOptionsComponent</text>
</g>
<!-- ViewOptionsComponent&#45;&gt;AppModule -->
<g id="edge26" class="edge">
<title>ViewOptionsComponent&#45;&gt;AppModule</title>
<path fill="none" stroke="#000000" d="M102,-122.3802C102,-146.2785 102,-185 102,-185 102,-185 2210.3021,-185 2210.3021,-185"/>
<polygon fill="#000000" stroke="#000000" points="2210.3021,-188.5001 2220.3021,-185 2210.3021,-181.5001 2210.3021,-188.5001"/>
</g>
<!-- AppComponent  -->
<g id="node28" class="node">
<title>AppComponent </title>
<polygon fill="#80b1d3" stroke="#000000" points="2316.439,-252 2207.561,-252 2207.561,-216 2316.439,-216 2316.439,-252"/>
<text text-anchor="middle" x="2262" y="-229.8" font-family="Times,serif" font-size="14.00" fill="#000000">AppComponent </text>
</g>
<!-- AppModule&#45;&gt;AppComponent  -->
<g id="edge27" class="edge">
<title>AppModule&#45;&gt;AppComponent </title>
<path fill="none" stroke="#000000" stroke-dasharray="1,5" d="M2262,-187.1061C2262,-187.1061 2262,-205.991 2262,-205.991"/>
<polygon fill="#000000" stroke="#000000" points="2258.5001,-205.9909 2262,-215.991 2265.5001,-205.991 2258.5001,-205.9909"/>
</g>
</g>
</svg>
