<?xml version="1.0" encoding="UTF-8" standalone="no"?>
<!DOCTYPE svg PUBLIC "-//W3C//DTD SVG 1.1//EN"
 "http://www.w3.org/Graphics/SVG/1.1/DTD/svg11.dtd">
<!-- Generated by graphviz version 2.47.0 (20210316.0004)
 -->
<!-- Title: dependencies Pages: 1 -->
<svg width="1453pt" height="284pt"
 viewBox="0.00 0.00 1453.00 284.00" xmlns="http://www.w3.org/2000/svg" xmlns:xlink="http://www.w3.org/1999/xlink">
<g id="graph0" class="graph" transform="scale(1 1) rotate(0) translate(4 280)">
<title>dependencies</title>
<polygon fill="white" stroke="transparent" points="-4,4 -4,-280 1449,-280 1449,4 -4,4"/>
<text text-anchor="start" x="701.51" y="-42.4" font-family="Times-12" font-weight="bold" font-size="14.00">Legend</text>
<polygon fill="#ffffb3" stroke="transparent" points="488.5,-10 488.5,-30 508.5,-30 508.5,-10 488.5,-10"/>
<text text-anchor="start" x="512.13" y="-15.4" font-family="Times-12" font-size="14.00"> &#160;Declarations</text>
<polygon fill="#8dd3c7" stroke="transparent" points="601.5,-10 601.5,-30 621.5,-30 621.5,-10 601.5,-10"/>
<text text-anchor="start" x="625.23" y="-15.4" font-family="Times-12" font-size="14.00"> &#160;Module</text>
<polygon fill="#80b1d3" stroke="transparent" points="687.5,-10 687.5,-30 707.5,-30 707.5,-10 687.5,-10"/>
<text text-anchor="start" x="711.28" y="-15.4" font-family="Times-12" font-size="14.00"> &#160;Bootstrap</text>
<polygon fill="#fdb462" stroke="transparent" points="784.5,-10 784.5,-30 804.5,-30 804.5,-10 784.5,-10"/>
<text text-anchor="start" x="808.17" y="-15.4" font-family="Times-12" font-size="14.00"> &#160;Providers</text>
<polygon fill="#fb8072" stroke="transparent" points="880.5,-10 880.5,-30 900.5,-30 900.5,-10 880.5,-10"/>
<text text-anchor="start" x="904.23" y="-15.4" font-family="Times-12" font-size="14.00"> &#160;Exports</text>
<g id="clust1" class="cluster">
<title>cluster_AppModule</title>
<polygon fill="none" stroke="black" stroke-dasharray="1,5" points="8,-70 8,-268 1437,-268 1437,-70 8,-70"/>
</g>
<g id="clust2" class="cluster">
<title>cluster_AppModule_declarations</title>
<polygon fill="none" stroke="black" points="160,-78 160,-130 1429,-130 1429,-78 160,-78"/>
</g>
<g id="clust12" class="cluster">
<title>cluster_AppModule_imports</title>
<polygon fill="none" stroke="black" points="16,-78 16,-130 152,-130 152,-78 16,-78"/>
</g>
<g id="clust14" class="cluster">
<title>cluster_AppModule_bootstrap</title>
<polygon fill="none" stroke="black" points="698,-208 698,-260 822,-260 822,-208 698,-208"/>
</g>
<!-- AppComponent -->
<g id="node1" class="node">
<title>AppComponent</title>
<polygon fill="#ffffb3" stroke="black" points="1420.94,-122 1315.06,-122 1315.06,-86 1420.94,-86 1420.94,-122"/>
<text text-anchor="middle" x="1368" y="-99.8" font-family="Times,serif" font-size="14.00">AppComponent</text>
</g>
<!-- AppModule -->
<g id="node10" class="node">
<title>AppModule</title>
<polygon fill="#8dd3c7" stroke="black" points="801.66,-187 798.66,-191 777.66,-191 774.66,-187 718.34,-187 718.34,-151 801.66,-151 801.66,-187"/>
<text text-anchor="middle" x="760" y="-164.8" font-family="Times,serif" font-size="14.00">AppModule</text>
</g>
<!-- AppComponent&#45;&gt;AppModule -->
<g id="edge1" class="edge">
<title>AppComponent&#45;&gt;AppModule</title>
<path fill="none" stroke="black" d="M1368,-122.01C1368,-144.49 1368,-180 1368,-180 1368,-180 811.79,-180 811.79,-180"/>
<polygon fill="black" stroke="black" points="811.79,-176.5 801.79,-180 811.79,-183.5 811.79,-176.5"/>
</g>
<!-- AtlasComponent -->
<g id="node2" class="node">
<title>AtlasComponent</title>
<polygon fill="#ffffb3" stroke="black" points="1297.38,-122 1186.62,-122 1186.62,-86 1297.38,-86 1297.38,-122"/>
<text text-anchor="middle" x="1242" y="-99.8" font-family="Times,serif" font-size="14.00">AtlasComponent</text>
</g>
<!-- AtlasComponent&#45;&gt;AppModule -->
<g id="edge2" class="edge">
<title>AtlasComponent&#45;&gt;AppModule</title>
<path fill="none" stroke="black" d="M1242,-122.13C1242,-142.57 1242,-173 1242,-173 1242,-173 811.93,-173 811.93,-173"/>
<polygon fill="black" stroke="black" points="811.93,-169.5 801.93,-173 811.93,-176.5 811.93,-169.5"/>
</g>
<!-- CMSComponent -->
<g id="node3" class="node">
<title>CMSComponent</title>
<polygon fill="#ffffb3" stroke="black" points="1168.4,-122 1057.6,-122 1057.6,-86 1168.4,-86 1168.4,-122"/>
<text text-anchor="middle" x="1113" y="-99.8" font-family="Times,serif" font-size="14.00">CMSComponent</text>
</g>
<!-- CMSComponent&#45;&gt;AppModule -->
<g id="edge3" class="edge">
<title>CMSComponent&#45;&gt;AppModule</title>
<path fill="none" stroke="black" d="M1113,-122.27C1113,-140.56 1113,-166 1113,-166 1113,-166 811.88,-166 811.88,-166"/>
<polygon fill="black" stroke="black" points="811.88,-162.5 801.88,-166 811.88,-169.5 811.88,-162.5"/>
</g>
<!-- GeometryComponent -->
<g id="node4" class="node">
<title>GeometryComponent</title>
<polygon fill="#ffffb3" stroke="black" points="1039.81,-122 902.19,-122 902.19,-86 1039.81,-86 1039.81,-122"/>
<text text-anchor="middle" x="971" y="-99.8" font-family="Times,serif" font-size="14.00">GeometryComponent</text>
</g>
<!-- GeometryComponent&#45;&gt;AppModule -->
<g id="edge4" class="edge">
<title>GeometryComponent&#45;&gt;AppModule</title>
<path fill="none" stroke="black" d="M971,-122.01C971,-138.05 971,-159 971,-159 971,-159 811.69,-159 811.69,-159"/>
<polygon fill="black" stroke="black" points="811.69,-155.5 801.69,-159 811.69,-162.5 811.69,-155.5"/>
</g>
<!-- HomeComponent -->
<g id="node5" class="node">
<title>HomeComponent</title>
<polygon fill="#ffffb3" stroke="black" points="884.55,-122 769.45,-122 769.45,-86 884.55,-86 884.55,-122"/>
<text text-anchor="middle" x="827" y="-99.8" font-family="Times,serif" font-size="14.00">HomeComponent</text>
</g>
<!-- HomeComponent&#45;&gt;AppModule -->
<g id="edge5" class="edge">
<title>HomeComponent&#45;&gt;AppModule</title>
<path fill="none" stroke="black" d="M785.53,-122.11C785.53,-122.11 785.53,-140.99 785.53,-140.99"/>
<polygon fill="black" stroke="black" points="782.03,-140.99 785.53,-150.99 789.03,-140.99 782.03,-140.99"/>
</g>
<!-- LHCbComponent -->
<g id="node6" class="node">
<title>LHCbComponent</title>
<polygon fill="#ffffb3" stroke="black" points="751.33,-122 634.67,-122 634.67,-86 751.33,-86 751.33,-122"/>
<text text-anchor="middle" x="693" y="-99.8" font-family="Times,serif" font-size="14.00">LHCbComponent</text>
</g>
<!-- LHCbComponent&#45;&gt;AppModule -->
<g id="edge6" class="edge">
<title>LHCbComponent&#45;&gt;AppModule</title>
<path fill="none" stroke="black" d="M734.67,-122.11C734.67,-122.11 734.67,-140.99 734.67,-140.99"/>
<polygon fill="black" stroke="black" points="731.17,-140.99 734.67,-150.99 738.17,-140.99 731.17,-140.99"/>
</g>
<!-- PlaygroundComponent -->
<g id="node7" class="node">
<title>PlaygroundComponent</title>
<polygon fill="#ffffb3" stroke="black" points="616.88,-122 471.12,-122 471.12,-86 616.88,-86 616.88,-122"/>
<text text-anchor="middle" x="544" y="-99.8" font-family="Times,serif" font-size="14.00">PlaygroundComponent</text>
</g>
<!-- PlaygroundComponent&#45;&gt;AppModule -->
<g id="edge7" class="edge">
<title>PlaygroundComponent&#45;&gt;AppModule</title>
<path fill="none" stroke="black" d="M544,-122.01C544,-138.05 544,-159 544,-159 544,-159 708.1,-159 708.1,-159"/>
<polygon fill="black" stroke="black" points="708.1,-162.5 718.1,-159 708.1,-155.5 708.1,-162.5"/>
</g>
<!-- TrackmlComponent -->
<g id="node8" class="node">
<title>TrackmlComponent</title>
<polygon fill="#ffffb3" stroke="black" points="453.26,-122 324.74,-122 324.74,-86 453.26,-86 453.26,-122"/>
<text text-anchor="middle" x="389" y="-99.8" font-family="Times,serif" font-size="14.00">TrackmlComponent</text>
</g>
<!-- TrackmlComponent&#45;&gt;AppModule -->
<g id="edge8" class="edge">
<title>TrackmlComponent&#45;&gt;AppModule</title>
<path fill="none" stroke="black" d="M389,-122.27C389,-140.56 389,-166 389,-166 389,-166 708.16,-166 708.16,-166"/>
<polygon fill="black" stroke="black" points="708.16,-169.5 718.16,-166 708.16,-162.5 708.16,-169.5"/>
</g>
<!-- VPToggleComponent -->
<g id="node9" class="node">
<title>VPToggleComponent</title>
<polygon fill="#ffffb3" stroke="black" points="306.38,-122 167.62,-122 167.62,-86 306.38,-86 306.38,-122"/>
<text text-anchor="middle" x="237" y="-99.8" font-family="Times,serif" font-size="14.00">VPToggleComponent</text>
</g>
<!-- VPToggleComponent&#45;&gt;AppModule -->
<g id="edge9" class="edge">
<title>VPToggleComponent&#45;&gt;AppModule</title>
<path fill="none" stroke="black" d="M237,-122.13C237,-142.57 237,-173 237,-173 237,-173 708.08,-173 708.08,-173"/>
<polygon fill="black" stroke="black" points="708.08,-176.5 718.08,-173 708.08,-169.5 708.08,-176.5"/>
</g>
<!-- AppComponent  -->
<g id="node12" class="node">
<title>AppComponent </title>
<polygon fill="#80b1d3" stroke="black" points="814.44,-252 705.56,-252 705.56,-216 814.44,-216 814.44,-252"/>
<text text-anchor="middle" x="760" y="-229.8" font-family="Times,serif" font-size="14.00">AppComponent </text>
</g>
<!-- AppModule&#45;&gt;AppComponent  -->
<g id="edge11" class="edge">
<title>AppModule&#45;&gt;AppComponent </title>
<path fill="none" stroke="black" stroke-dasharray="1,5" d="M760,-187.11C760,-187.11 760,-205.99 760,-205.99"/>
<polygon fill="black" stroke="black" points="756.5,-205.99 760,-215.99 763.5,-205.99 756.5,-205.99"/>
</g>
<!-- PhoenixUIModule -->
<g id="node11" class="node">
<title>PhoenixUIModule</title>
<polygon fill="#8dd3c7" stroke="black" points="144.2,-122 141.2,-126 120.2,-126 117.2,-122 23.8,-122 23.8,-86 144.2,-86 144.2,-122"/>
<text text-anchor="middle" x="84" y="-99.8" font-family="Times,serif" font-size="14.00">PhoenixUIModule</text>
</g>
<!-- PhoenixUIModule&#45;&gt;AppModule -->
<g id="edge10" class="edge">
<title>PhoenixUIModule&#45;&gt;AppModule</title>
<path fill="none" stroke="black" d="M84,-122.01C84,-144.49 84,-180 84,-180 84,-180 708.22,-180 708.22,-180"/>
<polygon fill="black" stroke="black" points="708.22,-183.5 718.22,-180 708.22,-176.5 708.22,-183.5"/>
</g>
</g>
</svg>
