{"asset":{"version":"2.0","generator":"THREE.GLTFExporter"},"scenes":[{"nodes":[5],"name":"AuxScene"}],"scene":0,"nodes":[{"name":"_dd_Structure_LHCb_MagnetRegion_Magnet_UpperCoil0x18b2fdb0","mesh":0},{"matrix":[1,0,0,0,0,0.9689124217106447,-0.24740395925452321,0,0,0.24740395925452321,0.9689124217106447,0,0,377.971456316644,5501.11257059725,1],"children":[0]},{"name":"_dd_Structure_LHCb_MagnetRegion_Magnet_LowerCoil0x18b2fe80","mesh":1},{"matrix":[-1,-1.1865754959020516e-16,-3.0298246679743406e-17,0,1.2246467991473532e-16,-0.9689124217106446,-0.24740395925452324,0,3.0814879110195774e-33,-0.24740395925452324,0.9689124217106447,0,0,-377.971456316644,5501.11257059725,1],"children":[2]},{"children":[1,3]},{"children":[4]}],"bufferViews":[{"buffer":0,"byteOffset":0,"byteLength":38088,"target":34962,"byteStride":12},{"buffer":0,"byteOffset":38088,"byteLength":38088,"target":34962,"byteStride":12}],"buffers":[{"byteLength":76176,"uri":"data:application/octet-stream;base64,"}],"accessors":[{"bufferView":0,"componentType":5126,"count":3174,"max":[3656.55712890625,2134,2274.5],"min":[-3656.55712890625,-358.4992370605469,-2274.5],"type":"VEC3"},{"bufferView":1,"componentType":5126,"count":3174,"max":[1,1,1],"min":[-1,-1,-1],"type":"VEC3"}],"materials":[{"pbrMetallicRoughness":{"baseColorFactor":[0.803921568627451,0.803921568627451,1,1],"metallicFactor":0.5,"roughnessFactor":0.5}},{"pbrMetallicRoughness":{"baseColorFactor":[0.803921568627451,0.803921568627451,1,1],"metallicFactor":0.5,"roughnessFactor":0.5}}],"meshes":[{"primitives":[{"mode":4,"attributes":{"POSITION":0,"NORMAL":1},"material":0}]},{"primitives":[{"mode":4,"attributes":{"POSITION":0,"NORMAL":1},"material":1}]}]}