{"asset":{"version":"2.0","generator":"THREE.GLTFExporter"},"scenes":[{"nodes":[9],"name":"AuxScene"}],"scene":0,"nodes":[{"name":"_dd_Structure_LHCb_MagnetRegion_Magnet_Left_Vertical_Part0x18b2eef0","mesh":0},{"matrix":[1,0,0,0,0,1,0,0,0,0,1,0,-4350,0,5046,1],"children":[0]},{"name":"_dd_Structure_LHCb_MagnetRegion_Magnet_Right_Vertical_Part0x18b2ef50","mesh":1},{"matrix":[-1,-1.2246467991473532e-16,0,0,1.2246467991473532e-16,-1,0,0,0,0,1,0,4350,0,5046,1],"children":[2]},{"name":"_dd_Structure_LHCb_MagnetRegion_Magnet_Upper_Horizontal_Part0x18b2bd10","mesh":2},{"matrix":[2.220446049250313e-16,0.9689124217106447,-0.2474039592545232,0,0,0.2474039592545232,0.9689124217106446,0,1,-1.6653345369377348e-16,0,0,0,2734.44599911631,4821.26993328048,1],"children":[4]},{"name":"_dd_Structure_LHCb_MagnetRegion_Magnet_Lower_Horizontal_Part0x18b2be40","mesh":3},{"matrix":[0,-0.9689124217106431,-0.24740395925453018,0,5.551115123125783e-17,-0.2474039592545303,0.9689124217106431,0,-1,-5.551115123125783e-17,0,0,0,-2734.44599911631,4821.26993328048,1],"children":[6]},{"children":[1,3,5,7]},{"children":[8]}],"bufferViews":[{"buffer":0,"byteOffset":0,"byteLength":1152,"target":34962,"byteStride":12},{"buffer":0,"byteOffset":1152,"byteLength":1152,"target":34962,"byteStride":12},{"buffer":0,"byteOffset":2304,"byteLength":1584,"target":34962,"byteStride":12},{"buffer":0,"byteOffset":3888,"byteLength":1584,"target":34962,"byteStride":12}],"buffers":[{"byteLength":5472,"uri":"data:application/octet-stream;base64,"}],"accessors":[{"bufferView":0,"componentType":5126,"count":96,"max":[1150,2000,1550],"min":[-1150,-2000,-1550],"type":"VEC3"},{"bufferView":1,"componentType":5126,"count":96,"max":[1,1,1],"min":[-1,-1,-1],"type":"VEC3"},{"bufferView":2,"componentType":5126,"count":132,"max":[1657.2557373046875,1350,5500],"min":[-1312.5557861328125,-1350,-5500],"type":"VEC3"},{"bufferView":3,"componentType":5126,"count":132,"max":[0.9689134359359741,1,1],"min":[-1,-1,-1],"type":"VEC3"}],"materials":[{"pbrMetallicRoughness":{"baseColorFactor":[0.6039215686274509,0.6039215686274509,0.803921568627451,1],"metallicFactor":0.5,"roughnessFactor":0.5}},{"pbrMetallicRoughness":{"baseColorFactor":[0.6039215686274509,0.6039215686274509,0.803921568627451,1],"metallicFactor":0.5,"roughnessFactor":0.5}},{"pbrMetallicRoughness":{"baseColorFactor":[0.6039215686274509,0.6039215686274509,0.803921568627451,1],"metallicFactor":0.5,"roughnessFactor":0.5}},{"pbrMetallicRoughness":{"baseColorFactor":[0.6039215686274509,0.6039215686274509,0.803921568627451,1],"metallicFactor":0.5,"roughnessFactor":0.5}}],"meshes":[{"primitives":[{"mode":4,"attributes":{"POSITION":0,"NORMAL":1},"material":0}]},{"primitives":[{"mode":4,"attributes":{"POSITION":0,"NORMAL":1},"material":1}]},{"primitives":[{"mode":4,"attributes":{"POSITION":2,"NORMAL":3},"material":2}]},{"primitives":[{"mode":4,"attributes":{"POSITION":2,"NORMAL":3},"material":3}]}]}