<svg xmlns="http://www.w3.org/2000/svg" xmlns:xlink="http://www.w3.org/1999/xlink" viewBox="0 0 1156.22 236.16"><defs><style>.cls-1,.cls-10,.cls-11,.cls-12,.cls-13,.cls-14,.cls-15,.cls-16,.cls-17,.cls-18,.cls-19,.cls-20,.cls-21,.cls-22,.cls-23,.cls-24,.cls-25,.cls-26,.cls-27,.cls-28,.cls-29,.cls-3,.cls-30,.cls-31,.cls-32,.cls-33,.cls-34,.cls-35,.cls-36,.cls-37,.cls-38,.cls-39,.cls-4,.cls-40,.cls-5,.cls-6,.cls-7,.cls-8,.cls-9{fill:none;stroke-miterlimit:10;}.cls-1,.cls-3,.cls-4,.cls-5,.cls-6,.cls-7{stroke-width:14px;}.cls-1{stroke:url(#Degradado_sin_nombre_9);}.cls-2{fill:url(#Degradado_sin_nombre_5);}.cls-3{stroke:#00a7ba;}.cls-4{stroke:url(#Degradado_sin_nombre_28);}.cls-5{stroke:url(#Degradado_sin_nombre_28-2);}.cls-6{stroke:url(#Degradado_sin_nombre_76);}.cls-7{stroke:url(#Degradado_sin_nombre_39);}.cls-10,.cls-11,.cls-12,.cls-13,.cls-14,.cls-15,.cls-16,.cls-17,.cls-18,.cls-19,.cls-20,.cls-21,.cls-22,.cls-23,.cls-24,.cls-25,.cls-26,.cls-27,.cls-28,.cls-29,.cls-30,.cls-31,.cls-32,.cls-33,.cls-34,.cls-35,.cls-36,.cls-37,.cls-38,.cls-39,.cls-40,.cls-8,.cls-9{stroke-linecap:round;stroke-width:5px;}.cls-8{stroke:url(#Degradado_sin_nombre_80);}.cls-9{stroke:url(#Degradado_sin_nombre_80-2);}.cls-10{stroke:url(#Degradado_sin_nombre_80-3);}.cls-11{stroke:url(#Degradado_sin_nombre_80-4);}.cls-12{stroke:url(#Degradado_sin_nombre_80-5);}.cls-13{stroke:url(#Degradado_sin_nombre_80-6);}.cls-14{stroke:url(#Degradado_sin_nombre_80-7);}.cls-15{stroke:url(#Degradado_sin_nombre_80-8);}.cls-16{stroke:url(#Degradado_sin_nombre_80-9);}.cls-17{stroke:url(#Degradado_sin_nombre_80-10);}.cls-18{stroke:url(#Degradado_sin_nombre_80-11);}.cls-19{stroke:url(#Degradado_sin_nombre_80-12);}.cls-20{stroke:url(#Degradado_sin_nombre_80-13);}.cls-21{stroke:url(#Degradado_sin_nombre_80-14);}.cls-22{stroke:url(#Degradado_sin_nombre_80-15);}.cls-23{stroke:url(#Degradado_sin_nombre_80-16);}.cls-24{stroke:url(#Degradado_sin_nombre_80-17);}.cls-25{stroke:url(#Degradado_sin_nombre_80-18);}.cls-26{stroke:url(#Degradado_sin_nombre_80-19);}.cls-27{stroke:url(#Degradado_sin_nombre_80-20);}.cls-28{stroke:url(#Degradado_sin_nombre_80-21);}.cls-29{stroke:url(#Degradado_sin_nombre_80-22);}.cls-30{stroke:url(#Degradado_sin_nombre_80-23);}.cls-31{stroke:url(#Degradado_sin_nombre_80-24);}.cls-32{stroke:url(#Degradado_sin_nombre_80-25);}.cls-33{stroke:url(#Degradado_sin_nombre_80-26);}.cls-34{stroke:url(#Degradado_sin_nombre_80-27);}.cls-35{stroke:url(#Degradado_sin_nombre_80-28);}.cls-36{stroke:url(#Degradado_sin_nombre_80-29);}.cls-37{stroke:url(#Degradado_sin_nombre_80-30);}.cls-38{stroke:url(#Degradado_sin_nombre_80-31);}.cls-39{stroke:url(#Degradado_sin_nombre_80-32);}.cls-40{stroke:url(#Degradado_sin_nombre_80-33);}</style><linearGradient id="Degradado_sin_nombre_9" x1="557.81" y1="117.37" x2="705.84" y2="117.37" gradientUnits="userSpaceOnUse"><stop offset="0" stop-color="#00a7ba"/><stop offset="0.01" stop-color="#00a7ba"/><stop offset="0.26" stop-color="#00b6b6"/><stop offset="0.55" stop-color="#00bfb4"/><stop offset="1" stop-color="#00c2b3"/></linearGradient><linearGradient id="Degradado_sin_nombre_5" y1="116.79" x2="137.28" y2="116.79" gradientUnits="userSpaceOnUse"><stop offset="0" stop-color="#118ab2"/><stop offset="0.42" stop-color="#0f8db3"/><stop offset="0.72" stop-color="#0a96b5"/><stop offset="0.98" stop-color="#01a5ba"/><stop offset="1" stop-color="#00a7ba"/></linearGradient><linearGradient id="Degradado_sin_nombre_28" x1="740.01" y1="115.78" x2="879.56" y2="115.78" gradientUnits="userSpaceOnUse"><stop offset="0" stop-color="#00c2b3"/><stop offset="0.2" stop-color="#13c7af"/><stop offset="1" stop-color="#5bd99e"/></linearGradient><linearGradient id="Degradado_sin_nombre_28-2" x1="743.45" y1="117.09" x2="881.17" y2="117.09" xlink:href="#Degradado_sin_nombre_28"/><linearGradient id="Degradado_sin_nombre_76" x1="983.01" y1="115.56" x2="1156.22" y2="115.56" gradientUnits="userSpaceOnUse"><stop offset="0" stop-color="#a9ec83"/><stop offset="0.05" stop-color="#adec7e"/><stop offset="0.69" stop-color="#dee948"/><stop offset="1" stop-color="#f1e833"/></linearGradient><linearGradient id="Degradado_sin_nombre_39" x1="946.79" y1="116.51" x2="960.79" y2="116.51" gradientUnits="userSpaceOnUse"><stop offset="0" stop-color="#5bd99e"/><stop offset="1" stop-color="#a9ec83"/></linearGradient><radialGradient id="Degradado_sin_nombre_80" cx="485.02" cy="73.08" r="42.86" gradientTransform="translate(0 -36.54) scale(1 1.5)" gradientUnits="userSpaceOnUse"><stop offset="0" stop-color="#1e8bb0"/><stop offset="0.2" stop-color="#00a7ba"/><stop offset="0.4" stop-color="#00c2b3"/><stop offset="0.6" stop-color="#5bd99e"/><stop offset="0.8" stop-color="#a9ec83"/><stop offset="1" stop-color="#f1e833"/></radialGradient><radialGradient id="Degradado_sin_nombre_80-2" cx="466.79" cy="87.2" r="25.72" gradientTransform="translate(0 -43.6) scale(1 1.5)" xlink:href="#Degradado_sin_nombre_80"/><radialGradient id="Degradado_sin_nombre_80-3" cx="461.12" cy="60.98" r="42.55" gradientTransform="translate(0 -30.49) scale(1 1.5)" xlink:href="#Degradado_sin_nombre_80"/><radialGradient id="Degradado_sin_nombre_80-4" cx="453.55" cy="119.4" r="2.59" gradientTransform="translate(0 -59.7) scale(1 1.5)" xlink:href="#Degradado_sin_nombre_80"/><radialGradient id="Degradado_sin_nombre_80-5" cx="502.47" cy="101.17" r="39.81" gradientTransform="translate(0 -50.59) scale(1 1.5)" xlink:href="#Degradado_sin_nombre_80"/><radialGradient id="Degradado_sin_nombre_80-6" cx="412.66" cy="146.4" r="36.89" gradientTransform="translate(0 -73.2) scale(1 1.5)" xlink:href="#Degradado_sin_nombre_80"/><radialGradient id="Degradado_sin_nombre_80-7" cx="414.19" cy="78.7" r="43.11" gradientTransform="translate(0 -39.35) scale(1 1.5)" xlink:href="#Degradado_sin_nombre_80"/><radialGradient id="Degradado_sin_nombre_80-8" cx="502.01" cy="90.15" r="42.67" gradientTransform="translate(0 -45.07) scale(1 1.5)" xlink:href="#Degradado_sin_nombre_80"/><radialGradient id="Degradado_sin_nombre_80-9" cx="428.78" cy="68.54" r="42.55" gradientTransform="translate(0 -34.27) scale(1 1.5)" xlink:href="#Degradado_sin_nombre_80"/><radialGradient id="Degradado_sin_nombre_80-10" cx="467.2" cy="176.38" r="42.66" gradientTransform="translate(0 -88.19) scale(1 1.5)" xlink:href="#Degradado_sin_nombre_80"/><radialGradient id="Degradado_sin_nombre_80-11" cx="479.65" cy="171.65" r="42.89" gradientTransform="translate(0 -85.82) scale(1 1.5)" xlink:href="#Degradado_sin_nombre_80"/><radialGradient id="Degradado_sin_nombre_80-12" cx="483.63" cy="146.35" r="31.02" gradientTransform="translate(0 -73.17) scale(1 1.5)" xlink:href="#Degradado_sin_nombre_80"/><radialGradient id="Degradado_sin_nombre_80-13" cx="486.35" cy="135.79" r="28" gradientTransform="translate(0 -67.9) scale(1 1.5)" xlink:href="#Degradado_sin_nombre_80"/><radialGradient id="Degradado_sin_nombre_80-14" cx="448.53" cy="159.44" r="30.81" gradientTransform="translate(0 -79.72) scale(1 1.5)" xlink:href="#Degradado_sin_nombre_80"/><radialGradient id="Degradado_sin_nombre_80-15" cx="421.13" cy="167.77" r="43.24" gradientTransform="translate(0 -83.88) scale(1 1.5)" xlink:href="#Degradado_sin_nombre_80"/><radialGradient id="Degradado_sin_nombre_80-16" cx="417.52" cy="165.46" r="43.06" gradientTransform="translate(0 -82.73) scale(1 1.5)" xlink:href="#Degradado_sin_nombre_80"/><radialGradient id="Degradado_sin_nombre_80-17" cx="401.76" cy="138.62" r="41.59" gradientTransform="translate(0 -69.31) scale(1 1.5)" xlink:href="#Degradado_sin_nombre_80"/><radialGradient id="Degradado_sin_nombre_80-18" cx="405.38" cy="86.38" r="43.43" gradientTransform="translate(0 -43.19) scale(1 1.5)" xlink:href="#Degradado_sin_nombre_80"/><radialGradient id="Degradado_sin_nombre_80-19" cx="416.78" cy="104.23" r="30.72" gradientTransform="translate(0 -52.11) scale(1 1.5)" xlink:href="#Degradado_sin_nombre_80"/><radialGradient id="Degradado_sin_nombre_80-20" cx="418.45" cy="117.58" r="26.7" gradientTransform="translate(0 -58.79) scale(1 1.5)" xlink:href="#Degradado_sin_nombre_80"/><radialGradient id="Degradado_sin_nombre_80-21" cx="409.18" cy="142.73" r="36.49" gradientTransform="translate(0 -71.37) scale(1 1.5)" xlink:href="#Degradado_sin_nombre_80"/><radialGradient id="Degradado_sin_nombre_80-22" cx="443.99" cy="177.95" r="42.91" gradientTransform="translate(0 -88.97) scale(1 1.5)" xlink:href="#Degradado_sin_nombre_80"/><radialGradient id="Degradado_sin_nombre_80-23" cx="483.5" cy="170.93" r="42.09" gradientTransform="translate(0 -85.46) scale(1 1.5)" xlink:href="#Degradado_sin_nombre_80"/><radialGradient id="Degradado_sin_nombre_80-24" cx="511.89" cy="129.92" r="41.14" gradientTransform="translate(0 -64.96) scale(1 1.5)" xlink:href="#Degradado_sin_nombre_80"/><radialGradient id="Degradado_sin_nombre_80-25" cx="493.18" cy="134.38" r="29.06" gradientTransform="translate(0 -67.19) scale(1 1.5)" xlink:href="#Degradado_sin_nombre_80"/><radialGradient id="Degradado_sin_nombre_80-26" cx="504.7" cy="116.59" r="33.58" gradientTransform="translate(0 -58.29) scale(1 1.5)" xlink:href="#Degradado_sin_nombre_80"/><radialGradient id="Degradado_sin_nombre_80-27" cx="506.24" cy="122.46" r="39.18" gradientTransform="translate(0 -61.23) scale(1 1.5)" xlink:href="#Degradado_sin_nombre_80"/><radialGradient id="Degradado_sin_nombre_80-28" cx="430.67" cy="161.42" r="34.32" gradientTransform="translate(0 -80.71) scale(1 1.5)" xlink:href="#Degradado_sin_nombre_80"/><radialGradient id="Degradado_sin_nombre_80-29" cx="483.59" cy="92.85" r="27.95" gradientTransform="translate(0 -46.42) scale(1 1.5)" xlink:href="#Degradado_sin_nombre_80"/><radialGradient id="Degradado_sin_nombre_80-30" cx="398.32" cy="107.28" r="43.17" gradientTransform="translate(0 -53.64) scale(1 1.5)" xlink:href="#Degradado_sin_nombre_80"/><radialGradient id="Degradado_sin_nombre_80-31" cx="505.36" cy="146.86" r="42.19" gradientTransform="translate(0 -73.43) scale(1 1.5)" xlink:href="#Degradado_sin_nombre_80"/><radialGradient id="Degradado_sin_nombre_80-32" cx="444.11" cy="59.09" r="42.6" gradientTransform="translate(0 -29.54) scale(1 1.5)" xlink:href="#Degradado_sin_nombre_80"/><radialGradient id="Degradado_sin_nombre_80-33" cx="420.08" cy="128.85" r="25.53" gradientTransform="translate(0 -64.43) scale(1 1.5)" xlink:href="#Degradado_sin_nombre_80"/></defs><title>Recurso 16</title><g id="Capa_2" data-name="Capa 2"><g id="Capa_1-2" data-name="Capa 1"><polyline class="cls-1" points="705.84 25.07 571.92 25.07 640.69 119.18 571.92 209.67 705.84 209.67"/><path class="cls-2" d="M133.39,49.43a50.5,50.5,0,0,0-11.16-18.19A47,47,0,0,0,104.84,20a63.67,63.67,0,0,0-22.58-3.8H0V32.51c5.51,0,12.32,0,17.65,0H78.37q18.42,0,29.85,10.15t11.41,31q0,20.85-11.41,31T78.37,114.82H17.65v0c-2.09.11-9.87.16-17.65.16V217.42H17.65V131.17H82.26a63.67,63.67,0,0,0,22.58-3.81,47,47,0,0,0,17.39-11.27A50.41,50.41,0,0,0,133.39,97.9a70.71,70.71,0,0,0,3.89-24.23A70.72,70.72,0,0,0,133.39,49.43Z"/><line class="cls-3" x1="184.62" y1="16.17" x2="184.62" y2="215.82"/><line class="cls-3" x1="309.5" y1="16.01" x2="309.5" y2="215.67"/><line class="cls-3" x1="184.62" y1="93.01" x2="309.5" y2="93.01"/><line class="cls-3" x1="184.62" y1="140.41" x2="309.5" y2="140.41"/><polyline class="cls-4" points="747.01 216.17 747.47 31.17 874.85 147.06"/><polyline class="cls-5" points="874.01 16.17 874.15 202.17 748.17 87.46"/><polygon class="cls-6" points="997.22 21.45 1142.01 21.45 997.22 209.67 1142.01 209.67 997.22 21.45"/><line class="cls-7" x1="953.79" y1="16.17" x2="953.79" y2="216.86"/><path class="cls-8" d="M453.39,120.67s12.31-23.52,19-25.2S485.3,79.8,479.7,79.8s15.68-31.36,21.84-34.16,15.12-20.16,15.12-20.16"/><path class="cls-9" d="M479.51,56.67C475.27,63,457,74.17,459,82.17c0,3,6-1,7,3,0,4-4,7-6,11a78.86,78.86,0,0,0-5.95,21.56"/><path class="cls-10" d="M453.49,117.79c1.52-6.62-.48-12.62,1.52-19.62,2-5,6-10,6-15,0-27,2-53,7.74-79"/><path class="cls-11" d="M453.71,119.41c-.09.53-.22,1.06-.32,1.59,0-.54,0-1.08,0-1.61"/><path class="cls-12" d="M551.71,81.51s-22.8,18.83-48.25,28.09-16.86-3-23.14,3.63-27.1,7.61-27.1,7.61"/><path class="cls-13" d="M453.42,119.74s-34.9,17.62-34.9,22.91-33.71,24.79-39,25.45-10.91,4.63-5.29,5"/><path class="cls-14" d="M453.39,120.67S441.65,112.9,441,104s-10.57-3-16.52-14.54-6.28-3-11.9-18.51-9.92,0-15.87-15.87S376.08,35.2,375,37.2"/><path class="cls-15" d="M453.42,119.74s4.43.43,19.63-11.13,23.8-12.89,29.42-18.51,24.12-15.87,30.4-16.86,17.74-12.69,17.74-12.69"/><path class="cls-16" d="M453.42,119.74s-22-35.59-19.7-39.56-11.9-1.32-10.58-17.51S405,49.78,410.25,33.25s-2.64-7.7-6.11-15.91"/><path class="cls-17" d="M453.22,120.84s13.22,37,11.24,40,11,70.46,16.71,71.09"/><path class="cls-18" d="M453.22,120.84s7.27,19.5,11.57,19.83-.33,9.25,9.58,24.45,32,54.84,31.7,57.34"/><path class="cls-19" d="M453.22,119.84s14.87,13.22,14.54,17.52,5-3.3,14.88,9.92,11.23,4.62,20.16,18.84,7.27,1.32,11.23,2.64"/><path class="cls-20" d="M453.39,120.67s9.08,7.11,19.33,8.1,2.64,3,22.48,10.9,20.16,7.28,24.12,11.24"/><path class="cls-21" d="M453.54,119s1.33,27.91-3.29,28.9,3.3,4.29,0,11.9-10.58,35-4.63,40"/><path class="cls-22" d="M453.22,119.84s-20.82,33.72-43,61.15S389,215.69,389,215.69"/><path class="cls-23" d="M453.39,120.67s-7.77,24-22.31,25.61-17.85,19.5-12.89,18.84-30.77,31.74-36.54,45.12"/><path class="cls-24" d="M454.42,120.67s-60.69,22.31-58.71,27.6-41.64,11.9-46.6,5.95"/><path class="cls-25" d="M452.07,120.67S361.67,58,358.7,52.09"/><path class="cls-26" d="M453.39,120.67s-72.22-32.89-73.21-32.89"/><path class="cls-27" d="M453.42,119.74s-37.88-5.18-43.5-4.19-25.11,1.65-26.44.66"/><path class="cls-28" d="M452.07,120.67S400,145,398.69,149.26s-26.77,3.3-32.39,15.53"/><path class="cls-29" d="M453.72,122.23s.49,28.35,4.13,30.33-6.61,13.89-6.61,18.18-14.88,12.56-15.54,16.2-.66,19.83-4.95,21.48,2.72,25.24,2.72,25.24"/><path class="cls-30" d="M455.63,122.23s5.52,7.86,5.52,10.17,11.24,4.3,10.58,11.24,3,17.19,6.61,15.87,7.27,3.63,7.27,8.26,2,17.85,8.59,17.85,14.88-2,15.87,5.28,1.6,25,1.13,28.72"/><path class="cls-31" d="M457.78,119A32.86,32.86,0,0,0,477,124.8c11.23-.33,3,9.26,27.76,6.28s24.79,9.59,26.11,3S566,140.8,566,140.8"/><path class="cls-32" d="M457.78,121s6,7.44,19.24,3.14,4.29,8.92,25.45,12.89,24.12,13.55,26.11,9.92"/><path class="cls-33" d="M460,119s57.67,1.13,71.22-1.51,18.18-3.64,18.18-3.64"/><path class="cls-34" d="M453.51,120.67s27.47-.5,43.34,2.81.33-5,62.13.66"/><path class="cls-35" d="M452.07,121.68s-16.37,33.86-13.39,38.82-28.09,33.38-29.42,40.65"/><path class="cls-36" d="M457.28,117.41A631.07,631.07,0,0,0,509,71.17a2.66,2.66,0,0,0,.73-2.89"/><path class="cls-37" d="M342,93.41c12-.24,23,3.76,34,6.76a35.52,35.52,0,0,0,9,4c13,5,26,6,40,10,1,0,1-1,2-1a7.58,7.58,0,0,1,4,2c2,1,6,0,8,1,4,3,9,4,14,5,1,0,1-1,1.63-1.53"/><path class="cls-38" d="M455.54,120.67S479,137,484.62,136.37s15.53,13.22,28.42,14.54,41.62,18.18,42.13,22.15"/><path class="cls-39" d="M453.39,115.67s-1.82-23.63-3.8-24,3.63-8.59-2-10.25-9.91-39.33-7.93-43.62-.66-11.57-3-10.91-2.65-21.1,0-24.43"/><path class="cls-40" d="M452.07,120.67s-9.43,4.46-14.38,2.81-21.49,2.64-13.55,4-15.87,1.32-17.19-.67,4,5.62-9.59,5.62S389.1,137,389.1,137"/></g></g></svg>