<svg width="0" height="0" class="hidden">
  <symbol xmlns="http://www.w3.org/2000/svg" viewBox="0 0 24 24" id="cycle-events">
    <g fill="var(--phoenix-options-icon-path, #fff)">
      <polygon points="15.1,0.4 9.9,5.6 15.1,10.8" />
      <path d="M14.7,4.1v2.9c3.3,0,6,2.7,6,6c0,3.3-2.7,6-6,6c-0.9,0-1.7-0.2-2.5-0.6L10,20.7c1.4,0.8,3,1.3,4.7,1.3c4.9,0,9-4,9-9 C23.7,8.2,19.6,4.1,14.7,4.1z" />
      <g transform="translate(-221.88533,-2397.7773)" fill="var(--phoenix-options-icon-path, #fff)">
        <g transform="matrix(0.55301159,0,0,0.55301159,131.42881,1166.9802)">
          <path d="m 180.40771,2250.7762 c -1.42316,1.8249 -2.91119,3.2856 -4.63375,4.6276 1.42715,0.8241 4.77546,2.3178 5.8603,1.2332 0.74052,-0.7403 0.4002,-3.0561 -1.22655,-5.8608 m -6.40621,3.4752 c 1.98204,-1.4498 3.79642,-3.2637 5.24552,-5.2452 -1.44311,-1.9746 -3.25649,-3.7905 -5.24552,-5.2452 -1.99601,1.4587 -3.80639,3.2766 -5.24652,5.2452 1.44911,1.9825 3.26448,3.7954 5.24652,5.2452 m -1.77346,1.1524 c -1.72655,-1.346 -3.21457,-2.8067 -4.63374,-4.6276 -1.62675,2.8047 -1.96707,5.1205 -1.22655,5.8608 1.07485,1.0736 4.39422,-0.3851 5.86029,-1.2332 m -4.63374,-8.1676 c 1.42216,-1.8249 2.91019,-3.2847 4.63374,-4.6276 -1.42515,-0.8242 -4.77446,-2.3188 -5.86029,-1.2333 -0.74052,0.7404 -0.4002,3.0562 1.22655,5.8609 m 8.17966,-4.6276 c 1.72655,1.3449 3.21358,2.8056 4.63375,4.6276 3.61078,-6.2271 0.88024,-7.8145 -4.63375,-4.6276 m 5.89024,6.3976 c 5.43414,8.4909 0.76347,13.0586 -7.6627,7.6677 -8.40621,5.3779 -13.1158,0.8511 -7.66269,-7.6677 -5.39722,-8.4321 -0.84631,-13.1115 7.66269,-7.6678 8.42318,-5.3889 13.10183,-0.8301 7.6627,7.6678 m -6.59882,-1.0606 c 0.58383,0.5846 0.58383,1.5325 0,2.1162 -0.58483,0.5847 -1.53294,0.5847 -2.11777,0 -0.58483,-0.5837 -0.58483,-1.5316 0,-2.1162 0.58483,-0.5847 1.53294,-0.5847 2.11777,0" />
        </g>
      </g>
    </g>
  </symbol>
</svg>
