<?xml version="1.0" encoding="utf-8"?>
<!-- Generator: Adobe Illustrator 23.0.4, SVG Export Plug-In . SVG Version: 6.00 Build 0)  -->
<svg version="1.1" id="Capa_1" xmlns="http://www.w3.org/2000/svg" xmlns:xlink="http://www.w3.org/1999/xlink" x="0px" y="0px"
	 viewBox="0 0 550.8 550.8" style="enable-background:new 0 0 550.8 550.8;" xml:space="preserve">
<style type="text/css">
	.st0{fill:#FFFFFF;}
</style>
<g>
	<g>
		<path class="st0" d="M488.4,197h-13.2v-63.8c0-0.4-0.1-0.8-0.1-1.2c0-2.5-0.8-5-2.6-7L366.3,3.7c0,0-0.1,0-0.1-0.1
			c-0.6-0.7-1.4-1.3-2.2-1.8c-0.2-0.2-0.5-0.3-0.7-0.4c-0.7-0.4-1.4-0.7-2.1-0.9c-0.2-0.1-0.4-0.1-0.6-0.2C359.9,0.1,359,0,358.2,0
			h-261C85.3,0,75.6,9.7,75.6,21.6V197H62.4c-17,0-30.9,13.8-30.9,30.9v160.5c0,17,13.8,30.9,30.9,30.9h13.2v109.9
			c0,11.9,9.7,21.6,21.6,21.6h356.4c11.9,0,21.6-9.7,21.6-21.6V419.3h13.2c17,0,30.9-13.8,30.9-30.9V227.9
			C519.3,210.8,505.5,197,488.4,197z M97.2,21.6h250.2v110.5c0,6,4.8,10.8,10.8,10.8h95.4V197H97.2V21.6z M285.3,273.7v-23.2h91.3
			v23.2h-33.6v85.6h-24.2v-85.6H285.3z M289.2,336.1v23.2h-71.2V250.5h24.2v85.6H289.2z M90.9,305c0-34.2,25.9-56.8,56.6-56.8
			c31.1,0,45.6,18.4,50.3,33.6l-23.3,8.1c-1.7-6.8-8.9-19-27-19c-14.7,0-32.1,9.8-32.1,34.1c0,22.7,15,34.5,32.7,34.5
			c17.9,0,25.5-11.7,26.8-17.8h-32.7v-20.6h55.4v58.1H178l-1.5-11c-4.8,6.9-15,13.3-30.5,13.3C115.7,361.6,90.9,339.4,90.9,305z
			 M97.2,523.3v-104h356.4l0,104H97.2z M461.4,273.5h-45.9v23h40.3v22.1h-40.2v40.7h-24.4V250.5h70.1V273.5z"/>
	</g>
</g>
</svg>
