<svg width="0" height="0" class="hidden">
	<symbol xmlns="http://www.w3.org/2000/svg" viewBox="0 0 106.86 306.94" id="info">
		<path fill="var(--phoenix-options-icon-path, #fff)" d="M0 300.79q23.52-2.21 29.68-8t6.16-31.55V156.3q0-14.28-2-19.79-3.3-9-13.85-9a25.86 25.86 0 0 0-4.73.44Q13 128.4 2 131.47v-6.82l9.45-3.08q38.48-12.51 53.65-18.91c4.07-1.76 6.7-2.66 7.9-2.66a11.93 11.93 0 0 1 .44 3.3v157.89q0 25.08 6 31.44t27.39 8.16v6.15H0zm35-294A21.85 21.85 0 0 1 51.27 0 23 23 0 1 1 28.4 23.13V23A22.44 22.44 0 0 1 35 6.79z">
		</path>
	</symbol>
</svg>
