<svg width="0" height="0" class="hidden">
	<symbol xmlns="http://www.w3.org/2000/svg" viewBox="0 0 24 24" id="move-lock">
		<g fill="var(--phoenix-options-icon-path, #fff)">
			<path d="M13.7,18.2L12,20l-1.7-1.7c-0.7-0.7-1.7-0.7-2.3-0.1c-0.6,0.6-0.6,1.7,0.1,2.3l2.8,2.8c0.3,0.3,0.7,0.5,1.2,0.5 c0,0,0,0,0.1,0c0.4,0,0.9-0.2,1.2-0.5l2.8-2.8c0.3-0.3,0.5-0.7,0.5-1.1c0-0.5-0.1-0.9-0.4-1.2C15.4,17.6,14.4,17.6,13.7,18.2z" />
			<path d="M13.2,0.7c-0.3-0.3-0.8-0.5-1.3-0.5c-0.4,0-0.9,0.2-1.1,0.5L8,3.5C7.7,3.9,7.5,4.3,7.5,4.8c0,0.4,0.2,0.8,0.5,1.1 C8.2,6.1,8.6,6.3,9,6.3h0c0.5,0,0.9-0.2,1.3-0.5L12,4l1.7,1.7c0.7,0.7,1.7,0.7,2.3,0.1c0.6-0.6,0.6-1.7-0.1-2.3L13.2,0.7z" />
			<path d="M6.3,9c0-0.4-0.2-0.8-0.4-1.1C5.6,7.6,5.2,7.5,4.8,7.5c0,0,0,0,0,0C4.3,7.5,3.9,7.7,3.5,8l-2.8,2.8 c-0.3,0.3-0.5,0.7-0.5,1.2c0,0.5,0.2,0.9,0.5,1.2L3.5,16c0.3,0.3,0.8,0.5,1.2,0.5c0.4,0,0.8-0.1,1.1-0.4c0.6-0.6,0.6-1.7-0.1-2.3 L4,12l1.7-1.7C6.1,9.9,6.3,9.5,6.3,9z" />
			<path d="M23.3,10.8L20.5,8c-0.7-0.7-1.7-0.7-2.3-0.1c-0.6,0.6-0.6,1.6,0.1,2.3L20,12l-1.7,1.7c-0.7,0.7-0.7,1.7-0.1,2.3 c0.3,0.3,0.7,0.5,1.1,0.5c0,0,0.1,0,0.1,0c0.4,0,0.8-0.2,1.1-0.5l2.8-2.8c0.3-0.3,0.5-0.8,0.5-1.3C23.8,11.5,23.6,11.1,23.3,10.8z" />
			<circle cx="12" cy="12" r="2.8" />
		</g>
	</symbol>
</svg>
