<svg width="0" height="0" class="hidden">
	<symbol xmlns="http://www.w3.org/2000/svg" viewBox="0 0 512 512" id="rotate">
		<path fill="var(--phoenix-options-icon-path, #fff)" d="M256 45.7C114.8 45.7 0 107.2 0 182.9c.2 13.9 4 27.4 11.1 39.3 100.1-113.2 389.6-113.3 489.9 0 7.1-11.9 10.9-25.5 11.1-39.3C512 107.2 397.2 45.7 256 45.7zM359.4 384c-99.2-72.8-29.6-21.6-112.5-82.5v27.3c0 2.5-1 4.9-2.8 6.6-1.8 1.7-4.2 2.6-6.7 2.6-83.7-3.2-191.2-30.9-237.4-98.9v53.5c0 71.7 104.6 131.8 238.1 136.8 4.9.2 8.8 4.2 8.8 9.1v28L359.4 384z">
		</path>
		<path fill="var(--phoenix-options-icon-path, #fff)" d="M321.9 333.8l58.3 42.8c2.3 1.7 3.7 4.5 3.7 7.4s-1.4 5.7-3.7 7.4l-42.3 31.1C439.3 403.7 512 351 512 292.6V239c-38.1 56.2-121.9 85.3-190.1 94.8z">
		</path>
	</symbol>
</svg>
