<svg width="0" height="0" class="hidden">
	<symbol xmlns="http://www.w3.org/2000/svg" viewBox="0 0 512 512" id="views">
		<path fill="var(--phoenix-options-icon-path, #fff)" d="M508.177 245.995C503.607 240.897 393.682 121 256 121S8.394 240.897 3.823 245.995a15.002 15.002 0 0 0 0 20.01C8.394 271.103 118.32 391 256 391s247.606-119.897 252.177-124.995a15.004 15.004 0 0 0 0-20.01zM256 361c-57.891 0-105-47.109-105-105s47.109-105 105-105 105 47.109 105 105-47.109 105-105 105z">
		</path>
		<path fill="var(--phoenix-options-icon-path, #fff)" d="M271 226c0-15.09 7.491-28.365 18.887-36.53C279.661 184.235 268.255 181 256 181c-41.353 0-75 33.647-75 75s33.647 75 75 75c37.024 0 67.668-27.034 73.722-62.358C299.516 278.367 271 255.522 271 226z">
		</path>
	</symbol>
</svg>
