<?xml version="1.0" encoding="utf-8"?>
<!-- Generator: Adobe Illustrator 23.0.4, SVG Export Plug-In . SVG Version: 6.00 Build 0)  -->
<svg version="1.1"
	 id="svg2" xmlns:cc="http://creativecommons.org/ns#" xmlns:dc="http://purl.org/dc/elements/1.1/" xmlns:inkscape="http://www.inkscape.org/namespaces/inkscape" xmlns:rdf="http://www.w3.org/1999/02/22-rdf-syntax-ns#" xmlns:sodipodi="http://sodipodi.sourceforge.net/DTD/sodipodi-0.dtd" xmlns:svg="http://www.w3.org/2000/svg"
	 xmlns="http://www.w3.org/2000/svg" xmlns:xlink="http://www.w3.org/1999/xlink" x="0px" y="0px" viewBox="0 0 108.3 74"
	 style="enable-background:new 0 0 108.3 74;" xml:space="preserve">
<style type="text/css">
	.st0{fill:#FFFFFF;}
	.st1{fill:none;stroke:#BF264E;stroke-width:30;stroke-linejoin:round;stroke-miterlimit:10;}
	.st2{fill:#118AB2;}
	.st3{fill:#67B7C9;}
</style>
<sodipodi:namedview  bordercolor="#666666" borderopacity="1.0" gridtolerance="10.0" guidetolerance="10.0" id="base" inkscape:current-layer="g13" inkscape:cx="54.134499" inkscape:cy="36.989235" inkscape:pageopacity="0.0" inkscape:pageshadow="2" inkscape:window-height="746" inkscape:window-width="1024" inkscape:window-x="-5" inkscape:window-y="-3" inkscape:zoom="5.2000112" objecttolerance="10.0" pagecolor="#ffffff" showgrid="false">
	</sodipodi:namedview>
<defs>
	
	
		<inkscape:perspective  id="perspective3262" inkscape:persp3d-origin="54.134499 : 24.65949 : 1" inkscape:vp_x="0 : 36.989235 : 1" inkscape:vp_y="0 : 1000 : 0" inkscape:vp_z="108.269 : 36.989235 : 1" sodipodi:type="inkscape:persp3d">
		</inkscape:perspective>
</defs>
<g id="g11" transform="matrix(1.25,0,0,-1.25,-0.4648437,74.565875)">
	<g id="g13" transform="scale(0.1,0.1)">
		<path id="path17" class="st0" d="M437.3,133.3l382.7,171.9"/>
		<path id="path19" class="st1" d="M437.3,133.3l382.7,171.9"/>
		<path id="path23" class="st2" d="M188.6,301.5H40v5.7c11.6,1.4,17.2,3.5,21.5,16.8l33,104.9c0,0,2.7,10,2.7,13.1
			c0,7.5-2.4,7.7-19.6,9.8v5.7h85.2v-5.7c-15-0.7-22.8-2.8-27.1-16.8L101,323.3c-1.3-4.4-1.3-6.3-1.3-7.5c0-2.1,0-7,17.5-7
			c32.2,0,62.3,9.8,80.9,39l6.4-1.2L188.6,301.5"/>
		<path id="path25" class="st2" d="M387.9,301.5h-85.3v5.7c20.4,0.7,23.9,6.6,27.2,16.9l17.2,54.4h-64.3L269.3,336
			c-1.9-6.1-4.6-12.9-4.6-18.8c0-8.7,5.7-9.1,19.6-10.1v-5.7h-79.6v5.7c10,1.4,17,2.4,21.5,16.9l32.8,104.8c0.8,2.3,3,10,3,12.6
			c0,7.7-3,8.2-19.6,10.3v5.7h85.3v-5.7c-15.1-0.5-22.9-2.8-27.2-16.8L286,388.6h64.3l12.7,40.3c0,0,2.7,10,2.7,13.1
			c0,7.5-2.4,7.7-19.6,9.8v5.7h80.2v-5.7c-10.8-1.4-17.2-2.3-21.8-16.8L375,342.3c-1.9-6.3-6.7-19.7-6.7-25.3
			c0-8.7,9.4-9.6,19.6-9.9V301.5"/>
		<path id="path27" class="st2" d="M590,410.4l-8.5,1.4c0.5,2.5,0.8,5.3,0.8,7.8c0,22.4-12.4,36.7-35.9,36.7
			c-43.5,0-75.1-59.9-75.1-101.2c0-41.8,35.1-41.8,38.9-41.8c21.3,0,38.6,6.1,58.3,27.5l8.1-5.1c-13.8-18-38.3-34.9-73.4-34.9
			c-35.1,0-73.2,18.1-73.2,60.3c0,51.8,44.6,103.3,110.2,103.3c23.2,0,38.3-6.7,44.8-6.7c5.9,0,8,3,10.7,6.7h8.1L590,410.4"/>
		<path id="path29" class="st2" d="M760.5,414.1c0-29.9-39.2-105.1-95.7-105.1c-19.4,0-19.4,9.3-19.4,11.8
			c0,37.4,39.6,123.6,85,123.6C756.4,444.3,760.5,425.1,760.5,414.1z M645.8,534.2c23.9-0.4,26.8-2.1,26.8-10.4
			c0-5-3.7-13.9-6.6-23.9l-56.1-178.8v-1.4c0-7.8,31.8-18.8,53.6-18.8c63.1,0,131.8,61.5,131.8,117.8c0,26-20.1,43.3-48.9,43.3
			c-37.1,0-63.1-33.3-76.7-51.9l-0.8,0.4c14,40.3,33,106.6,42.1,135.8l-2.1,1.8c-21.5-3.6-42.5-6.1-63.1-8.3V534.2"/>
		<path id="path31" class="st3" d="M203.9,253.5l-6.5-1.2c-18.5,29.2-48.6,39-80.9,39c-17.5,0-17.5-4.9-17.5-7c0-1.2,0-3,1.3-7.5
			l34.7-111.7c4.3-14,12.1-16.1,27.1-16.8v-5.7H77.1v5.7c17.2,2.1,19.6,2.3,19.6,9.8c0,3-2.7,13.1-2.7,13.1L61,276.2
			c-4.3,13.3-9.9,15.4-21.5,16.8v5.7h148.6L203.9,253.5"/>
		<path id="path33" class="st3" d="M387.9,294.1c-10.2-0.2-19.6-1.2-19.6-9.9c0-5.6,4.8-19,6.7-25.3l29.3-92.6
			c4.6-14.4,11-15.4,21.8-16.8v-5.7H346v5.7c17.2,2.1,19.6,2.3,19.6,9.8c0,3-2.7,13.1-2.7,13.1l-12.7,40.3H286l14.5-46.4
			c4.3-14,12.1-16.3,27.2-16.8v-5.7h-85.3v5.7c16.7,2.1,19.6,2.6,19.6,10.3c0,2.6-2.2,10.3-3,12.6l-32.8,104.8
			c-4.6,14.5-11.6,15.5-21.5,16.9v5.7h79.6v-5.7c-14-0.9-19.6-1.4-19.6-10.1c0-5.9,2.7-12.7,4.6-18.8l13.5-42.4H347l-17.2,54.4
			c-3.2,10.3-6.7,16.2-27.2,16.9v5.7h85.3V294.1"/>
		<path id="path35" class="st3" d="M603.7,136.7h-8.1c-2.7,3.7-4.8,6.7-10.7,6.7c-6.4,0-21.6-6.7-44.8-6.7
			C474.6,136.7,430,188.2,430,240c0,42.2,38.1,60.3,73.2,60.3c35.1,0,59.7-16.9,73.4-34.9l-8.1-5.1c-19.7,21.5-37,27.5-58.3,27.5
			c-3.8,0-38.9,0-38.9-41.8c0-41.3,31.6-101.2,75.1-101.2c23.5,0,35.9,14.3,35.9,36.7c0,2.5-0.3,5.3-0.8,7.8l8.5,1.4L603.7,136.7"/>
		<path id="path37" class="st3" d="M730.4,156.9c-45.4,0-85,86.2-85,123.6c0,2.5,0,11.8,19.4,11.8c56.5,0,95.7-75.1,95.7-105.1
			C760.5,176.1,756.4,156.9,730.4,156.9L730.4,156.9z M645.8,61.4c20.6-2.1,41.7-4.6,63.1-8.3l2.1,1.8c-9.1,29.2-28,95.5-42.1,135.8
			l0.8,0.4c13.6-18.5,39.6-51.9,76.7-51.9c28.8,0,48.9,17.3,48.9,43.3c0,56.3-68.7,117.8-131.8,117.8c-21.9,0-53.6-11-53.6-18.8
			v-1.4L666,101.4c2.9-10,6.6-18.9,6.6-23.9c0-8.2-2.9-10-26.8-10.4V61.4"/>
	</g>
</g>
</svg>
