<svg width="0" height="0" class="hidden">
  <symbol xmlns="http://www.w3.org/2000/svg" viewBox="0 0 32.6 31.8" id="github">
    <title>gitbhub</title>
    <path d="M16.3 0C7.3 0 0 7.3 0 16.3c0 7 4.5 13.3 11.2 15.5.8.1 1.1-.4 1.1-.8v-2.8c-4.6 1-5.5-2.2-5.5-2.2-.3-1-.9-1.8-1.8-2.4-1.5-1 .1-1 .1-1 1 .1 2 .8 2.5 1.7.9 1.7 3 2.3 4.7 1.4.1-.8.4-1.6 1-2.2-3.6-.4-7.4-1.8-7.4-8 0-1.6.6-3.2 1.7-4.4-.6-1.4-.5-2.9.1-4.3 0 0 1.4-.4 4.5 1.7 2.7-.7 5.5-.7 8.2 0 3.1-2.1 4.5-1.7 4.5-1.7.6 1.4.7 2.9.2 4.3 1.1 1.2 1.7 2.8 1.7 4.4 0 6.3-3.8 7.6-7.4 8 .8.8 1.2 1.9 1.1 3V31c0 .6.3.9 1.1.8 8.5-2.9 13-12.2 10.1-20.7C29.3 4.5 23.2.1 16.3 0z"
      fill="var(--phoenix-text-color-secondary)"></path>
  </symbol>
</svg>
