<svg width="0" height="0" class="hidden">
	<symbol xmlns="http://www.w3.org/2000/svg" viewBox="0 0 309.3 290.07" id="import">
		<g fill="var(--phoenix-options-icon-path, #fff)">
			<path d="M67.7 116.08h173.9l38.7 38.7h29l-58-58H58l-58 58h29l38.7-38.7z"></path>
			<path d="M212.6 154.77v19.3a19.32 19.32 0 0 1-19.3 19.31H116a19.31 19.31 0 0 1-19.3-19.31v-19.3H0v116a19.31 19.31 0 0 0 19.3 19.3h270.6a19.31 19.31 0 0 0 19.3-19.3v-116zm7.4-92.99l-55.8-55.4c-5.2-8.5-13.8-8.5-19.1 0l-55.9 55.4c-5.2 8.6-1 15.5 9.5 15.5h26.9v58.1a9.64 9.64 0 0 0 9.7 9.69H174a9.71 9.71 0 0 0 9.7-9.69v-58.1h26.9c10.4 0 14.7-7 9.4-15.5z"></path>
		</g>
	</symbol>
</svg>
